%FSTAX23Y23*%
%MOIN*%
%SFA1B1*%

%IPPOS*%
%ADD55C,0.002008*%
%LNpcb_baja_teste-1*%
%LPD*%
G54D55*
X0661Y01295D02*
X06709D01*
X0666Y01245D02*
Y01344D01*
X01815Y01295D02*
X01914D01*
X01865Y01245D02*
Y01344D01*
X018Y0478D02*
X01899D01*
X0185Y0473D02*
Y04829D01*
X0666Y0477D02*
X06759D01*
X0671Y0472D02*
Y04819D01*
X06775Y03795D02*
X06805D01*
X0679Y0378D02*
Y0381D01*
X06545Y04075D02*
X06575D01*
X0656Y0406D02*
Y0409D01*
X06645Y04075D02*
X06675D01*
X0666Y0406D02*
Y0409D01*
X06445Y04075D02*
X06475D01*
X0646Y0406D02*
Y0409D01*
X06545Y04225D02*
X06575D01*
X0656Y0421D02*
Y0424D01*
X06645Y04225D02*
X06675D01*
X0666Y0421D02*
Y0424D01*
X06445Y04225D02*
X06475D01*
X0646Y0421D02*
Y0424D01*
X0653Y0343D02*
X0656D01*
X06545Y03415D02*
Y03445D01*
X0653Y0333D02*
X0656D01*
X06545Y03315D02*
Y03345D01*
X0653Y0353D02*
X0656D01*
X06545Y03515D02*
Y03545D01*
X05463Y0398D02*
X05506D01*
X05485Y03958D02*
Y04001D01*
X05463Y0388D02*
X05506D01*
X05485Y03858D02*
Y03901D01*
X05463Y0378D02*
X05506D01*
X05485Y03758D02*
Y03801D01*
X05463Y0368D02*
X05506D01*
X05485Y03658D02*
Y03701D01*
X05463Y0358D02*
X05506D01*
X05485Y03558D02*
Y03601D01*
X05463Y0348D02*
X05506D01*
X05485Y03458D02*
Y03501D01*
X05463Y0338D02*
X05506D01*
X05485Y03358D02*
Y03401D01*
X05463Y0328D02*
X05506D01*
X05485Y03258D02*
Y03301D01*
X05463Y0318D02*
X05506D01*
X05485Y03158D02*
Y03201D01*
X05463Y0308D02*
X05506D01*
X05485Y03058D02*
Y03101D01*
X05463Y0298D02*
X05506D01*
X05485Y02958D02*
Y03001D01*
X05463Y0288D02*
X05506D01*
X05485Y02858D02*
Y02901D01*
X05463Y0278D02*
X05506D01*
X05485Y02758D02*
Y02801D01*
X05463Y0268D02*
X05506D01*
X05485Y02658D02*
Y02701D01*
X05463Y0258D02*
X05506D01*
X05485Y02558D02*
Y02601D01*
X06063Y0258D02*
X06106D01*
X06085Y02558D02*
Y02601D01*
X06063Y0268D02*
X06106D01*
X06085Y02658D02*
Y02701D01*
X06063Y0278D02*
X06106D01*
X06085Y02758D02*
Y02801D01*
X06063Y0288D02*
X06106D01*
X06085Y02858D02*
Y02901D01*
X06063Y0298D02*
X06106D01*
X06085Y02958D02*
Y03001D01*
X06063Y0308D02*
X06106D01*
X06085Y03058D02*
Y03101D01*
X06063Y0318D02*
X06106D01*
X06085Y03158D02*
Y03201D01*
X06063Y0328D02*
X06106D01*
X06085Y03258D02*
Y03301D01*
X06063Y0338D02*
X06106D01*
X06085Y03358D02*
Y03401D01*
X06063Y0348D02*
X06106D01*
X06085Y03458D02*
Y03501D01*
X06063Y0358D02*
X06106D01*
X06085Y03558D02*
Y03601D01*
X06063Y0368D02*
X06106D01*
X06085Y03658D02*
Y03701D01*
X06063Y0378D02*
X06106D01*
X06085Y03758D02*
Y03801D01*
X06063Y0388D02*
X06106D01*
X06085Y03858D02*
Y03901D01*
X06063Y0398D02*
X06106D01*
X06085Y03958D02*
Y04001D01*
X05445Y0249D02*
X05515D01*
X0548Y02455D02*
Y02525D01*
X06055Y0249D02*
X06125D01*
X0609Y02455D02*
Y02525D01*
X05445Y0407D02*
X05515D01*
X0548Y04035D02*
Y04105D01*
X06055Y0407D02*
X06125D01*
X0609Y04035D02*
Y04105D01*
X0231Y04259D02*
X02357D01*
X02333Y04236D02*
Y04283D01*
X02406Y04259D02*
X02453D01*
X0243Y04236D02*
Y04283D01*
X0251Y04259D02*
X02557D01*
X02533Y04236D02*
Y04283D01*
X0261Y04259D02*
X02657D01*
X02633Y04236D02*
Y04283D01*
X0271Y04259D02*
X02757D01*
X02733Y04236D02*
Y04283D01*
X0281Y04259D02*
X02857D01*
X02833Y04236D02*
Y04283D01*
X0291Y04259D02*
X02957D01*
X02933Y04236D02*
Y04283D01*
X0301Y04259D02*
X03057D01*
X03033Y04236D02*
Y04283D01*
X0311Y04259D02*
X03157D01*
X03133Y04236D02*
Y04283D01*
X0321Y04259D02*
X03257D01*
X03233Y04236D02*
Y04283D01*
X0331Y04259D02*
X03357D01*
X03333Y04236D02*
Y04283D01*
X0341Y04259D02*
X03457D01*
X03433Y04236D02*
Y04283D01*
X0351Y04259D02*
X03557D01*
X03533Y04236D02*
Y04283D01*
X0361Y04259D02*
X03657D01*
X03633Y04236D02*
Y04283D01*
X0371Y04259D02*
X03757D01*
X03733Y04236D02*
Y04283D01*
X0381Y04259D02*
X03857D01*
X03833Y04236D02*
Y04283D01*
X02064Y0424D02*
X0217D01*
X02117Y04186D02*
Y04293D01*
X02064Y03019D02*
X0217D01*
X02117Y02966D02*
Y03072D01*
X05016Y0424D02*
X05123D01*
X0507Y04186D02*
Y04293D01*
X05016Y03019D02*
X05123D01*
X0507Y02966D02*
Y03072D01*
X03553Y01395D02*
X03586D01*
X0357Y01378D02*
Y01411D01*
X03253Y01395D02*
X03286D01*
X0327Y01378D02*
Y01411D01*
X06638Y03925D02*
X06681D01*
X0666Y03903D02*
Y03946D01*
X06438Y03925D02*
X06481D01*
X0646Y03903D02*
Y03946D01*
X05479Y0203D02*
X0551D01*
X05495Y02014D02*
Y02045D01*
X05373Y0203D02*
X05416D01*
X05395Y02008D02*
Y02051D01*
X03052Y01605D02*
X03087D01*
X0307Y01587D02*
Y01622D01*
X03152Y01605D02*
X03187D01*
X0317Y01587D02*
Y01622D01*
X03252Y01605D02*
X03287D01*
X0327Y01587D02*
Y01622D01*
X03352Y01605D02*
X03387D01*
X0337Y01587D02*
Y01622D01*
X03452Y01605D02*
X03487D01*
X0347Y01587D02*
Y01622D01*
X03052Y02205D02*
X03087D01*
X0307Y02187D02*
Y02222D01*
X03152Y02205D02*
X03187D01*
X0317Y02187D02*
Y02222D01*
X03252Y02205D02*
X03287D01*
X0327Y02187D02*
Y02222D01*
X03352Y02205D02*
X03387D01*
X0337Y02187D02*
Y02222D01*
X03452Y02205D02*
X03487D01*
X0347Y02187D02*
Y02222D01*
X05115Y04515D02*
X05144D01*
X0513Y045D02*
Y04529D01*
X05165Y04515D02*
X05194D01*
X0518Y045D02*
Y04529D01*
X05215Y04515D02*
X05244D01*
X0523Y045D02*
Y04529D01*
X06393Y0353D02*
X06426D01*
X0641Y03513D02*
Y03546D01*
X06393Y0323D02*
X06426D01*
X0641Y03213D02*
Y03246D01*
X02852Y01605D02*
X02887D01*
X0287Y01587D02*
Y01622D01*
X02852Y01705D02*
X02887D01*
X0287Y01687D02*
Y01722D01*
X02852Y01805D02*
X02887D01*
X0287Y01787D02*
Y01822D01*
X02852Y01905D02*
X02887D01*
X0287Y01887D02*
Y01922D01*
X02852Y02005D02*
X02887D01*
X0287Y01987D02*
Y02022D01*
X02852Y02105D02*
X02887D01*
X0287Y02087D02*
Y02122D01*
X02852Y02205D02*
X02887D01*
X0287Y02187D02*
Y02222D01*
X02852Y02305D02*
X02887D01*
X0287Y02287D02*
Y02322D01*
X02552Y01605D02*
X02587D01*
X0257Y01587D02*
Y01622D01*
X02552Y01705D02*
X02587D01*
X0257Y01687D02*
Y01722D01*
X02552Y01805D02*
X02587D01*
X0257Y01787D02*
Y01822D01*
X02552Y01905D02*
X02587D01*
X0257Y01887D02*
Y01922D01*
X02552Y02005D02*
X02587D01*
X0257Y01987D02*
Y02022D01*
X02552Y02105D02*
X02587D01*
X0257Y02087D02*
Y02122D01*
X02552Y02205D02*
X02587D01*
X0257Y02187D02*
Y02222D01*
X02552Y02305D02*
X02587D01*
X0257Y02287D02*
Y02322D01*
X0482Y04515D02*
X04849D01*
X04835Y045D02*
Y04529D01*
X0487Y04515D02*
X04899D01*
X04885Y045D02*
Y04529D01*
X0492Y04515D02*
X04949D01*
X04935Y045D02*
Y04529D01*
X03003Y01395D02*
X03036D01*
X0302Y01378D02*
Y01411D01*
X02703Y01395D02*
X02736D01*
X0272Y01378D02*
Y01411D01*
X03727Y01605D02*
X03762D01*
X03745Y01587D02*
Y01622D01*
X03827Y01605D02*
X03862D01*
X03845Y01587D02*
Y01622D01*
X03927Y01605D02*
X03962D01*
X03945Y01587D02*
Y01622D01*
X04027Y01605D02*
X04062D01*
X04045Y01587D02*
Y01622D01*
X04127Y01605D02*
X04162D01*
X04145Y01587D02*
Y01622D01*
X03727Y02205D02*
X03762D01*
X03745Y02187D02*
Y02222D01*
X03827Y02205D02*
X03862D01*
X03845Y02187D02*
Y02222D01*
X03927Y02205D02*
X03962D01*
X03945Y02187D02*
Y02222D01*
X04027Y02205D02*
X04062D01*
X04045Y02187D02*
Y02222D01*
X04127Y02205D02*
X04162D01*
X04145Y02187D02*
Y02222D01*
X03382Y0237D02*
X03417D01*
X034Y02352D02*
Y02387D01*
X03482Y0237D02*
X03517D01*
X035Y02352D02*
Y02387D01*
X03582Y0237D02*
X03617D01*
X036Y02352D02*
Y02387D01*
X03682Y0237D02*
X03717D01*
X037Y02352D02*
Y02387D01*
X03782Y0237D02*
X03817D01*
X038Y02352D02*
Y02387D01*
X03882Y0237D02*
X03917D01*
X039Y02352D02*
Y02387D01*
X03982Y0237D02*
X04017D01*
X04Y02352D02*
Y02387D01*
X04082Y0237D02*
X04117D01*
X041Y02352D02*
Y02387D01*
X03382Y0267D02*
X03417D01*
X034Y02652D02*
Y02687D01*
X03482Y0267D02*
X03517D01*
X035Y02652D02*
Y02687D01*
X03582Y0267D02*
X03617D01*
X036Y02652D02*
Y02687D01*
X03682Y0267D02*
X03717D01*
X037Y02652D02*
Y02687D01*
X03782Y0267D02*
X03817D01*
X038Y02652D02*
Y02687D01*
X03882Y0267D02*
X03917D01*
X039Y02652D02*
Y02687D01*
X03982Y0267D02*
X04017D01*
X04Y02652D02*
Y02687D01*
X04082Y0267D02*
X04117D01*
X041Y02652D02*
Y02687D01*
X04228Y01395D02*
X04261D01*
X04245Y01378D02*
Y01411D01*
X03928Y01395D02*
X03961D01*
X03945Y01378D02*
Y01411D01*
X04713Y01395D02*
X04746D01*
X0473Y01378D02*
Y01411D01*
X04413Y01395D02*
X04446D01*
X0443Y01378D02*
Y01411D01*
X05738Y02035D02*
X05771D01*
X05755Y02018D02*
Y02051D01*
X06038Y02035D02*
X06071D01*
X06055Y02018D02*
Y02051D01*
M02*