%FSTAX23Y23*%
%MOIN*%
%SFA1B1*%

%IPPOS*%
%ADD10C,0.009843*%
%ADD11C,0.005000*%
%ADD12C,0.007874*%
%ADD13C,0.023622*%
%ADD14C,0.010000*%
%LNpcb_baja_teste-1*%
%LPD*%
G54D10*
X06752Y03925D02*
D01*
X06752Y03925*
X06752Y03925*
X06752Y03926*
X06752Y03926*
X06752Y03926*
X06751Y03927*
X06751Y03927*
X06751Y03927*
X06751Y03927*
X06751Y03928*
X0675Y03928*
X0675Y03928*
X0675Y03928*
X0675Y03929*
X06749Y03929*
X06749Y03929*
X06749Y03929*
X06748Y03929*
X06748Y03929*
X06748Y03929*
X06747Y03929*
X06747Y03929*
X06747*
X06746Y03929*
X06746Y03929*
X06746Y03929*
X06745Y03929*
X06745Y03929*
X06745Y03929*
X06744Y03929*
X06744Y03929*
X06744Y03928*
X06744Y03928*
X06743Y03928*
X06743Y03928*
X06743Y03927*
X06743Y03927*
X06743Y03927*
X06742Y03927*
X06742Y03926*
X06742Y03926*
X06742Y03926*
X06742Y03925*
X06742Y03925*
X06742Y03925*
X06742Y03924*
X06742Y03924*
X06742Y03924*
X06742Y03923*
X06742Y03923*
X06742Y03923*
X06743Y03922*
X06743Y03922*
X06743Y03922*
X06743Y03921*
X06743Y03921*
X06744Y03921*
X06744Y03921*
X06744Y0392*
X06744Y0392*
X06745Y0392*
X06745Y0392*
X06745Y0392*
X06746Y0392*
X06746Y0392*
X06746Y0392*
X06747Y0392*
X06747*
X06747Y0392*
X06748Y0392*
X06748Y0392*
X06748Y0392*
X06749Y0392*
X06749Y0392*
X06749Y0392*
X0675Y0392*
X0675Y03921*
X0675Y03921*
X0675Y03921*
X06751Y03921*
X06751Y03922*
X06751Y03922*
X06751Y03922*
X06751Y03923*
X06752Y03923*
X06752Y03923*
X06752Y03924*
X06752Y03924*
X06752Y03924*
X06752Y03925*
X03074Y01538D02*
D01*
X03074Y01539*
X03074Y01539*
X03074Y01539*
X03074Y0154*
X03074Y0154*
X03074Y0154*
X03074Y01541*
X03074Y01541*
X03073Y01541*
X03073Y01542*
X03073Y01542*
X03073Y01542*
X03073Y01542*
X03072Y01542*
X03072Y01543*
X03072Y01543*
X03071Y01543*
X03071Y01543*
X03071Y01543*
X0307Y01543*
X0307Y01543*
X0307Y01543*
X03069*
X03069Y01543*
X03069Y01543*
X03068Y01543*
X03068Y01543*
X03068Y01543*
X03067Y01543*
X03067Y01543*
X03067Y01542*
X03066Y01542*
X03066Y01542*
X03066Y01542*
X03066Y01542*
X03066Y01541*
X03065Y01541*
X03065Y01541*
X03065Y0154*
X03065Y0154*
X03065Y0154*
X03065Y01539*
X03065Y01539*
X03065Y01539*
X03065Y01538*
X03065Y01538*
X03065Y01538*
X03065Y01537*
X03065Y01537*
X03065Y01537*
X03065Y01536*
X03065Y01536*
X03065Y01536*
X03066Y01535*
X03066Y01535*
X03066Y01535*
X03066Y01535*
X03066Y01534*
X03067Y01534*
X03067Y01534*
X03067Y01534*
X03068Y01534*
X03068Y01534*
X03068Y01534*
X03069Y01534*
X03069Y01533*
X03069Y01533*
X0307*
X0307Y01533*
X0307Y01534*
X03071Y01534*
X03071Y01534*
X03071Y01534*
X03072Y01534*
X03072Y01534*
X03072Y01534*
X03073Y01534*
X03073Y01535*
X03073Y01535*
X03073Y01535*
X03073Y01535*
X03074Y01536*
X03074Y01536*
X03074Y01536*
X03074Y01537*
X03074Y01537*
X03074Y01537*
X03074Y01538*
X03074Y01538*
X03074Y01538*
X05299Y04573D02*
D01*
X05299Y04573*
X05299Y04573*
X05298Y04574*
X05298Y04574*
X05298Y04574*
X05298Y04575*
X05298Y04575*
X05298Y04575*
X05298Y04576*
X05297Y04576*
X05297Y04576*
X05297Y04576*
X05297Y04577*
X05296Y04577*
X05296Y04577*
X05296Y04577*
X05296Y04577*
X05295Y04577*
X05295Y04578*
X05295Y04578*
X05294Y04578*
X05294Y04578*
X05294*
X05293Y04578*
X05293Y04578*
X05292Y04578*
X05292Y04577*
X05292Y04577*
X05292Y04577*
X05291Y04577*
X05291Y04577*
X05291Y04577*
X0529Y04576*
X0529Y04576*
X0529Y04576*
X0529Y04576*
X05289Y04575*
X05289Y04575*
X05289Y04575*
X05289Y04574*
X05289Y04574*
X05289Y04574*
X05289Y04573*
X05289Y04573*
X05289Y04573*
X05289Y04572*
X05289Y04572*
X05289Y04572*
X05289Y04571*
X05289Y04571*
X05289Y04571*
X05289Y0457*
X05289Y0457*
X0529Y0457*
X0529Y0457*
X0529Y04569*
X0529Y04569*
X05291Y04569*
X05291Y04569*
X05291Y04569*
X05292Y04568*
X05292Y04568*
X05292Y04568*
X05292Y04568*
X05293Y04568*
X05293Y04568*
X05294Y04568*
X05294*
X05294Y04568*
X05295Y04568*
X05295Y04568*
X05295Y04568*
X05296Y04568*
X05296Y04568*
X05296Y04569*
X05296Y04569*
X05297Y04569*
X05297Y04569*
X05297Y04569*
X05297Y0457*
X05298Y0457*
X05298Y0457*
X05298Y0457*
X05298Y04571*
X05298Y04571*
X05298Y04571*
X05298Y04572*
X05299Y04572*
X05299Y04572*
X05299Y04573*
X02574Y02356D02*
D01*
X02574Y02356*
X02574Y02356*
X02574Y02357*
X02574Y02357*
X02574Y02357*
X02574Y02358*
X02574Y02358*
X02574Y02358*
X02573Y02359*
X02573Y02359*
X02573Y02359*
X02573Y02359*
X02573Y0236*
X02572Y0236*
X02572Y0236*
X02572Y0236*
X02571Y0236*
X02571Y0236*
X02571Y0236*
X0257Y02361*
X0257Y02361*
X0257Y02361*
X02569*
X02569Y02361*
X02569Y02361*
X02568Y0236*
X02568Y0236*
X02568Y0236*
X02567Y0236*
X02567Y0236*
X02567Y0236*
X02566Y0236*
X02566Y02359*
X02566Y02359*
X02566Y02359*
X02566Y02359*
X02565Y02358*
X02565Y02358*
X02565Y02358*
X02565Y02357*
X02565Y02357*
X02565Y02357*
X02565Y02356*
X02565Y02356*
X02565Y02356*
X02565Y02355*
X02565Y02355*
X02565Y02355*
X02565Y02354*
X02565Y02354*
X02565Y02354*
X02565Y02353*
X02565Y02353*
X02566Y02353*
X02566Y02353*
X02566Y02352*
X02566Y02352*
X02566Y02352*
X02567Y02352*
X02567Y02351*
X02567Y02351*
X02568Y02351*
X02568Y02351*
X02568Y02351*
X02569Y02351*
X02569Y02351*
X02569Y02351*
X0257*
X0257Y02351*
X0257Y02351*
X02571Y02351*
X02571Y02351*
X02571Y02351*
X02572Y02351*
X02572Y02351*
X02572Y02352*
X02573Y02352*
X02573Y02352*
X02573Y02352*
X02573Y02353*
X02573Y02353*
X02574Y02353*
X02574Y02353*
X02574Y02354*
X02574Y02354*
X02574Y02354*
X02574Y02355*
X02574Y02355*
X02574Y02355*
X02574Y02356*
X05004Y04573D02*
D01*
X05004Y04573*
X05004Y04573*
X05003Y04574*
X05003Y04574*
X05003Y04574*
X05003Y04575*
X05003Y04575*
X05003Y04575*
X05003Y04576*
X05002Y04576*
X05002Y04576*
X05002Y04576*
X05002Y04577*
X05001Y04577*
X05001Y04577*
X05001Y04577*
X05001Y04577*
X05Y04577*
X05Y04578*
X05Y04578*
X04999Y04578*
X04999Y04578*
X04999*
X04998Y04578*
X04998Y04578*
X04997Y04578*
X04997Y04577*
X04997Y04577*
X04997Y04577*
X04996Y04577*
X04996Y04577*
X04996Y04577*
X04995Y04576*
X04995Y04576*
X04995Y04576*
X04995Y04576*
X04994Y04575*
X04994Y04575*
X04994Y04575*
X04994Y04574*
X04994Y04574*
X04994Y04574*
X04994Y04573*
X04994Y04573*
X04994Y04573*
X04994Y04572*
X04994Y04572*
X04994Y04572*
X04994Y04571*
X04994Y04571*
X04994Y04571*
X04994Y0457*
X04994Y0457*
X04995Y0457*
X04995Y0457*
X04995Y04569*
X04995Y04569*
X04996Y04569*
X04996Y04569*
X04996Y04569*
X04997Y04568*
X04997Y04568*
X04997Y04568*
X04997Y04568*
X04998Y04568*
X04998Y04568*
X04999Y04568*
X04999*
X04999Y04568*
X05Y04568*
X05Y04568*
X05Y04568*
X05001Y04568*
X05001Y04568*
X05001Y04569*
X05001Y04569*
X05002Y04569*
X05002Y04569*
X05002Y04569*
X05002Y0457*
X05003Y0457*
X05003Y0457*
X05003Y0457*
X05003Y04571*
X05003Y04571*
X05003Y04571*
X05003Y04572*
X05004Y04572*
X05004Y04572*
X05004Y04573*
X03749Y01538D02*
D01*
X03749Y01539*
X03749Y01539*
X03749Y01539*
X03749Y0154*
X03749Y0154*
X03749Y0154*
X03749Y01541*
X03749Y01541*
X03748Y01541*
X03748Y01542*
X03748Y01542*
X03748Y01542*
X03748Y01542*
X03747Y01542*
X03747Y01543*
X03747Y01543*
X03746Y01543*
X03746Y01543*
X03746Y01543*
X03745Y01543*
X03745Y01543*
X03745Y01543*
X03744*
X03744Y01543*
X03744Y01543*
X03743Y01543*
X03743Y01543*
X03743Y01543*
X03742Y01543*
X03742Y01543*
X03742Y01542*
X03741Y01542*
X03741Y01542*
X03741Y01542*
X03741Y01542*
X03741Y01541*
X0374Y01541*
X0374Y01541*
X0374Y0154*
X0374Y0154*
X0374Y0154*
X0374Y01539*
X0374Y01539*
X0374Y01539*
X0374Y01538*
X0374Y01538*
X0374Y01538*
X0374Y01537*
X0374Y01537*
X0374Y01537*
X0374Y01536*
X0374Y01536*
X0374Y01536*
X03741Y01535*
X03741Y01535*
X03741Y01535*
X03741Y01535*
X03741Y01534*
X03742Y01534*
X03742Y01534*
X03742Y01534*
X03743Y01534*
X03743Y01534*
X03743Y01534*
X03744Y01534*
X03744Y01533*
X03744Y01533*
X03745*
X03745Y01533*
X03745Y01534*
X03746Y01534*
X03746Y01534*
X03746Y01534*
X03747Y01534*
X03747Y01534*
X03747Y01534*
X03748Y01534*
X03748Y01535*
X03748Y01535*
X03748Y01535*
X03748Y01535*
X03749Y01536*
X03749Y01536*
X03749Y01536*
X03749Y01537*
X03749Y01537*
X03749Y01537*
X03749Y01538*
X03749Y01538*
X03749Y01538*
X04156Y0267D02*
D01*
X04156Y0267*
X04156Y0267*
X04155Y02671*
X04155Y02671*
X04155Y02671*
X04155Y02672*
X04155Y02672*
X04155Y02672*
X04155Y02672*
X04154Y02673*
X04154Y02673*
X04154Y02673*
X04154Y02673*
X04153Y02674*
X04153Y02674*
X04153Y02674*
X04153Y02674*
X04152Y02674*
X04152Y02674*
X04152Y02674*
X04151Y02674*
X04151Y02674*
X04151*
X0415Y02674*
X0415Y02674*
X04149Y02674*
X04149Y02674*
X04149Y02674*
X04149Y02674*
X04148Y02674*
X04148Y02674*
X04148Y02673*
X04147Y02673*
X04147Y02673*
X04147Y02673*
X04147Y02672*
X04147Y02672*
X04146Y02672*
X04146Y02672*
X04146Y02671*
X04146Y02671*
X04146Y02671*
X04146Y0267*
X04146Y0267*
X04146Y0267*
X04146Y02669*
X04146Y02669*
X04146Y02668*
X04146Y02668*
X04146Y02668*
X04146Y02667*
X04146Y02667*
X04147Y02667*
X04147Y02667*
X04147Y02666*
X04147Y02666*
X04147Y02666*
X04148Y02666*
X04148Y02665*
X04148Y02665*
X04149Y02665*
X04149Y02665*
X04149Y02665*
X04149Y02665*
X0415Y02665*
X0415Y02665*
X04151Y02665*
X04151*
X04151Y02665*
X04152Y02665*
X04152Y02665*
X04152Y02665*
X04153Y02665*
X04153Y02665*
X04153Y02665*
X04153Y02665*
X04154Y02666*
X04154Y02666*
X04154Y02666*
X04154Y02666*
X04155Y02667*
X04155Y02667*
X04155Y02667*
X04155Y02667*
X04155Y02668*
X04155Y02668*
X04155Y02668*
X04156Y02669*
X04156Y02669*
X04156Y0267*
G54D11*
X05387Y01813D02*
D01*
X05388Y01809*
X05388Y01805*
X05389Y01801*
X0539Y01797*
X05391Y01793*
X05392Y0179*
X05394Y01786*
X05396Y01783*
X05398Y01779*
X05401Y01776*
X05403Y01773*
X05406Y01771*
X05409Y01768*
X05413Y01766*
X05416Y01764*
X05419Y01762*
X05423Y0176*
X05427Y01759*
X05431Y01758*
X05435Y01757*
X05439Y01756*
X05443Y01756*
X05446*
X0545Y01756*
X05454Y01757*
X05458Y01758*
X05462Y01759*
X05466Y0176*
X0547Y01762*
X05473Y01764*
X05476Y01766*
X0548Y01768*
X05483Y01771*
X05486Y01773*
X05488Y01776*
X05491Y01779*
X05493Y01783*
X05495Y01786*
X05497Y0179*
X05498Y01793*
X05499Y01797*
X055Y01801*
X05501Y01805*
X05501Y01809*
X05502Y01813*
X0542Y0413D02*
X0615D01*
Y0243D02*
Y0413D01*
X05631Y0243D02*
X0615D01*
X0542D02*
X05631D01*
X0542D02*
Y0413D01*
X05631Y02351D02*
X05938D01*
X05631D02*
Y0243D01*
X02018Y02921D02*
Y04338D01*
Y02921D02*
X05168D01*
Y04338*
X02018D02*
X05168D01*
X05358Y02108D02*
X05531D01*
Y01856D02*
Y02108D01*
X05358Y01856D02*
X05531D01*
X05358D02*
Y02108D01*
X05502Y01813D02*
Y01856D01*
X05387Y01813D02*
Y01856D01*
G54D12*
X05099Y04578D02*
D01*
X05095Y04572*
X05091Y04566*
X05087Y04559*
X05085Y04553*
X05082Y04546*
X0508Y04539*
X05079Y04532*
X05078Y04525*
X05077Y04518*
X05077Y04511*
X05078Y04504*
X05079Y04497*
X0508Y0449*
X05082Y04483*
X05085Y04476*
X05087Y0447*
X05091Y04463*
X05095Y04457*
X05099Y04451*
X05103Y04446*
X05108Y04441*
X05114Y04436*
X05119Y04432*
X05125Y04428*
X05131Y04424*
X05138Y04421*
X05144Y04418*
X05151Y04416*
X05158Y04414*
X05165Y04413*
X05172Y04412*
X05179Y04412*
X05187Y04412*
X05194Y04413*
X05201Y04414*
X05208Y04416*
X05215Y04418*
X05221Y04421*
X05228Y04424*
X05234Y04428*
X0524Y04432*
X05245Y04436*
X05251Y04441*
X05256Y04446*
X0526Y04451*
X05264Y04457*
X05268Y04463*
X05272Y0447*
X05274Y04476*
X05277Y04483*
X05279Y0449*
X0528Y04497*
X05281Y04504*
X05282Y04511*
X05282Y04518*
X05281Y04525*
X0528Y04532*
X05279Y04539*
X05277Y04546*
X05274Y04553*
X05272Y04559*
X05268Y04566*
X05264Y04572*
X0526Y04578*
X0526Y04578*
X02695Y02342D02*
D01*
X02695Y02341*
X02695Y02339*
X02695Y02337*
X02695Y02335*
X02696Y02334*
X02697Y02332*
X02697Y02331*
X02698Y02329*
X02699Y02328*
X027Y02326*
X02702Y02325*
X02703Y02324*
X02704Y02323*
X02706Y02322*
X02707Y02321*
X02709Y0232*
X0271Y02319*
X02712Y02319*
X02713Y02318*
X02715Y02318*
X02717Y02317*
X02719Y02317*
X0272*
X02722Y02317*
X02724Y02318*
X02726Y02318*
X02727Y02319*
X02729Y02319*
X0273Y0232*
X02732Y02321*
X02733Y02322*
X02735Y02323*
X02736Y02324*
X02737Y02325*
X02739Y02326*
X0274Y02328*
X02741Y02329*
X02742Y02331*
X02742Y02332*
X02743Y02334*
X02744Y02335*
X02744Y02337*
X02744Y02339*
X02744Y02341*
X02745Y02342*
X04804Y04578D02*
D01*
X048Y04572*
X04796Y04566*
X04792Y04559*
X0479Y04553*
X04787Y04546*
X04785Y04539*
X04784Y04532*
X04783Y04525*
X04782Y04518*
X04782Y04511*
X04783Y04504*
X04784Y04497*
X04785Y0449*
X04787Y04483*
X0479Y04476*
X04792Y0447*
X04796Y04463*
X048Y04457*
X04804Y04451*
X04808Y04446*
X04813Y04441*
X04819Y04436*
X04824Y04432*
X0483Y04428*
X04836Y04424*
X04843Y04421*
X04849Y04418*
X04856Y04416*
X04863Y04414*
X0487Y04413*
X04877Y04412*
X04884Y04412*
X04892Y04412*
X04899Y04413*
X04906Y04414*
X04913Y04416*
X0492Y04418*
X04926Y04421*
X04933Y04424*
X04939Y04428*
X04945Y04432*
X0495Y04436*
X04956Y04441*
X04961Y04446*
X04965Y04451*
X04969Y04457*
X04973Y04463*
X04977Y0447*
X04979Y04476*
X04982Y04483*
X04984Y0449*
X04985Y04497*
X04986Y04504*
X04987Y04511*
X04987Y04518*
X04986Y04525*
X04985Y04532*
X04984Y04539*
X04982Y04546*
X04979Y04553*
X04977Y04559*
X04973Y04566*
X04969Y04572*
X04965Y04578*
X04965Y04578*
X04137Y02545D02*
D01*
X04136Y02544*
X04134Y02544*
X04132Y02544*
X0413Y02544*
X04129Y02543*
X04127Y02542*
X04126Y02542*
X04124Y02541*
X04123Y0254*
X04121Y02539*
X0412Y02537*
X04119Y02536*
X04118Y02535*
X04117Y02533*
X04116Y02532*
X04115Y0253*
X04114Y02529*
X04114Y02527*
X04113Y02526*
X04113Y02524*
X04112Y02522*
X04112Y0252*
Y02519*
X04112Y02517*
X04113Y02515*
X04113Y02513*
X04114Y02512*
X04114Y0251*
X04115Y02509*
X04116Y02507*
X04117Y02506*
X04118Y02504*
X04119Y02503*
X0412Y02502*
X04121Y025*
X04123Y02499*
X04124Y02498*
X04126Y02497*
X04127Y02497*
X04129Y02496*
X0413Y02495*
X04132Y02495*
X04134Y02495*
X04136Y02495*
X04137Y02495*
X0352Y01395D02*
Y01425D01*
X0332D02*
X0352D01*
X0332Y01365D02*
Y01425D01*
Y01365D02*
X0352D01*
Y01395*
X0331D02*
X0332D01*
X0352D02*
X03529D01*
X06391Y03875D02*
X06728D01*
X06391D02*
Y03975D01*
X06728*
Y03875D02*
Y03975D01*
X03021Y01564D02*
X03029D01*
X0311D02*
X03149D01*
X0319D02*
X03249D01*
X0329D02*
X03349D01*
X0339D02*
X03449D01*
X0349D02*
X03518D01*
X0349Y02245D02*
X03518D01*
X0339D02*
X03449D01*
X0329D02*
X03349D01*
X0319D02*
X03249D01*
X0309D02*
X03149D01*
X03021D02*
X03049D01*
X03021Y01564D02*
Y02245D01*
X03518Y01564D02*
Y02245D01*
X05099Y04577D02*
X0526D01*
X0638Y0348D02*
X0641D01*
X0638Y0328D02*
Y0348D01*
Y0328D02*
X0644D01*
Y0348*
X0641D02*
X0644D01*
X0641Y0327D02*
Y0328D01*
Y0348D02*
Y03489D01*
X02615Y01567D02*
X02824D01*
X02745Y02342D02*
X02824D01*
X02615D02*
X02695D01*
X02824Y01567D02*
Y02342D01*
X02615Y01567D02*
Y02342D01*
X04804Y04577D02*
X04965D01*
X0297Y01395D02*
Y01425D01*
X0277D02*
X0297D01*
X0277Y01365D02*
Y01425D01*
Y01365D02*
X0297D01*
Y01395*
X0276D02*
X0277D01*
X0297D02*
X02979D01*
X03696Y01564D02*
X03704D01*
X03785D02*
X03824D01*
X03865D02*
X03924D01*
X03965D02*
X04024D01*
X04065D02*
X04124D01*
X04165D02*
X04193D01*
X04165Y02245D02*
X04193D01*
X04065D02*
X04124D01*
X03965D02*
X04024D01*
X03865D02*
X03924D01*
X03765D02*
X03824D01*
X03696D02*
X03724D01*
X03696Y01564D02*
Y02245D01*
X04193Y01564D02*
Y02245D01*
X03362Y02415D02*
Y02624D01*
X04137Y02415D02*
Y02495D01*
Y02545D02*
Y02624D01*
X03362Y02415D02*
X04137D01*
X03362Y02624D02*
X04137D01*
X04195Y01395D02*
Y01425D01*
X03995D02*
X04195D01*
X03995Y01365D02*
Y01425D01*
Y01365D02*
X04195D01*
Y01395*
X03985D02*
X03995D01*
X04195D02*
X04204D01*
X0468D02*
Y01425D01*
X0448D02*
X0468D01*
X0448Y01365D02*
Y01425D01*
Y01365D02*
X0468D01*
Y01395*
X0447D02*
X0448D01*
X0468D02*
X04689D01*
X05805Y02005D02*
Y02035D01*
Y02005D02*
X06005D01*
Y02065*
X05805D02*
X06005D01*
X05805Y02035D02*
Y02065D01*
X06005Y02035D02*
X06014D01*
X05795D02*
X05805D01*
G54D13*
X02666Y02303D02*
D01*
X02666Y02304*
X02666Y02305*
X02666Y02305*
X02666Y02306*
X02666Y02307*
X02665Y02308*
X02665Y02308*
X02665Y02309*
X02664Y0231*
X02664Y02311*
X02663Y02311*
X02662Y02312*
X02662Y02312*
X02661Y02313*
X0266Y02313*
X0266Y02314*
X02659Y02314*
X02658Y02314*
X02657Y02314*
X02657Y02315*
X02656Y02315*
X02655Y02315*
X02654*
X02653Y02315*
X02652Y02315*
X02652Y02314*
X02651Y02314*
X0265Y02314*
X02649Y02314*
X02649Y02313*
X02648Y02313*
X02647Y02312*
X02647Y02312*
X02646Y02311*
X02645Y02311*
X02645Y0231*
X02645Y02309*
X02644Y02308*
X02644Y02308*
X02643Y02307*
X02643Y02306*
X02643Y02305*
X02643Y02305*
X02643Y02304*
X02643Y02303*
X02643Y02302*
X02643Y02301*
X02643Y023*
X02643Y023*
X02643Y02299*
X02644Y02298*
X02644Y02297*
X02645Y02297*
X02645Y02296*
X02645Y02295*
X02646Y02295*
X02647Y02294*
X02647Y02294*
X02648Y02293*
X02649Y02293*
X02649Y02292*
X0265Y02292*
X02651Y02292*
X02652Y02291*
X02652Y02291*
X02653Y02291*
X02654Y02291*
X02655*
X02656Y02291*
X02657Y02291*
X02657Y02291*
X02658Y02292*
X02659Y02292*
X0266Y02292*
X0266Y02293*
X02661Y02293*
X02662Y02294*
X02662Y02294*
X02663Y02295*
X02664Y02295*
X02664Y02296*
X02665Y02297*
X02665Y02297*
X02665Y02298*
X02666Y02299*
X02666Y023*
X02666Y023*
X02666Y02301*
X02666Y02302*
X02666Y02303*
X0411Y02584D02*
D01*
X0411Y02585*
X0411Y02586*
X04109Y02587*
X04109Y02588*
X04109Y02589*
X04109Y02589*
X04108Y0259*
X04108Y02591*
X04107Y02591*
X04107Y02592*
X04106Y02593*
X04106Y02593*
X04105Y02594*
X04105Y02594*
X04104Y02595*
X04103Y02595*
X04102Y02595*
X04102Y02596*
X04101Y02596*
X041Y02596*
X04099Y02596*
X04098Y02596*
X04098*
X04097Y02596*
X04096Y02596*
X04095Y02596*
X04094Y02596*
X04094Y02595*
X04093Y02595*
X04092Y02595*
X04091Y02594*
X04091Y02594*
X0409Y02593*
X04089Y02593*
X04089Y02592*
X04088Y02591*
X04088Y02591*
X04087Y0259*
X04087Y02589*
X04087Y02589*
X04087Y02588*
X04086Y02587*
X04086Y02586*
X04086Y02585*
X04086Y02584*
X04086Y02584*
X04086Y02583*
X04086Y02582*
X04087Y02581*
X04087Y0258*
X04087Y0258*
X04087Y02579*
X04088Y02578*
X04088Y02578*
X04089Y02577*
X04089Y02576*
X0409Y02576*
X04091Y02575*
X04091Y02575*
X04092Y02574*
X04093Y02574*
X04094Y02574*
X04094Y02573*
X04095Y02573*
X04096Y02573*
X04097Y02573*
X04098Y02573*
X04098*
X04099Y02573*
X041Y02573*
X04101Y02573*
X04102Y02573*
X04102Y02574*
X04103Y02574*
X04104Y02574*
X04105Y02575*
X04105Y02575*
X04106Y02576*
X04106Y02576*
X04107Y02577*
X04107Y02578*
X04108Y02578*
X04108Y02579*
X04109Y0258*
X04109Y0258*
X04109Y02581*
X04109Y02582*
X0411Y02583*
X0411Y02584*
X0411Y02584*
G54D14*
X0641Y04125D02*
X0671D01*
Y04025D02*
Y04125D01*
X0641Y04025D02*
X0671D01*
X0641D02*
Y04125D01*
Y04275D02*
X0671D01*
Y04175D02*
Y04275D01*
X0641Y04175D02*
X0671D01*
X0641D02*
Y04275D01*
X06595Y0328D02*
Y0358D01*
X06495Y0328D02*
X06595D01*
X06495D02*
Y0358D01*
X06595*
X06455Y0421D02*
X06445Y0422D01*
X06425*
X06415Y0421*
Y042*
X06425Y0419*
X06445*
X06455Y0418*
Y0417*
X06445Y0416*
X06425*
X06415Y0417*
X06504Y0416D02*
X06484D01*
X06475Y0417*
Y0419*
X06484Y042*
X06504*
X06514Y0419*
Y0418*
X06475*
X06534Y0416D02*
Y042D01*
X06564*
X06574Y0419*
Y0416*
X06594D02*
X06624D01*
X06634Y0417*
X06624Y0418*
X06604*
X06594Y0419*
X06604Y042*
X06634*
X06664Y0416D02*
X06684D01*
X06694Y0417*
Y0419*
X06684Y042*
X06664*
X06654Y0419*
Y0417*
X06664Y0416*
X06714Y042D02*
Y0416D01*
Y0418*
X06724Y0419*
X06734Y042*
X06744*
X06834Y0422D02*
Y0418D01*
X06854Y0416*
X06874Y0418*
Y0422*
X06924Y0416D02*
X06904D01*
X06894Y0417*
Y0419*
X06904Y042*
X06924*
X06934Y0419*
Y0418*
X06894*
X06954Y0416D02*
X06974D01*
X06964*
Y0422*
X06954*
X06455Y0436D02*
X06445Y0437D01*
X06425*
X06415Y0436*
Y0435*
X06425Y0434*
X06445*
X06455Y0433*
Y0432*
X06445Y0431*
X06425*
X06415Y0432*
X06504Y0431D02*
X06484D01*
X06475Y0432*
Y0434*
X06484Y0435*
X06504*
X06514Y0434*
Y0433*
X06475*
X06534Y0431D02*
Y0435D01*
X06564*
X06574Y0434*
Y0431*
X06594D02*
X06624D01*
X06634Y0432*
X06624Y0433*
X06604*
X06594Y0434*
X06604Y0435*
X06634*
X06664Y0431D02*
X06684D01*
X06694Y0432*
Y0434*
X06684Y0435*
X06664*
X06654Y0434*
Y0432*
X06664Y0431*
X06714Y0435D02*
Y0431D01*
Y0433*
X06724Y0434*
X06734Y0435*
X06744*
X06874Y0436D02*
X06864Y0437D01*
X06844*
X06834Y0436*
Y0432*
X06844Y0431*
X06864*
X06874Y0432*
X06904Y0431D02*
X06924D01*
X06934Y0432*
Y0434*
X06924Y0435*
X06904*
X06894Y0434*
Y0432*
X06904Y0431*
X06954D02*
Y0435D01*
X06964*
X06974Y0434*
Y0431*
Y0434*
X06984Y0435*
X06994Y0434*
Y0431*
X07014Y0437D02*
Y0431D01*
X07044*
X07054Y0432*
Y0433*
Y0434*
X07044Y0435*
X07014*
X0654Y03685D02*
X0653Y03695D01*
X0651*
X065Y03685*
Y03675*
X0651Y03665*
X0653*
X0654Y03655*
Y03645*
X0653Y03635*
X0651*
X065Y03645*
X06589Y03635D02*
X06569D01*
X0656Y03645*
Y03665*
X06569Y03675*
X06589*
X06599Y03665*
Y03655*
X0656*
X06619Y03635D02*
Y03675D01*
X06649*
X06659Y03665*
Y03635*
X06679D02*
X06709D01*
X06719Y03645*
X06709Y03655*
X06689*
X06679Y03665*
X06689Y03675*
X06719*
X06749Y03635D02*
X06769D01*
X06779Y03645*
Y03665*
X06769Y03675*
X06749*
X06739Y03665*
Y03645*
X06749Y03635*
X06799Y03675D02*
Y03635D01*
Y03655*
X06809Y03665*
X06819Y03675*
X06829*
X06919Y03695D02*
X06959D01*
X06939*
Y03635*
X07009D02*
X06989D01*
X06979Y03645*
Y03665*
X06989Y03675*
X07009*
X07019Y03665*
Y03655*
X06979*
X07039Y03635D02*
Y03675D01*
X07049*
X07059Y03665*
Y03635*
Y03665*
X07069Y03675*
X07079Y03665*
Y03635*
X07099Y03615D02*
Y03675D01*
X07129*
X07139Y03665*
Y03645*
X07129Y03635*
X07099*
X05416Y04232D02*
Y04182D01*
X05426Y04172*
X05446*
X05456Y04182*
Y04232*
X05476Y04222D02*
X05486Y04232D01*
X05506*
X05516Y04222*
Y04212*
X05496Y04192*
Y04182D02*
Y04172D01*
X06437Y04058D02*
X06427Y04068D01*
X06407*
X06397Y04058*
Y04048*
X06407Y04038*
X06427*
X06437Y04028*
Y04019*
X06427Y04009*
X06407*
X06397Y04019*
X06457Y04058D02*
X06467Y04068D01*
X06487*
X06497Y04058*
Y04048*
X06477Y04028*
Y04019D02*
Y04009D01*
X03247Y01459D02*
Y01518D01*
X03277*
X03287Y01508*
Y01488*
X03277Y01478*
X03247*
X03267D02*
X03287Y01459D01*
X03367Y01498D02*
Y01469D01*
X03377Y01459*
X03407*
Y01498*
X03427Y01459D02*
Y01498D01*
X03457*
X03467Y01488*
Y01459*
X03487D02*
X03507D01*
X03497*
Y01498*
X03487*
X03577Y01518D02*
Y01459D01*
X03547*
X03537Y01469*
Y01488*
X03547Y01498*
X03577*
X03607D02*
X03627D01*
X03637Y01488*
Y01459*
X03607*
X03597Y01469*
X03607Y01478*
X03637*
X03697Y01518D02*
Y01459D01*
X03667*
X03657Y01469*
Y01488*
X03667Y01498*
X03697*
X03747Y01459D02*
X03727D01*
X03717Y01469*
Y01488*
X03727Y01498*
X03747*
X03757Y01488*
Y01478*
X03717*
X03777Y01459D02*
X03807D01*
X03817Y01469*
X03807Y01478*
X03787*
X03777Y01488*
X03787Y01498*
X03817*
X02012Y04442D02*
Y04382D01*
X02042*
X02052Y04392*
Y04432*
X02042Y04442*
X02012*
X02112Y04432D02*
X02102Y04442D01*
X02082*
X02072Y04432*
Y04422*
X02082Y04412*
X02102*
X02112Y04402*
Y04392*
X02102Y04382*
X02082*
X02072Y04392*
X02132Y04432D02*
X02142Y04442D01*
X02162*
X02172Y04432*
Y04422*
X02152Y04402*
Y04392D02*
Y04382D01*
X05365Y022D02*
Y0214D01*
X05395*
X05405Y0215*
Y0219*
X05395Y022*
X05365*
X05425Y0219D02*
X05435Y022D01*
X05455*
X05465Y0219*
Y0218*
X05445Y0216*
Y0215D02*
Y0214D01*
X03027Y02338D02*
X03067D01*
Y02328*
X03027Y02289*
Y02279*
X03187Y02328D02*
X03177Y02338D01*
X03157*
X03147Y02328*
Y02318*
X03157Y02308*
X03177*
X03187Y02298*
Y02289*
X03177Y02279*
X03157*
X03147Y02289*
X03247Y02338D02*
X03207D01*
Y02279*
X03247*
X03207Y02308D02*
X03227D01*
X03307Y02328D02*
X03297Y02338D01*
X03277*
X03267Y02328*
Y02289*
X03277Y02279*
X03297*
X03307Y02289*
Y02308*
X03287*
X03387Y02338D02*
Y02289D01*
X03397Y02279*
X03417*
X03427Y02289*
Y02338*
X03447Y02279D02*
Y02338D01*
X03487Y02279*
Y02338*
X03507D02*
X03527D01*
X03517*
Y02279*
X03507*
X03527*
X03557Y02338D02*
Y02279D01*
X03587*
X03597Y02289*
Y02328*
X03587Y02338*
X03557*
X03617Y02279D02*
Y02318D01*
X03637Y02338*
X03657Y02318*
Y02279*
Y02308*
X03617*
X03677Y02338D02*
Y02279D01*
X03707*
X03717Y02289*
Y02328*
X03707Y02338*
X03677*
X03777D02*
X03737D01*
Y02279*
X03777*
X03737Y02308D02*
X03757D01*
X03837Y02328D02*
X03827Y02338D01*
X03807*
X03797Y02328*
Y02318*
X03807Y02308*
X03827*
X03837Y02298*
Y02289*
X03827Y02279*
X03807*
X03797Y02289*
X05084Y04612D02*
Y04672D01*
X05113*
X05123Y04662*
Y04642*
X05113Y04632*
X05084*
X05103D02*
X05123Y04612D01*
X05183Y04672D02*
X05143D01*
Y04612*
X05183*
X05143Y04642D02*
X05163D01*
X05243Y04662D02*
X05233Y04672D01*
X05213*
X05203Y04662*
Y04622*
X05213Y04612*
X05233*
X05243Y04622*
Y04642*
X05223*
X05263Y04672D02*
Y04622D01*
X05273Y04612*
X05293*
X05303Y04622*
Y04672*
X05323D02*
Y04612D01*
X05363*
X05383D02*
Y04652D01*
X05403Y04672*
X05423Y04652*
Y04612*
Y04642*
X05383*
X05443Y04672D02*
Y04612D01*
X05473*
X05483Y04622*
Y04662*
X05473Y04672*
X05443*
X05533D02*
X05513D01*
X05503Y04662*
Y04622*
X05513Y04612*
X05533*
X05543Y04622*
Y04662*
X05533Y04672*
X05563Y04612D02*
Y04672D01*
X05593*
X05603Y04662*
Y04642*
X05593Y04632*
X05563*
X05583D02*
X05603Y04612D01*
X05723D02*
X05683D01*
X05723Y04652*
Y04662*
X05713Y04672*
X05693*
X05683Y04662*
X04789Y04612D02*
Y04672D01*
X04818*
X04828Y04662*
Y04642*
X04818Y04632*
X04789*
X04808D02*
X04828Y04612D01*
X04888Y04672D02*
X04848D01*
Y04612*
X04888*
X04848Y04642D02*
X04868D01*
X04948Y04662D02*
X04938Y04672D01*
X04918*
X04908Y04662*
Y04622*
X04918Y04612*
X04938*
X04948Y04622*
Y04642*
X04928*
X04968Y04672D02*
Y04622D01*
X04978Y04612*
X04998*
X05008Y04622*
Y04672*
X05028D02*
Y04612D01*
X05068*
X05088D02*
Y04652D01*
X05108Y04672*
X05128Y04652*
Y04612*
Y04642*
X05088*
X05148Y04672D02*
Y04612D01*
X05178*
X05188Y04622*
Y04662*
X05178Y04672*
X05148*
X05238D02*
X05218D01*
X05208Y04662*
Y04622*
X05218Y04612*
X05238*
X05248Y04622*
Y04662*
X05238Y04672*
X05268Y04612D02*
Y04672D01*
X05298*
X05308Y04662*
Y04642*
X05298Y04632*
X05268*
X05288D02*
X05308Y04612D01*
X05388D02*
X05408D01*
X05398*
Y04672*
X05388Y04662*
X02577Y02445D02*
X02567Y02455D01*
X02547*
X02537Y02445*
Y02405*
X02547Y02395*
X02567*
X02577Y02405*
X02597Y02455D02*
X02617D01*
X02607*
Y02395*
X02597*
X02617*
X02707Y02455D02*
Y02405D01*
X02717Y02395*
X02737*
X02747Y02405*
Y02455*
X02767Y02395D02*
Y02455D01*
X02807Y02395*
Y02455*
X02827D02*
X02847D01*
X02837*
Y02395*
X02827*
X02847*
X02877Y02455D02*
Y02395D01*
X02907*
X02917Y02405*
Y02445*
X02907Y02455*
X02877*
X02937Y02395D02*
Y02435D01*
X02957Y02455*
X02977Y02435*
Y02395*
Y02425*
X02937*
X02997Y02455D02*
Y02395D01*
X03027*
X03037Y02405*
Y02445*
X03027Y02455*
X02997*
X03097D02*
X03057D01*
Y02395*
X03097*
X03057Y02425D02*
X03077D01*
X03157Y02445D02*
X03147Y02455D01*
X03127*
X03117Y02445*
Y02435*
X03127Y02425*
X03147*
X03157Y02415*
Y02405*
X03147Y02395*
X03127*
X03117Y02405*
X034Y02791D02*
X0339Y02801D01*
X0337*
X0336Y02791*
Y02752*
X0337Y02742*
X0339*
X034Y02752*
X0342Y02801D02*
X0344D01*
X0343*
Y02742*
X0342*
X0344*
X0353Y02801D02*
Y02742D01*
X0356*
X0357Y02752*
Y02791*
X0356Y02801*
X0353*
X0363D02*
X0359D01*
Y02742*
X0363*
X0359Y02772D02*
X0361D01*
X0365Y02801D02*
X0369D01*
Y02791*
X0365Y02752*
Y02742*
X0369*
X0375Y02801D02*
X0371D01*
Y02742*
X0375*
X0371Y02772D02*
X0373D01*
X0377Y02742D02*
Y02801D01*
X0381Y02742*
Y02801*
X0383Y02742D02*
Y02781D01*
X0385Y02801*
X0387Y02781*
Y02742*
Y02772*
X0383*
X0393Y02791D02*
X0392Y02801D01*
X039*
X0389Y02791*
Y02781*
X039Y02772*
X0392*
X0393Y02762*
Y02752*
X0392Y02742*
X039*
X0389Y02752*
X03922Y01459D02*
Y01518D01*
X03952*
X03962Y01508*
Y01488*
X03952Y01478*
X03922*
X03942D02*
X03962Y01459D01*
X04082Y01518D02*
Y01459D01*
X04052*
X04042Y01469*
Y01488*
X04052Y01498*
X04082*
X04132Y01459D02*
X04112D01*
X04102Y01469*
Y01488*
X04112Y01498*
X04132*
X04142Y01488*
Y01478*
X04102*
X04162Y01498D02*
X04202D01*
X04162Y01459*
X04202*
X04252D02*
X04232D01*
X04222Y01469*
Y01488*
X04232Y01498*
X04252*
X04262Y01488*
Y01478*
X04222*
X04282Y01459D02*
Y01498D01*
X04312*
X04322Y01488*
Y01459*
X04352Y01498D02*
X04372D01*
X04382Y01488*
Y01459*
X04352*
X04342Y01469*
X04352Y01478*
X04382*
X04402Y01459D02*
X04432D01*
X04442Y01469*
X04432Y01478*
X04412*
X04402Y01488*
X04412Y01498*
X04442*
X02697Y01459D02*
Y01518D01*
X02727*
X02737Y01508*
Y01488*
X02727Y01478*
X02697*
X02717D02*
X02737Y01459D01*
X02817Y01498D02*
Y01469D01*
X02827Y01459*
X02857*
Y01498*
X02877Y01459D02*
Y01498D01*
X02907*
X02917Y01488*
Y01459*
X02937D02*
X02957D01*
X02947*
Y01498*
X02937*
X03027Y01518D02*
Y01459D01*
X02997*
X02987Y01469*
Y01488*
X02997Y01498*
X03027*
X03057D02*
X03077D01*
X03087Y01488*
Y01459*
X03057*
X03047Y01469*
X03057Y01478*
X03087*
X03147Y01518D02*
Y01459D01*
X03117*
X03107Y01469*
Y01488*
X03117Y01498*
X03147*
X03197Y01459D02*
X03177D01*
X03167Y01469*
Y01488*
X03177Y01498*
X03197*
X03207Y01488*
Y01478*
X03167*
X03227Y01459D02*
X03257D01*
X03267Y01469*
X03257Y01478*
X03237*
X03227Y01488*
X03237Y01498*
X03267*
X03387Y01508D02*
X03377Y01518D01*
X03357*
X03347Y01508*
Y01469*
X03357Y01459*
X03377*
X03387Y01469*
X03407Y01518D02*
X03427D01*
X03417*
Y01459*
X03407*
X03427*
X04407D02*
Y01518D01*
X04437*
X04447Y01508*
Y01488*
X04437Y01478*
X04407*
X04427D02*
X04447Y01459D01*
X04567Y01518D02*
Y01459D01*
X04537*
X04527Y01469*
Y01488*
X04537Y01498*
X04567*
X04617Y01459D02*
X04597D01*
X04587Y01469*
Y01488*
X04597Y01498*
X04617*
X04627Y01488*
Y01478*
X04587*
X04647Y01498D02*
X04687D01*
X04647Y01459*
X04687*
X04737D02*
X04717D01*
X04707Y01469*
Y01488*
X04717Y01498*
X04737*
X04747Y01488*
Y01478*
X04707*
X04767Y01459D02*
Y01498D01*
X04797*
X04807Y01488*
Y01459*
X04837Y01498D02*
X04857D01*
X04867Y01488*
Y01459*
X04837*
X04827Y01469*
X04837Y01478*
X04867*
X04887Y01459D02*
X04917D01*
X04927Y01469*
X04917Y01478*
X04897*
X04887Y01488*
X04897Y01498*
X04927*
X05047Y01508D02*
X05037Y01518D01*
X05017*
X05007Y01508*
Y01469*
X05017Y01459*
X05037*
X05047Y01469*
X05067Y01518D02*
X05087D01*
X05077*
Y01459*
X05067*
X05087*
X05732Y02099D02*
Y02158D01*
X05762*
X05772Y02148*
Y02128*
X05762Y02118*
X05732*
X05752D02*
X05772Y02099D01*
X05792Y02148D02*
X05802Y02158D01*
X05822*
X05832Y02148*
Y02138*
X05812Y02118*
Y02109D02*
Y02099D01*
X06385Y03592D02*
Y03651D01*
X06415*
X06425Y03641*
Y03622*
X06415Y03612*
X06385*
X06405D02*
X06425Y03592D01*
X06505D02*
X06535D01*
X06545Y03602*
X06535Y03612*
X06515*
X06505Y03622*
X06515Y03631*
X06545*
X06595Y03592D02*
X06575D01*
X06565Y03602*
Y03622*
X06575Y03631*
X06595*
X06605Y03622*
Y03612*
X06565*
X06625Y03592D02*
Y03631D01*
X06655*
X06665Y03622*
Y03592*
X06685D02*
X06715D01*
X06725Y03602*
X06715Y03612*
X06695*
X06685Y03622*
X06695Y03631*
X06725*
X06755Y03592D02*
X06775D01*
X06785Y03602*
Y03622*
X06775Y03631*
X06755*
X06745Y03622*
Y03602*
X06755Y03592*
X06805Y03631D02*
Y03592D01*
Y03612*
X06815Y03622*
X06825Y03631*
X06835*
X03702Y02338D02*
X03742D01*
Y02328*
X03702Y02289*
Y02279*
X03862Y02328D02*
X03852Y02338D01*
X03832*
X03822Y02328*
Y02318*
X03832Y02308*
X03852*
X03862Y02298*
Y02289*
X03852Y02279*
X03832*
X03822Y02289*
X03922Y02338D02*
X03882D01*
Y02279*
X03922*
X03882Y02308D02*
X03902D01*
X03982Y02328D02*
X03972Y02338D01*
X03952*
X03942Y02328*
Y02289*
X03952Y02279*
X03972*
X03982Y02289*
Y02308*
X03962*
X04062Y02338D02*
Y02279D01*
X04092*
X04102Y02289*
Y02328*
X04092Y02338*
X04062*
X04162D02*
X04122D01*
Y02279*
X04162*
X04122Y02308D02*
X04142D01*
X04182Y02338D02*
X04222D01*
Y02328*
X04182Y02289*
Y02279*
X04222*
X04282Y02338D02*
X04242D01*
Y02279*
X04282*
X04242Y02308D02*
X04262D01*
X04302Y02279D02*
Y02338D01*
X04342Y02279*
Y02338*
X04362Y02279D02*
Y02318D01*
X04382Y02338*
X04402Y02318*
Y02279*
Y02308*
X04362*
X04462Y02328D02*
X04452Y02338D01*
X04432*
X04422Y02328*
Y02318*
X04432Y02308*
X04452*
X04462Y02298*
Y02289*
X04452Y02279*
X04432*
X04422Y02289*
M02*