%FSTAX23Y23*%
%MOIN*%
%SFA1B1*%

%IPPOS*%
%ADD14C,0.010000*%
%ADD15C,0.098425*%
%ADD33C,0.060000*%
%ADD34R,0.066929X0.066929*%
%ADD35C,0.066929*%
%ADD36C,0.070000*%
%ADD37R,0.070866X0.070866*%
%ADD38C,0.070866*%
%ADD39C,0.146299*%
%ADD40C,0.055118*%
%ADD41R,0.072835X0.072835*%
%ADD42C,0.072835*%
%ADD43C,0.062992*%
%ADD44R,0.072835X0.072835*%
%ADD45R,0.059055X0.059055*%
%ADD46C,0.059055*%
%ADD47O,0.039370X0.078740*%
%ADD48R,0.039370X0.078740*%
%ADD49R,0.059055X0.059055*%
%ADD50C,0.090000*%
%ADD51C,0.015000*%
%ADD52C,0.030000*%
%ADD53C,0.012008*%
%LNpcb_baja_teste-1*%
%LPD*%
G36*
X0691Y0108D02*
X01615D01*
Y0495*
X0691*
Y0108*
G37*
%LNpcb_baja_teste-2*%
%LPC*%
G36*
X06475Y04308D02*
D01*
X0638*
X06376Y04307*
X06374Y04305*
Y04305*
X06324Y04255*
X06322Y04253*
X06321Y0425*
Y04088*
X06256Y04023*
X06101*
X06101Y04028*
X06111Y04032*
X0612Y04039*
X06127Y04048*
X06131Y04058*
X06133Y0407*
X06131Y04081*
X06127Y04091*
X0612Y041*
X06111Y04107*
X06101Y04111*
X0609Y04113*
X06078Y04111*
X06068Y04107*
X06059Y041*
X06052Y04091*
X06048Y04081*
X06046Y0407*
X06048Y04058*
X06052Y04048*
X06059Y04039*
X06068Y04032*
X06078Y04028*
X06078Y04023*
X0603*
X06026Y04022*
X06024Y0402*
X06022Y04018*
X06021Y04015*
Y0394*
X06022Y03936*
X06024Y03934*
X06026Y03932*
X0603Y03931*
X06301*
X06374Y03859*
X06376Y03857*
X0638Y03856*
X0647*
X06473Y03857*
X06475Y03859*
Y03859*
X065Y03884*
X06502Y03886*
X06503Y0389*
Y03913*
X06503Y03913*
X06504Y03925*
X06503Y03936*
X06503Y03936*
Y0428*
X06502Y04283*
X065Y04285*
X065*
X0648Y04305*
X06478Y04307*
X06475Y04308*
G37*
G36*
X06245Y04748D02*
X04975D01*
X04966Y04746*
X04958Y04741*
X04818Y04601*
X04813Y04593*
X04811Y04585*
Y04549*
X0481Y04548*
X04808Y04541*
X04807Y04534*
Y04495*
X04808Y04488*
X0481Y04481*
X04815Y04475*
X04821Y04471*
X04827Y04468*
X04835Y04467*
X04842Y04468*
X04848Y04471*
X04854Y04475*
X04859Y04481*
X04861Y04488*
X04862Y04495*
Y04534*
X04861Y04541*
X04859Y04548*
X04858Y04549*
Y04575*
X04984Y04701*
X06235*
X06669Y04267*
X06667Y04262*
X0666Y04263*
X06655Y04262*
X06231Y04686*
X06223Y04691*
X06215Y04693*
X05225*
X05216Y04691*
X05208Y04686*
X05113Y04591*
X05108Y04583*
X05106Y04575*
Y04549*
X05105Y04548*
X05103Y04541*
X05102Y04534*
Y04495*
X05103Y04488*
X05105Y04481*
X0511Y04475*
X05116Y04471*
X05122Y04468*
X0513Y04467*
X05137Y04468*
X05143Y04471*
X05149Y04475*
X05154Y04481*
X05156Y04488*
X05157Y04495*
Y04534*
X05156Y04541*
X05154Y04548*
X05153Y04549*
Y04565*
X05234Y04646*
X06205*
X06622Y04229*
X06621Y04225*
X06622Y04215*
X06626Y04205*
X06632Y04197*
X0664Y04191*
X0665Y04187*
X0666Y04186*
X06669Y04187*
X06679Y04191*
X06687Y04197*
X06693Y04205*
X06697Y04215*
X06698Y04225*
X06697Y04232*
X06702Y04234*
X06726Y0421*
Y04174*
X06664Y04112*
X0666Y04113*
X0665Y04112*
X0664Y04108*
X06632Y04102*
X06626Y04094*
X06622Y04084*
X06621Y04075*
X06622Y04065*
X06626Y04055*
X06632Y04047*
X0664Y04041*
X0665Y04037*
X0666Y04036*
X06669Y04037*
X06679Y04041*
X06687Y04047*
X06693Y04055*
X06697Y04065*
X06698Y04075*
X06697Y04079*
X06766Y04148*
X06771Y04156*
X06773Y04165*
Y0422*
X06771Y04228*
X06766Y04236*
X06261Y04741*
X06253Y04746*
X06245Y04748*
G37*
G36*
X0202Y04463D02*
X02011Y04461D01*
X02003Y04456*
X01873Y04326*
X01868Y04318*
X01866Y0431*
Y01795*
X01868Y01786*
X01873Y01778*
X02433Y01218*
X02441Y01213*
X0245Y01211*
X0586*
X05868Y01213*
X05876Y01218*
X06696Y02038*
X06701Y02046*
X06703Y02055*
Y03445*
Y0355*
X06701Y03558*
X06696Y03566*
X06566Y03696*
X06558Y03701*
X0655Y03703*
X06119*
X06114Y03709*
X06105Y03716*
X06095Y0372*
X06085Y03721*
X06074Y0372*
X06064Y03716*
X06055Y03709*
X06048Y037*
X06044Y0369*
X06043Y0368*
X06044Y03669*
X06048Y03659*
X06055Y0365*
X06064Y03643*
X06074Y03639*
X06085Y03638*
X06095Y03639*
X06105Y03643*
X06114Y0365*
X06119Y03656*
X0654*
X06656Y0354*
Y03497*
X06651Y03495*
X06606Y03541*
X06601Y03544*
X06595Y03545*
X06579*
X06578Y03549*
X06572Y03557*
X06564Y03563*
X06554Y03567*
X06545Y03568*
X06535Y03567*
X06525Y03563*
X06517Y03557*
X06511Y03549*
X0651Y03545*
X06441*
X06441Y03547*
X06435Y03555*
X06427Y03561*
X06419Y03564*
X0641Y03565*
X064Y03564*
X06392Y03561*
X06384Y03555*
X06378Y03547*
X06375Y03539*
X06374Y0353*
X06375Y0352*
X06378Y03512*
X06384Y03504*
X06392Y03498*
X064Y03495*
X0641Y03494*
X06419Y03495*
X06427Y03498*
X06435Y03504*
X06441Y03512*
X06441Y03514*
X0651*
X06511Y0351*
X06517Y03502*
X06525Y03496*
X06535Y03492*
X06545Y03491*
X06554Y03492*
X06564Y03496*
X06572Y03502*
X06578Y0351*
X06579Y03514*
X06588*
X06656Y03446*
Y03445*
Y02064*
X0585Y01258*
X04808*
X04745Y01321*
Y01363*
X04747Y01363*
X04755Y01369*
X04761Y01377*
X04764Y01385*
X04765Y01395*
X04764Y01404*
X04761Y01412*
X04755Y0142*
X04747Y01426*
X04739Y01429*
X0473Y0143*
X0472Y01429*
X04712Y01426*
X04704Y0142*
X04698Y01412*
X04695Y01404*
X04694Y01395*
X04695Y01385*
X04698Y01377*
X04704Y01369*
X04712Y01363*
X04714Y01363*
Y01315*
X04715Y01308*
X04718Y01303*
X04759Y01263*
X04757Y01258*
X04323*
X0426Y01321*
Y01363*
X04262Y01363*
X0427Y01369*
X04276Y01377*
X04279Y01385*
X0428Y01395*
X04279Y01404*
X04276Y01412*
X0427Y0142*
X04262Y01426*
X04254Y01429*
X04245Y0143*
X04235Y01429*
X04227Y01426*
X04219Y0142*
X04213Y01412*
X0421Y01404*
X04209Y01395*
X0421Y01385*
X04213Y01377*
X04219Y01369*
X04227Y01363*
X04229Y01363*
Y01315*
X0423Y01308*
X04233Y01303*
X04274Y01263*
X04272Y01258*
X03653*
X03585Y01326*
Y01363*
X03587Y01363*
X03595Y01369*
X03601Y01377*
X03604Y01385*
X03605Y01395*
X03604Y01404*
X03601Y01412*
X03595Y0142*
X03587Y01426*
X03579Y01429*
X0357Y0143*
X0356Y01429*
X03552Y01426*
X03544Y0142*
X03538Y01412*
X03535Y01404*
X03534Y01395*
X03535Y01385*
X03538Y01377*
X03544Y01369*
X03552Y01363*
X03554Y01363*
Y0132*
X03555Y01313*
X03558Y01308*
X03604Y01263*
X03602Y01258*
X03108*
X03035Y01331*
Y01363*
X03037Y01363*
X03045Y01369*
X03051Y01377*
X03054Y01385*
X03055Y01395*
X03054Y01404*
X03051Y01412*
X03045Y0142*
X03037Y01426*
X03029Y01429*
X0302Y0143*
X0301Y01429*
X03002Y01426*
X02994Y0142*
X02988Y01412*
X02985Y01404*
X02984Y01395*
X02985Y01385*
X02988Y01377*
X02994Y01369*
X03002Y01363*
X03004Y01363*
Y01325*
X03005Y01318*
X03008Y01313*
X03059Y01263*
X03057Y01258*
X02459*
X01913Y01804*
Y043*
X02029Y04416*
X02321*
X02414Y04323*
Y043*
X02408Y04297*
X02399Y0429*
X02392Y04281*
X02387Y04271*
X02386Y04259*
X02387Y04248*
X02392Y04237*
X02399Y04228*
X02408Y04221*
X02418Y04217*
X0243Y04215*
X02441Y04217*
X02452Y04221*
X02461Y04228*
X02468Y04237*
X02472Y04248*
X02474Y04259*
X02472Y04271*
X02468Y04281*
X02461Y0429*
X02452Y04297*
X02446Y043*
Y04329*
X02444Y04335*
X02441Y0434*
X0237Y04411*
X02372Y04416*
X03645*
X0371Y04351*
Y04296*
X03702Y0429*
X03695Y04281*
X03691Y04271*
X03689Y04259*
X03691Y04248*
X03695Y04237*
X03702Y04228*
X03711Y04221*
X03722Y04217*
X03733Y04215*
X03745Y04217*
X03755Y04221*
X03764Y04228*
X03771Y04237*
X03776Y04248*
X03777Y04259*
X03776Y04271*
X03771Y04281*
X03764Y0429*
X03757Y04296*
Y04361*
X03755Y0437*
X0375Y04377*
X03671Y04456*
X03663Y04461*
X03655Y04463*
X0202*
G37*
G36*
X03233Y04303D02*
X03222Y04302D01*
X03211Y04297*
X03202Y0429*
X03195Y04281*
X03191Y04271*
X03189Y04259*
X03191Y04248*
X03195Y04237*
X03202Y04228*
X03211Y04221*
X03222Y04217*
X03233Y04215*
X03245Y04217*
X03255Y04221*
X03264Y04228*
X03271Y04237*
X03276Y04248*
X03277Y04259*
X03276Y04271*
X03271Y04281*
X03264Y0429*
X03255Y04297*
X03245Y04302*
X03233Y04303*
G37*
G36*
X03133D02*
X03122Y04302D01*
X03111Y04297*
X03102Y0429*
X03095Y04281*
X03091Y04271*
X03089Y04259*
X03091Y04248*
X03095Y04237*
X03102Y04228*
X03111Y04221*
X03122Y04217*
X03133Y04215*
X03145Y04217*
X03155Y04221*
X03164Y04228*
X03171Y04237*
X03176Y04248*
X03177Y04259*
X03176Y04271*
X03171Y04281*
X03164Y0429*
X03155Y04297*
X03145Y04302*
X03133Y04303*
G37*
G36*
X03033D02*
X03022Y04302D01*
X03011Y04297*
X03002Y0429*
X02995Y04281*
X02991Y04271*
X02989Y04259*
X02991Y04248*
X02995Y04237*
X03002Y04228*
X03011Y04221*
X03022Y04217*
X03033Y04215*
X03045Y04217*
X03055Y04221*
X03064Y04228*
X03071Y04237*
X03076Y04248*
X03077Y04259*
X03076Y04271*
X03071Y04281*
X03064Y0429*
X03055Y04297*
X03045Y04302*
X03033Y04303*
G37*
G36*
X02933D02*
X02922Y04302D01*
X02911Y04297*
X02902Y0429*
X02895Y04281*
X02891Y04271*
X02889Y04259*
X02891Y04248*
X02895Y04237*
X02902Y04228*
X02911Y04221*
X02922Y04217*
X02933Y04215*
X02945Y04217*
X02955Y04221*
X02964Y04228*
X02971Y04237*
X02976Y04248*
X02977Y04259*
X02976Y04271*
X02971Y04281*
X02964Y0429*
X02955Y04297*
X02945Y04302*
X02933Y04303*
G37*
G36*
X0507Y04321D02*
X05054Y04319D01*
X05038Y04315*
X05024Y04307*
X05012Y04297*
X05002Y04285*
X04994Y04271*
X0499Y04255*
X04988Y0424*
X0499Y04224*
X04994Y04208*
X05002Y04194*
X05012Y04182*
X05024Y04172*
X05038Y04164*
X05054Y0416*
X0507Y04158*
X05085Y0416*
X05101Y04164*
X05115Y04172*
X05127Y04182*
X05137Y04194*
X05145Y04208*
X05149Y04224*
X05151Y0424*
X05149Y04255*
X05145Y04271*
X05137Y04285*
X05127Y04297*
X05115Y04307*
X05101Y04315*
X05085Y04319*
X0507Y04321*
G37*
G36*
X02117D02*
X02101Y04319D01*
X02086Y04315*
X02071Y04307*
X02059Y04297*
X02049Y04285*
X02041Y04271*
X02037Y04255*
X02035Y0424*
X02037Y04224*
X02041Y04208*
X02049Y04194*
X02059Y04182*
X02071Y04172*
X02086Y04164*
X02101Y0416*
X02117Y04158*
X02133Y0416*
X02148Y04164*
X02162Y04172*
X02174Y04182*
X02185Y04194*
X02192Y04208*
X02197Y04224*
X02198Y0424*
X02197Y04255*
X02192Y04271*
X02185Y04285*
X02174Y04297*
X02162Y04307*
X02148Y04315*
X02133Y04319*
X02117Y04321*
G37*
G36*
X0548Y04113D02*
X05468Y04111D01*
X05458Y04107*
X05449Y041*
X05442Y04091*
X05438Y04081*
X05436Y0407*
X05438Y04058*
X05442Y04048*
X05449Y04039*
X05458Y04032*
X05468Y04028*
X0548Y04026*
X05491Y04028*
X05501Y04032*
X0551Y04039*
X05517Y04048*
X05521Y04058*
X05523Y0407*
X05521Y04081*
X05517Y04091*
X0551Y041*
X05501Y04107*
X05491Y04111*
X0548Y04113*
G37*
G36*
X05526Y04021D02*
X05443D01*
Y03938*
X05526*
Y04021*
G37*
G36*
X05257Y04562D02*
X05202D01*
Y04467*
X05214*
Y04455*
X05215Y04448*
X05218Y04443*
X05364Y04298*
Y03915*
X05365Y03908*
X05368Y03903*
X05403Y03868*
X05408Y03865*
X05415Y03864*
X05446*
X05448Y03859*
X05455Y0385*
X05464Y03843*
X05474Y03839*
X05485Y03838*
X05495Y03839*
X05505Y03843*
X05514Y0385*
X05521Y03859*
X05525Y03869*
X05526Y0388*
X05525Y0389*
X05521Y039*
X05514Y03909*
X05505Y03916*
X05495Y0392*
X05485Y03921*
X05474Y0392*
X05464Y03916*
X05455Y03909*
X05448Y039*
X05446Y03895*
X05421*
X05395Y03921*
Y04305*
X05394Y04311*
X05391Y04316*
X05245Y04461*
Y04467*
X05257*
Y04562*
G37*
G36*
X0666Y03978D02*
X06646Y03976D01*
X06633Y03971*
X0663Y03969*
X06615*
Y03954*
X06613Y03951*
X06608Y03938*
X06606Y03925*
X06608Y03911*
X06613Y03898*
X06615Y03895*
Y0388*
X06628*
X06752Y03757*
X06763Y03748*
X06776Y03743*
X0679Y03741*
X06803Y03743*
X06816Y03748*
X06827Y03757*
X06836Y03768*
X06841Y03781*
X06843Y03795*
X06841Y03808*
X06836Y03821*
X06827Y03832*
X06704Y03956*
Y03969*
X06689*
X06686Y03971*
X06673Y03976*
X0666Y03978*
G37*
G36*
X06085Y03821D02*
X06074Y0382D01*
X06064Y03816*
X06055Y03809*
X06048Y038*
X06044Y0379*
X06043Y0378*
X06044Y03769*
X06048Y03759*
X06055Y0375*
X06064Y03743*
X06074Y03739*
X06085Y03738*
X06095Y03739*
X06105Y03743*
X06114Y0375*
X06121Y03759*
X06125Y03769*
X06126Y0378*
X06125Y0379*
X06121Y038*
X06114Y03809*
X06105Y03816*
X06095Y0382*
X06085Y03821*
G37*
G36*
X05485D02*
X05474Y0382D01*
X05464Y03816*
X05455Y03809*
X05448Y038*
X05444Y0379*
X05443Y0378*
X05444Y03769*
X05448Y03759*
X05455Y0375*
X05464Y03743*
X05474Y03739*
X05485Y03738*
X05495Y03739*
X05505Y03743*
X05514Y0375*
X05521Y03759*
X05525Y03769*
X05526Y0378*
X05525Y0379*
X05521Y038*
X05514Y03809*
X05505Y03816*
X05495Y0382*
X05485Y03821*
G37*
G36*
X06085Y03621D02*
X06074Y0362D01*
X06064Y03616*
X06055Y03609*
X06048Y036*
X06044Y0359*
X06043Y0358*
X06044Y03569*
X06048Y03559*
X06055Y0355*
X06064Y03543*
X06074Y03539*
X06085Y03538*
X06095Y03539*
X06105Y03543*
X06114Y0355*
X06121Y03559*
X06125Y03569*
X06126Y0358*
X06125Y0359*
X06121Y036*
X06114Y03609*
X06105Y03616*
X06095Y0362*
X06085Y03621*
G37*
G36*
X04962Y04562D02*
X04907D01*
Y04467*
X0496*
X05048Y04378*
X05053Y04375*
X0506Y04374*
X05188*
X05289Y04273*
Y03665*
X0529Y03658*
X05293Y03653*
X05378Y03568*
X05383Y03565*
X0539Y03564*
X05446*
X05448Y03559*
X05455Y0355*
X05464Y03543*
X05474Y03539*
X05485Y03538*
X05495Y03539*
X05505Y03543*
X05514Y0355*
X05521Y03559*
X05525Y03569*
X05526Y0358*
X05525Y0359*
X05521Y036*
X05514Y03609*
X05505Y03616*
X05495Y0362*
X05485Y03621*
X05474Y0362*
X05464Y03616*
X05455Y03609*
X05448Y036*
X05446Y03595*
X05396*
X0532Y03671*
Y0428*
X05319Y04286*
X05316Y04291*
X05206Y04401*
X05201Y04404*
X05195Y04405*
X05066*
X04962Y04509*
Y04562*
G37*
G36*
X03633Y04303D02*
X03622Y04302D01*
X03611Y04297*
X03602Y0429*
X03595Y04281*
X03591Y04271*
X03589Y04259*
X03591Y04248*
X03595Y04237*
X03602Y04228*
X03611Y04221*
X03617Y04219*
Y04161*
X03619Y04155*
X03622Y0415*
X03803Y03968*
X03808Y03965*
X03815Y03964*
X04828*
X05323Y03468*
X05328Y03465*
X05335Y03464*
X05446*
X05448Y03459*
X05455Y0345*
X05464Y03443*
X05474Y03439*
X05485Y03438*
X05495Y03439*
X05505Y03443*
X05514Y0345*
X05521Y03459*
X05525Y03469*
X05526Y0348*
X05525Y0349*
X05521Y035*
X05514Y03509*
X05505Y03516*
X05495Y0352*
X05485Y03521*
X05474Y0352*
X05464Y03516*
X05455Y03509*
X05448Y035*
X05446Y03495*
X05341*
X04846Y03991*
X04841Y03994*
X04835Y03995*
X03821*
X03649Y04167*
Y04219*
X03655Y04221*
X03664Y04228*
X03671Y04237*
X03676Y04248*
X03677Y04259*
X03676Y04271*
X03671Y04281*
X03664Y0429*
X03655Y04297*
X03645Y04302*
X03633Y04303*
G37*
G36*
X06085Y03421D02*
X06074Y0342D01*
X06064Y03416*
X06055Y03409*
X06048Y034*
X06044Y0339*
X06043Y0338*
X06044Y03369*
X06048Y03359*
X06055Y0335*
X06064Y03343*
X06074Y03339*
X06085Y03338*
X06095Y03339*
X06105Y03343*
X06114Y0335*
X06121Y03359*
X06125Y03369*
X06126Y0338*
X06125Y0339*
X06121Y034*
X06114Y03409*
X06105Y03416*
X06095Y0342*
X06085Y03421*
G37*
G36*
X03533Y04303D02*
X03522Y04302D01*
X03511Y04297*
X03502Y0429*
X03495Y04281*
X03491Y04271*
X03489Y04259*
X03491Y04248*
X03495Y04237*
X03502Y04228*
X03511Y04221*
X03517Y04219*
Y04176*
X03519Y0417*
X03522Y04165*
X03783Y03903*
X03788Y039*
X03795Y03899*
X04788*
X05318Y03368*
X05323Y03365*
X0533Y03364*
X05446*
X05448Y03359*
X05455Y0335*
X05464Y03343*
X05474Y03339*
X05485Y03338*
X05495Y03339*
X05505Y03343*
X05514Y0335*
X05521Y03359*
X05525Y03369*
X05526Y0338*
X05525Y0339*
X05521Y034*
X05514Y03409*
X05505Y03416*
X05495Y0342*
X05485Y03421*
X05474Y0342*
X05464Y03416*
X05455Y03409*
X05448Y034*
X05446Y03395*
X05336*
X04806Y03926*
X04801Y03929*
X04795Y0393*
X03801*
X03549Y04182*
Y04219*
X03555Y04221*
X03564Y04228*
X03571Y04237*
X03576Y04248*
X03577Y04259*
X03576Y04271*
X03571Y04281*
X03564Y0429*
X03555Y04297*
X03545Y04302*
X03533Y04303*
G37*
G36*
X06085Y03521D02*
X06074Y0352D01*
X06064Y03516*
X06055Y03509*
X06048Y035*
X06044Y0349*
X06043Y0348*
X06044Y03469*
X06048Y03459*
X06055Y0345*
X06064Y03443*
X06074Y03439*
X06085Y03438*
X06095Y03439*
X06105Y03443*
X06114Y0345*
X06121Y03459*
X06123Y03464*
X06153*
X06376Y03241*
X06375Y03239*
X06374Y0323*
X06375Y0322*
X06378Y03212*
X06384Y03204*
X06392Y03198*
X064Y03195*
X0641Y03194*
X06419Y03195*
X06427Y03198*
X06435Y03204*
X06441Y03212*
X06441Y03214*
X06445*
X06451Y03215*
X06456Y03218*
X06531Y03294*
X06535Y03292*
X06545Y03291*
X06554Y03292*
X06564Y03296*
X06572Y03302*
X06578Y0331*
X06582Y0332*
X06583Y0333*
X06582Y03339*
X06578Y03349*
X06572Y03357*
X06564Y03363*
X06554Y03367*
X06545Y03368*
X06535Y03367*
X06525Y03363*
X06517Y03357*
X06511Y03349*
X06507Y03339*
X06506Y0333*
X06507Y0332*
X06509Y03316*
X06443Y0325*
X06438Y03251*
X06435Y03255*
X06427Y03261*
X06419Y03264*
X0641Y03265*
X064Y03264*
X06398Y03263*
X06171Y03491*
X06166Y03494*
X0616Y03495*
X06123*
X06121Y035*
X06114Y03509*
X06105Y03516*
X06095Y0352*
X06085Y03521*
G37*
G36*
X03433Y04303D02*
X03422Y04302D01*
X03411Y04297*
X03402Y0429*
X03395Y04281*
X03391Y04271*
X03389Y04259*
X03391Y04248*
X03395Y04237*
X03402Y04228*
X03411Y04221*
X03417Y04219*
Y04191*
X03419Y04185*
X03422Y0418*
X03768Y03833*
X03773Y0383*
X0378Y03829*
X04753*
X05313Y03268*
X05318Y03265*
X05325Y03264*
X05446*
X05448Y03259*
X05455Y0325*
X05464Y03243*
X05474Y03239*
X05485Y03238*
X05495Y03239*
X05505Y03243*
X05514Y0325*
X05521Y03259*
X05525Y03269*
X05526Y0328*
X05525Y0329*
X05521Y033*
X05514Y03309*
X05505Y03316*
X05495Y0332*
X05485Y03321*
X05474Y0332*
X05464Y03316*
X05455Y03309*
X05448Y033*
X05446Y03295*
X05331*
X04771Y03856*
X04766Y03859*
X0476Y0386*
X03786*
X03449Y04197*
Y04219*
X03455Y04221*
X03464Y04228*
X03471Y04237*
X03476Y04248*
X03477Y04259*
X03476Y04271*
X03471Y04281*
X03464Y0429*
X03455Y04297*
X03445Y04302*
X03433Y04303*
G37*
G36*
X03333D02*
X03322Y04302D01*
X03311Y04297*
X03302Y0429*
X03295Y04281*
X03291Y04271*
X03289Y04259*
X03291Y04248*
X03295Y04237*
X03302Y04228*
X03311Y04221*
X03317Y04219*
Y04201*
X03319Y04195*
X03322Y0419*
X03753Y03758*
X03758Y03755*
X03765Y03754*
X04723*
X05308Y03168*
X05313Y03165*
X0532Y03164*
X05446*
X05448Y03159*
X05455Y0315*
X05464Y03143*
X05474Y03139*
X05485Y03138*
X05495Y03139*
X05505Y03143*
X05514Y0315*
X05521Y03159*
X05525Y03169*
X05526Y0318*
X05525Y0319*
X05521Y032*
X05514Y03209*
X05505Y03216*
X05495Y0322*
X05485Y03221*
X05474Y0322*
X05464Y03216*
X05455Y03209*
X05448Y032*
X05446Y03195*
X05326*
X04741Y03781*
X04736Y03784*
X0473Y03785*
X03771*
X03349Y04207*
Y04219*
X03355Y04221*
X03364Y04228*
X03371Y04237*
X03376Y04248*
X03377Y04259*
X03376Y04271*
X03371Y04281*
X03364Y0429*
X03355Y04297*
X03345Y04302*
X03333Y04303*
G37*
G36*
X02833D02*
X02822Y04302D01*
X02811Y04297*
X02802Y0429*
X02795Y04281*
X02791Y04271*
X02789Y04259*
X02791Y04248*
X02795Y04237*
X02802Y04228*
X02811Y04221*
X02822Y04217*
X02833Y04215*
X02845Y04217*
X02851Y04219*
X03377Y03693*
X03382Y0369*
X03388Y03689*
X04688*
X05308Y03068*
X05313Y03065*
X0532Y03064*
X05446*
X05448Y03059*
X05455Y0305*
X05464Y03043*
X05474Y03039*
X05485Y03038*
X05495Y03039*
X05505Y03043*
X05514Y0305*
X05521Y03059*
X05525Y03069*
X05526Y0308*
X05525Y0309*
X05521Y031*
X05514Y03109*
X05505Y03116*
X05495Y0312*
X05485Y03121*
X05474Y0312*
X05464Y03116*
X05455Y03109*
X05448Y031*
X05446Y03095*
X05326*
X04706Y03716*
X04701Y03719*
X04695Y0372*
X03395*
X02873Y04242*
X02876Y04248*
X02877Y04259*
X02876Y04271*
X02871Y04281*
X02864Y0429*
X02855Y04297*
X02845Y04302*
X02833Y04303*
G37*
G36*
X02633D02*
X02622Y04302D01*
X02611Y04297*
X02602Y0429*
X02595Y04281*
X02591Y04271*
X02589Y04259*
X02591Y04248*
X02595Y04237*
X02602Y04228*
X02611Y04221*
X02622Y04217*
X02633Y04215*
X02645Y04217*
X02651Y04219*
X03247Y03623*
X03252Y0362*
X03258Y03619*
X04668*
X05318Y02968*
X05323Y02965*
X0533Y02964*
X05446*
X05448Y02959*
X05455Y0295*
X05464Y02943*
X05474Y02939*
X05485Y02938*
X05495Y02939*
X05505Y02943*
X05514Y0295*
X05521Y02959*
X05525Y02969*
X05526Y0298*
X05525Y0299*
X05521Y03*
X05514Y03009*
X05505Y03016*
X05495Y0302*
X05485Y03021*
X05474Y0302*
X05464Y03016*
X05455Y03009*
X05448Y03*
X05446Y02995*
X05336*
X04686Y03646*
X04681Y03649*
X04675Y0365*
X03265*
X02673Y04242*
X02676Y04248*
X02677Y04259*
X02676Y04271*
X02671Y04281*
X02664Y0429*
X02655Y04297*
X02645Y04302*
X02633Y04303*
G37*
G36*
X0507Y03101D02*
X05054Y03099D01*
X05038Y03094*
X05024Y03087*
X05012Y03077*
X05002Y03064*
X04994Y0305*
X0499Y03035*
X04988Y03019*
X0499Y03003*
X04994Y02988*
X05002Y02974*
X05012Y02961*
X05024Y02951*
X05038Y02944*
X05054Y02939*
X0507Y02937*
X05085Y02939*
X05101Y02944*
X05115Y02951*
X05127Y02961*
X05137Y02974*
X05145Y02988*
X05149Y03003*
X05151Y03019*
X05149Y03035*
X05145Y0305*
X05137Y03064*
X05127Y03077*
X05115Y03087*
X05101Y03094*
X05085Y03099*
X0507Y03101*
G37*
G36*
X02117D02*
X02101Y03099D01*
X02086Y03094*
X02071Y03087*
X02059Y03077*
X02049Y03064*
X02041Y0305*
X02037Y03035*
X02035Y03019*
X02037Y03003*
X02041Y02988*
X02049Y02974*
X02059Y02961*
X02071Y02951*
X02086Y02944*
X02101Y02939*
X02117Y02937*
X02133Y02939*
X02148Y02944*
X02162Y02951*
X02174Y02961*
X02185Y02974*
X02192Y02988*
X02197Y03003*
X02198Y03019*
X02197Y03035*
X02192Y0305*
X02185Y03064*
X02174Y03077*
X02162Y03087*
X02148Y03094*
X02133Y03099*
X02117Y03101*
G37*
G36*
X0479Y02985D02*
X0286D01*
X02853Y02984*
X02848Y02981*
X02373Y02506*
X0237Y02501*
X02369Y02495*
Y0189*
X0237Y01883*
X02373Y01878*
X02534Y01717*
X02533Y01714*
X02532Y01705*
X02533Y01695*
X02537Y01686*
X02543Y01678*
X02551Y01672*
X0256Y01668*
X0257Y01667*
X02579Y01668*
X02588Y01672*
X02596Y01678*
X02602Y01686*
X02606Y01695*
X02607Y01705*
X02606Y01714*
X02602Y01723*
X02596Y01731*
X02588Y01737*
X02579Y01741*
X0257Y01742*
X0256Y01741*
X02557Y0174*
X024Y01896*
Y02488*
X02866Y02954*
X04783*
X04868Y02868*
X04873Y02865*
X0488Y02864*
X05446*
X05448Y02859*
X05455Y0285*
X05464Y02843*
X05474Y02839*
X05485Y02838*
X05495Y02839*
X05505Y02843*
X05514Y0285*
X05521Y02859*
X05525Y02869*
X05526Y0288*
X05525Y0289*
X05521Y029*
X05514Y02909*
X05505Y02916*
X05495Y0292*
X05485Y02921*
X05474Y0292*
X05464Y02916*
X05455Y02909*
X05448Y029*
X05446Y02895*
X04886*
X04801Y02981*
X04796Y02984*
X0479Y02985*
G37*
G36*
X06085Y02821D02*
X06074Y0282D01*
X06064Y02816*
X06055Y02809*
X06048Y028*
X06044Y0279*
X06043Y0278*
X06044Y02769*
X06048Y02759*
X06055Y0275*
X06064Y02743*
X06074Y02739*
X06085Y02738*
X06095Y02739*
X06105Y02743*
X06114Y0275*
X06121Y02759*
X06125Y02769*
X06126Y0278*
X06125Y0279*
X06121Y028*
X06114Y02809*
X06105Y02816*
X06095Y0282*
X06085Y02821*
G37*
G36*
X0474Y02945D02*
X0288D01*
X02873Y02944*
X02868Y02941*
X02438Y02511*
X02435Y02506*
X02434Y025*
Y01925*
X02435Y01918*
X02438Y01913*
X02534Y01817*
X02533Y01814*
X02532Y01805*
X02533Y01795*
X02537Y01786*
X02543Y01778*
X02551Y01772*
X0256Y01768*
X0257Y01767*
X02579Y01768*
X02588Y01772*
X02596Y01778*
X02602Y01786*
X02606Y01795*
X02607Y01805*
X02606Y01814*
X02602Y01823*
X02596Y01831*
X02588Y01837*
X02579Y01841*
X0257Y01842*
X0256Y01841*
X02557Y0184*
X02465Y01931*
Y02493*
X02491Y02519*
X02495Y02516*
X02494Y0251*
Y02265*
X02495Y02258*
X02498Y02253*
X02534Y02217*
X02533Y02214*
X02532Y02205*
X02533Y02195*
X02537Y02186*
X02543Y02178*
X02551Y02172*
X0256Y02168*
X0257Y02167*
X02579Y02168*
X02588Y02172*
X02596Y02178*
X02602Y02186*
X02606Y02195*
X02607Y02205*
X02606Y02214*
X02602Y02223*
X02596Y02231*
X02588Y02237*
X02579Y02241*
X0257Y02242*
X0256Y02241*
X02557Y0224*
X02534Y02262*
X02536Y02267*
X02607*
Y02342*
X02585*
Y02508*
X02916Y02839*
X04618*
X04888Y02568*
X04893Y02565*
X049Y02564*
X05446*
X05448Y02559*
X05455Y0255*
X05464Y02543*
X05474Y02539*
X05485Y02538*
X05495Y02539*
X05505Y02543*
X05514Y0255*
X05521Y02559*
X05525Y02569*
X05526Y0258*
X05525Y0259*
X05521Y026*
X05514Y02609*
X05505Y02616*
X05495Y0262*
X05485Y02621*
X05474Y0262*
X05464Y02616*
X05455Y02609*
X05448Y026*
X05446Y02595*
X04906*
X04636Y02866*
X04631Y02869*
X04625Y0287*
X0291*
X02903Y02869*
X02898Y02866*
X02558Y02526*
X02555Y02521*
X02554Y02515*
Y02342*
X02532*
Y02276*
X02527Y02273*
X02525Y02274*
Y02503*
X02901Y02879*
X04663*
X04873Y02668*
X04878Y02665*
X04885Y02664*
X05446*
X05448Y02659*
X05455Y0265*
X05464Y02643*
X05474Y02639*
X05485Y02638*
X05495Y02639*
X05505Y02643*
X05514Y0265*
X05521Y02659*
X05525Y02669*
X05526Y0268*
X05525Y0269*
X05521Y027*
X05514Y02709*
X05505Y02716*
X05495Y0272*
X05485Y02721*
X05474Y0272*
X05464Y02716*
X05455Y02709*
X05448Y027*
X05446Y02695*
X04891*
X04681Y02906*
X0468Y02906*
X04679Y02913*
X0468Y02914*
X04733*
X04878Y02768*
X04883Y02765*
X0489Y02764*
X05446*
X05448Y02759*
X05455Y0275*
X05464Y02743*
X05474Y02739*
X05485Y02738*
X05495Y02739*
X05505Y02743*
X05514Y0275*
X05521Y02759*
X05525Y02769*
X05526Y0278*
X05525Y0279*
X05521Y028*
X05514Y02809*
X05505Y02816*
X05495Y0282*
X05485Y02821*
X05474Y0282*
X05464Y02816*
X05455Y02809*
X05448Y028*
X05446Y02795*
X04896*
X04751Y02941*
X04746Y02944*
X0474Y02945*
G37*
G36*
X06085Y02721D02*
X06074Y0272D01*
X06064Y02716*
X06055Y02709*
X06048Y027*
X06044Y0269*
X06043Y0268*
X06044Y02669*
X06048Y02659*
X06055Y0265*
X06064Y02643*
X06074Y02639*
X06085Y02638*
X06095Y02639*
X06105Y02643*
X06114Y0265*
X06121Y02659*
X06125Y02669*
X06126Y0268*
X06125Y0269*
X06121Y027*
X06114Y02709*
X06105Y02716*
X06095Y0272*
X06085Y02721*
G37*
G36*
X039Y02707D02*
X0389Y02706D01*
X03881Y02702*
X03873Y02696*
X03867Y02688*
X03863Y02679*
X03862Y0267*
X03863Y0266*
X03867Y02651*
X03873Y02643*
X03881Y02637*
X0389Y02633*
X039Y02632*
X03909Y02633*
X03912Y02634*
X03972Y02575*
X0397Y0257*
X03921*
X03835Y02657*
X03836Y0266*
X03837Y0267*
X03836Y02679*
X03832Y02688*
X03826Y02696*
X03818Y02702*
X03809Y02706*
X038Y02707*
X0379Y02706*
X03781Y02702*
X03773Y02696*
X03767Y02688*
X03763Y02679*
X03762Y0267*
X03763Y0266*
X03767Y02651*
X03773Y02643*
X03781Y02637*
X0379Y02633*
X038Y02632*
X03809Y02633*
X03812Y02634*
X03872Y02575*
X0387Y0257*
X03821*
X03735Y02657*
X03736Y0266*
X03737Y0267*
X03736Y02679*
X03732Y02688*
X03726Y02696*
X03718Y02702*
X03709Y02706*
X037Y02707*
X0369Y02706*
X03681Y02702*
X03673Y02696*
X03667Y02688*
X03663Y02679*
X03662Y0267*
X03663Y0266*
X03667Y02651*
X03673Y02643*
X03681Y02637*
X0369Y02633*
X037Y02632*
X03709Y02633*
X03712Y02634*
X03803Y02543*
X03808Y0254*
X03815Y02539*
X04188*
X04414Y02313*
Y02199*
X04409Y02197*
X04226Y02381*
X04221Y02384*
X04215Y02385*
X04134*
X04132Y02388*
X04126Y02396*
X04118Y02402*
X04109Y02406*
X041Y02407*
X0409Y02406*
X04081Y02402*
X04073Y02396*
X04067Y02388*
X04063Y02379*
X04062Y0237*
X04063Y0236*
X04067Y02351*
X04073Y02343*
X04081Y02337*
X0409Y02333*
X041Y02332*
X04109Y02333*
X04118Y02337*
X04126Y02343*
X04132Y02351*
X04134Y02354*
X04208*
X04414Y02148*
Y01426*
X04412Y01426*
X04404Y0142*
X04398Y01412*
X04395Y01404*
X04394Y01395*
X04395Y01385*
X04398Y01377*
X04404Y01369*
X04412Y01363*
X0442Y0136*
X0443Y01359*
X04439Y0136*
X04447Y01363*
X04455Y01369*
X04461Y01377*
X04464Y01385*
X04465Y01395*
X04464Y01404*
X04461Y01412*
X04455Y0142*
X04447Y01426*
X04445Y01426*
Y02155*
Y0232*
X04444Y02326*
X04441Y02331*
X04206Y02566*
X04201Y02569*
X04195Y0257*
X04021*
X04021Y02571*
X03935Y02657*
X03936Y0266*
X03937Y0267*
X03936Y02679*
X03932Y02688*
X03926Y02696*
X03918Y02702*
X03909Y02706*
X039Y02707*
G37*
G36*
X06085Y02621D02*
X06074Y0262D01*
X06064Y02616*
X06055Y02609*
X06048Y026*
X06044Y0259*
X06043Y0258*
X06044Y02569*
X06048Y02559*
X06055Y0255*
X06064Y02543*
X06074Y02539*
X06085Y02538*
X06095Y02539*
X06105Y02543*
X06114Y0255*
X06121Y02559*
X06125Y02569*
X06126Y0258*
X06125Y0259*
X06121Y026*
X06114Y02609*
X06105Y02616*
X06095Y0262*
X06085Y02621*
G37*
G36*
X0609Y02533D02*
X06078Y02531D01*
X06068Y02527*
X06059Y0252*
X06052Y02511*
X06048Y02501*
X06046Y0249*
X06048Y02478*
X06052Y02468*
X06059Y02459*
X06068Y02452*
X06078Y02448*
X0609Y02446*
X06101Y02448*
X06111Y02452*
X0612Y02459*
X06127Y02468*
X06131Y02478*
X06133Y0249*
X06131Y02501*
X06127Y02511*
X0612Y0252*
X06111Y02527*
X06101Y02531*
X0609Y02533*
G37*
G36*
X0548D02*
X05468Y02531D01*
X05458Y02527*
X05449Y0252*
X05442Y02511*
X05438Y02501*
X05436Y0249*
X05438Y02478*
X05442Y02468*
X05449Y02459*
X05458Y02452*
X05468Y02448*
X0548Y02446*
X05491Y02448*
X05501Y02452*
X0551Y02459*
X05517Y02468*
X05521Y02478*
X05523Y0249*
X05521Y02501*
X05517Y02511*
X0551Y0252*
X05501Y02527*
X05491Y02531*
X0548Y02533*
G37*
G36*
X04Y02407D02*
X0399Y02406D01*
X03981Y02402*
X03973Y02396*
X03967Y02388*
X03963Y02379*
X03962Y0237*
X03963Y0236*
X03967Y02351*
X03967Y0235*
X03857Y0224*
X03854Y02241*
X03845Y02242*
X03835Y02241*
X03826Y02237*
X03818Y02231*
X03812Y02223*
X03808Y02214*
X03807Y02205*
X03808Y02195*
X03812Y02186*
X03818Y02178*
X03826Y02172*
X03835Y02168*
X03845Y02167*
X03854Y02168*
X03863Y02172*
X03871Y02178*
X03877Y02186*
X03881Y02195*
X03882Y02205*
X03881Y02214*
X0388Y02217*
X03995Y02332*
X04Y02332*
X04009Y02333*
X04018Y02337*
X04026Y02343*
X04032Y02351*
X04036Y0236*
X04037Y0237*
X04036Y02379*
X04032Y02388*
X04026Y02396*
X04018Y02402*
X04009Y02406*
X04Y02407*
G37*
G36*
X039D02*
X0389Y02406D01*
X03881Y02402*
X03873Y02396*
X03867Y02388*
X03863Y02379*
X03862Y0237*
X03863Y0236*
X03864Y02357*
X03749Y02242*
X03745Y02242*
X03735Y02241*
X03726Y02237*
X03718Y02231*
X03712Y02223*
X03708Y02214*
X03707Y02205*
X03708Y02195*
X03712Y02186*
X03718Y02178*
X03726Y02172*
X03735Y02168*
X03745Y02167*
X03754Y02168*
X03763Y02172*
X03771Y02178*
X03777Y02186*
X03781Y02195*
X03782Y02205*
X03781Y02214*
X03777Y02223*
X03777Y02224*
X03887Y02334*
X0389Y02333*
X039Y02332*
X03909Y02333*
X03918Y02337*
X03926Y02343*
X03932Y02351*
X03936Y0236*
X03937Y0237*
X03936Y02379*
X03932Y02388*
X03926Y02396*
X03918Y02402*
X03909Y02406*
X039Y02407*
G37*
G36*
X06085Y02921D02*
X06074Y0292D01*
X06064Y02916*
X06055Y02909*
X06048Y029*
X06044Y0289*
X06043Y0288*
X06044Y02869*
X06048Y02859*
X06055Y0285*
X06064Y02843*
X06074Y02839*
X06085Y02838*
X06095Y02839*
X06105Y02843*
X06114Y0285*
X06121Y02859*
X06123Y02864*
X06203*
X06304Y02763*
Y02461*
X06163Y0232*
X04866*
X04366Y02821*
X04361Y02824*
X04355Y02825*
X0364*
X03633Y02824*
X03628Y02821*
X03512Y02705*
X03509Y02706*
X035Y02707*
X0349Y02706*
X03481Y02702*
X03473Y02696*
X03467Y02688*
X03463Y02679*
X03462Y0267*
X03463Y0266*
X03467Y02651*
X03473Y02643*
X03481Y02637*
X0349Y02633*
X035Y02632*
X03509Y02633*
X03518Y02637*
X03526Y02643*
X03532Y02651*
X03536Y0266*
X03537Y0267*
X03536Y02679*
X03535Y02682*
X03646Y02794*
X04348*
X04848Y02293*
X04853Y0229*
X0486Y02289*
X0617*
X06176Y0229*
X06181Y02293*
X06331Y02443*
X06334Y02448*
X06335Y02455*
Y0277*
X06334Y02776*
X06331Y02781*
X06221Y02891*
X06216Y02894*
X0621Y02895*
X06123*
X06121Y029*
X06114Y02909*
X06105Y02916*
X06095Y0292*
X06085Y02921*
G37*
G36*
X038Y02407D02*
X0379Y02406D01*
X03781Y02402*
X03773Y02396*
X03767Y02388*
X03763Y02379*
X03762Y0237*
X03763Y0236*
X03764Y02357*
X03718Y0231*
X03714Y02313*
X03715Y0232*
Y02335*
X03718Y02337*
X03726Y02343*
X03732Y02351*
X03736Y0236*
X03737Y0237*
X03736Y02379*
X03732Y02388*
X03726Y02396*
X03718Y02402*
X03709Y02406*
X037Y02407*
X0369Y02406*
X03681Y02402*
X03673Y02396*
X03667Y02388*
X03663Y02379*
X03662Y0237*
X03663Y0236*
X03667Y02351*
X03673Y02343*
X03681Y02337*
X03684Y02335*
Y02326*
X0362Y02263*
X03615Y02265*
Y02335*
X03618Y02337*
X03626Y02343*
X03632Y02351*
X03636Y0236*
X03637Y0237*
X03636Y02379*
X03632Y02388*
X03626Y02396*
X03618Y02402*
X03609Y02406*
X036Y02407*
X0359Y02406*
X03581Y02402*
X03573Y02396*
X03567Y02388*
X03563Y02379*
X03562Y0237*
X03563Y0236*
X03567Y02351*
X03573Y02343*
X03581Y02337*
X03584Y02335*
Y02295*
X03579Y02293*
X03527Y02344*
X03532Y02351*
X03536Y0236*
X03537Y0237*
X03536Y02379*
X03532Y02388*
X03526Y02396*
X03518Y02402*
X03509Y02406*
X035Y02407*
X0349Y02406*
X03481Y02402*
X03473Y02396*
X03467Y02388*
X03463Y02379*
X03462Y0237*
X03463Y0236*
X03467Y02351*
X03473Y02343*
X03481Y02337*
X0349Y02333*
X03494Y02332*
X03554Y02273*
Y02245*
X03553Y02244*
X03546Y02245*
X03546Y02246*
X03435Y02357*
X03436Y0236*
X03437Y0237*
X03436Y02379*
X03432Y02388*
X03426Y02396*
X03418Y02402*
X03409Y02406*
X034Y02407*
X0339Y02406*
X03381Y02402*
X03373Y02396*
X03367Y02388*
X03363Y02379*
X03362Y0237*
X03363Y0236*
X03367Y02351*
X03373Y02343*
X03381Y02337*
X0339Y02333*
X034Y02332*
X03409Y02333*
X03412Y02334*
X03519Y02228*
Y0212*
X0352Y02113*
X03523Y02108*
X03653Y01978*
X03658Y01975*
X03665Y01974*
X03703*
X03729Y01948*
Y01642*
X03707*
Y01567*
X03782*
Y01642*
X0376*
Y01955*
X03759Y01961*
X03756Y01966*
X03721Y02001*
X03716Y02004*
X0371Y02005*
X03671*
X03655Y02021*
X03658Y02025*
X03665Y02024*
X03803*
X03829Y01998*
Y01639*
X03826Y01637*
X03818Y01631*
X03812Y01623*
X03808Y01614*
X03807Y01605*
X03808Y01595*
X03812Y01586*
X03818Y01578*
X03826Y01572*
X03835Y01568*
X03845Y01567*
X03854Y01568*
X03863Y01572*
X03871Y01578*
X03877Y01586*
X03881Y01595*
X03882Y01605*
X03881Y01614*
X03877Y01623*
X03871Y01631*
X03863Y01637*
X0386Y01639*
Y02005*
X03859Y02011*
X03856Y02016*
X03823Y02049*
X03825Y02054*
X03983*
X04029Y02008*
Y01639*
X04026Y01637*
X04018Y01631*
X04012Y01623*
X04008Y01614*
X04007Y01605*
X04008Y01595*
X04012Y01586*
X04018Y01578*
X04026Y01572*
X04035Y01568*
X04045Y01567*
X04054Y01568*
X04063Y01572*
X04071Y01578*
X04077Y01586*
X04081Y01595*
X04082Y01605*
X04081Y01614*
X04077Y01623*
X04071Y01631*
X04063Y01637*
X0406Y01639*
Y02015*
X04059Y02021*
X04056Y02026*
X04007Y02074*
X04009Y02079*
X04035*
X04041Y0208*
X04046Y02083*
X04132Y02169*
X04135Y02168*
X04145Y02167*
X04154Y02168*
X04163Y02172*
X04171Y02178*
X04177Y02186*
X04181Y02195*
X04182Y02205*
X04181Y02214*
X04177Y02223*
X04171Y02231*
X04163Y02237*
X04154Y02241*
X04145Y02242*
X04135Y02241*
X04126Y02237*
X04118Y02231*
X04112Y02223*
X04108Y02214*
X04107Y02205*
X04108Y02195*
X04109Y02192*
X04028Y0211*
X0398*
X03978Y02115*
X04032Y02169*
X04035Y02168*
X04045Y02167*
X04054Y02168*
X04063Y02172*
X04071Y02178*
X04077Y02186*
X04081Y02195*
X04082Y02205*
X04081Y02214*
X04077Y02223*
X04071Y02231*
X04063Y02237*
X04054Y02241*
X04045Y02242*
X04035Y02241*
X04026Y02237*
X04018Y02231*
X04012Y02223*
X04008Y02214*
X04007Y02205*
X04008Y02195*
X04009Y02192*
X03958Y0214*
X03721*
X0368Y02181*
Y02228*
X03787Y02334*
X0379Y02333*
X038Y02332*
X03809Y02333*
X03818Y02337*
X03826Y02343*
X03832Y02351*
X03836Y0236*
X03837Y0237*
X03836Y02379*
X03832Y02388*
X03826Y02396*
X03818Y02402*
X03809Y02406*
X038Y02407*
G37*
G36*
X0287Y02342D02*
X0286Y02341D01*
X02851Y02337*
X02843Y02331*
X02837Y02323*
X02833Y02314*
X02832Y02305*
X02833Y02295*
X02834Y02292*
X02708Y02166*
X02705Y02161*
X02704Y02155*
Y02089*
X02699Y02087*
X02671Y02116*
X02666Y02119*
X0266Y0212*
X02604*
X02602Y02123*
X02596Y02131*
X02588Y02137*
X02579Y02141*
X0257Y02142*
X0256Y02141*
X02551Y02137*
X02543Y02131*
X02537Y02123*
X02533Y02114*
X02532Y02105*
X02533Y02095*
X02537Y02086*
X02543Y02078*
X02551Y02072*
X0256Y02068*
X0257Y02067*
X02579Y02068*
X02588Y02072*
X02596Y02078*
X02602Y02086*
X02604Y02089*
X02653*
X02704Y02038*
Y01994*
X02699Y01992*
X02676Y02016*
X02671Y02019*
X02665Y0202*
X02604*
X02602Y02023*
X02596Y02031*
X02588Y02037*
X02579Y02041*
X0257Y02042*
X0256Y02041*
X02551Y02037*
X02543Y02031*
X02537Y02023*
X02533Y02014*
X02532Y02005*
X02533Y01995*
X02537Y01986*
X02543Y01978*
X02551Y01972*
X0256Y01968*
X0257Y01967*
X02579Y01968*
X02588Y01972*
X02596Y01978*
X02602Y01986*
X02604Y01989*
X02658*
X02704Y01943*
Y01894*
X02699Y01892*
X02676Y01916*
X02671Y01919*
X02665Y0192*
X02604*
X02602Y01923*
X02596Y01931*
X02588Y01937*
X02579Y01941*
X0257Y01942*
X0256Y01941*
X02551Y01937*
X02543Y01931*
X02537Y01923*
X02533Y01914*
X02532Y01905*
X02533Y01895*
X02537Y01886*
X02543Y01878*
X02551Y01872*
X0256Y01868*
X0257Y01867*
X02579Y01868*
X02588Y01872*
X02596Y01878*
X02602Y01886*
X02604Y01889*
X02658*
X02704Y01843*
Y01426*
X02702Y01426*
X02694Y0142*
X02688Y01412*
X02685Y01404*
X02684Y01395*
X02685Y01385*
X02688Y01377*
X02694Y01369*
X02702Y01363*
X0271Y0136*
X0272Y01359*
X02729Y0136*
X02737Y01363*
X02745Y01369*
X02751Y01377*
X02754Y01385*
X02755Y01395*
X02754Y01404*
X02751Y01412*
X02745Y0142*
X02737Y01426*
X02735Y01426*
Y0185*
Y0195*
Y02045*
Y02148*
X02857Y02269*
X0286Y02268*
X0287Y02267*
X02879Y02268*
X02888Y02272*
X02896Y02278*
X02902Y02286*
X02906Y02295*
X02907Y02305*
X02906Y02314*
X02902Y02323*
X02896Y02331*
X02888Y02337*
X02879Y02341*
X0287Y02342*
G37*
G36*
X06085Y03021D02*
X06074Y0302D01*
X06064Y03016*
X06055Y03009*
X06048Y03*
X06044Y0299*
X06043Y0298*
X06044Y02969*
X06048Y02959*
X06055Y0295*
X06064Y02943*
X06074Y02939*
X06085Y02938*
X06095Y02939*
X06105Y02943*
X06114Y0295*
X06121Y02959*
X06123Y02965*
X06204*
X06375Y02794*
Y0244*
X06199Y02264*
X04835*
X0433Y0277*
X04325Y02773*
X0432Y02774*
X0369*
X03684Y02773*
X03679Y0277*
X03614Y02704*
X03609Y02706*
X036Y02707*
X0359Y02706*
X03581Y02702*
X03573Y02696*
X03567Y02688*
X03563Y02679*
X03562Y0267*
X03563Y0266*
X03567Y02651*
X03573Y02643*
X03581Y02637*
X0359Y02633*
X036Y02632*
X03609Y02633*
X03618Y02637*
X03626Y02643*
X03632Y02651*
X03636Y0266*
X03637Y0267*
X03636Y02679*
X03634Y02684*
X03695Y02745*
X04314*
X04819Y02239*
X04824Y02236*
X0483Y02235*
X06205*
X0621Y02236*
X06215Y02239*
X064Y02424*
X06403Y02429*
X06404Y02435*
Y028*
X06403Y02805*
X064Y0281*
X0622Y0299*
X06215Y02993*
X0621Y02994*
X06123*
X06121Y03*
X06114Y03009*
X06105Y03016*
X06095Y0302*
X06085Y03021*
G37*
G36*
Y03221D02*
X06074Y0322D01*
X06064Y03216*
X06055Y03209*
X06048Y032*
X06044Y0319*
X06043Y0318*
X06044Y03169*
X06048Y03159*
X06055Y0315*
X06064Y03143*
X06074Y03139*
X06085Y03138*
X06095Y03139*
X06105Y03143*
X06114Y0315*
X06121Y03159*
X06123Y03165*
X06189*
X06515Y02839*
Y0237*
X06304Y02159*
X04783*
X04261Y02681*
X04256Y02684*
X0425Y02685*
X04137*
Y02704*
X04273*
X04788Y02188*
X04793Y02185*
X048Y02184*
X04806Y02185*
X04806Y02185*
X06255*
X0626Y02186*
X06265Y02189*
X06465Y02389*
X06468Y02394*
X06469Y024*
Y0283*
X06468Y02835*
X06465Y0284*
X06215Y0309*
X0621Y03093*
X06205Y03094*
X06123*
X06121Y031*
X06114Y03109*
X06105Y03116*
X06095Y0312*
X06085Y03121*
X06074Y0312*
X06064Y03116*
X06055Y03109*
X06048Y031*
X06044Y0309*
X06043Y0308*
X06044Y03069*
X06048Y03059*
X06055Y0305*
X06064Y03043*
X06074Y03039*
X06085Y03038*
X06095Y03039*
X06105Y03043*
X06114Y0305*
X06121Y03059*
X06123Y03065*
X06199*
X0644Y02824*
Y02405*
X06249Y02214*
X04808*
X04291Y02731*
X04286Y02734*
X0428Y02735*
X0405*
X04043Y02734*
X04038Y02731*
X04012Y02705*
X04009Y02706*
X04Y02707*
X0399Y02706*
X03981Y02702*
X03973Y02696*
X03967Y02688*
X03963Y02679*
X03962Y0267*
X03963Y0266*
X03967Y02651*
X03973Y02643*
X03981Y02637*
X0399Y02633*
X04Y02632*
X04009Y02633*
X04018Y02637*
X04026Y02643*
X04032Y02651*
X04036Y0266*
X04037Y0267*
X04036Y02679*
X04035Y02682*
X04056Y02704*
X04062*
Y02632*
X04137*
Y02654*
X04243*
X04763Y02133*
X04768Y0213*
X04775Y02129*
X04781Y0213*
X04781Y0213*
X0631*
X06315Y02131*
X0632Y02134*
X0654Y02354*
X06543Y02359*
X06544Y02365*
Y02845*
X06543Y0285*
X0654Y02855*
X06205Y0319*
X062Y03193*
X06195Y03194*
X06123*
X06121Y032*
X06114Y03209*
X06105Y03216*
X06095Y0322*
X06085Y03221*
G37*
G36*
X03945Y02242D02*
X03935Y02241D01*
X03926Y02237*
X03918Y02231*
X03912Y02223*
X03908Y02214*
X03907Y02205*
X03908Y02195*
X03912Y02186*
X03918Y02178*
X03926Y02172*
X03935Y02168*
X03945Y02167*
X03954Y02168*
X03963Y02172*
X03971Y02178*
X03977Y02186*
X03981Y02195*
X03982Y02205*
X03981Y02214*
X03977Y02223*
X03971Y02231*
X03963Y02237*
X03954Y02241*
X03945Y02242*
G37*
G36*
X0347D02*
X0346Y02241D01*
X03451Y02237*
X03443Y02231*
X03437Y02223*
X03433Y02214*
X03432Y02205*
X03433Y02195*
X03434Y02192*
X03163Y0192*
X02904*
X02902Y01923*
X02896Y01931*
X02888Y01937*
X02879Y01941*
X0287Y01942*
X0286Y01941*
X02851Y01937*
X02843Y01931*
X02837Y01923*
X02833Y01914*
X02832Y01905*
X02833Y01895*
X02837Y01886*
X02843Y01878*
X02851Y01872*
X0286Y01868*
X0287Y01867*
X02879Y01868*
X02888Y01872*
X02896Y01878*
X02902Y01886*
X02904Y01889*
X0317*
X03176Y0189*
X03181Y01893*
X03457Y02169*
X0346Y02168*
X0347Y02167*
X03479Y02168*
X03488Y02172*
X03496Y02178*
X03502Y02186*
X03506Y02195*
X03507Y02205*
X03506Y02214*
X03502Y02223*
X03496Y02231*
X03488Y02237*
X03479Y02241*
X0347Y02242*
G37*
G36*
X0337D02*
X0336Y02241D01*
X03351Y02237*
X03343Y02231*
X03337Y02223*
X03333Y02214*
X03332Y02205*
X03333Y02195*
X03334Y02192*
X03163Y0202*
X02904*
X02902Y02023*
X02896Y02031*
X02888Y02037*
X02879Y02041*
X0287Y02042*
X0286Y02041*
X02851Y02037*
X02843Y02031*
X02837Y02023*
X02833Y02014*
X02832Y02005*
X02833Y01995*
X02837Y01986*
X02843Y01978*
X02851Y01972*
X0286Y01968*
X0287Y01967*
X02879Y01968*
X02888Y01972*
X02896Y01978*
X02902Y01986*
X02904Y01989*
X0317*
X03176Y0199*
X03181Y01993*
X03357Y02169*
X0336Y02168*
X0337Y02167*
X03379Y02168*
X03388Y02172*
X03396Y02178*
X03402Y02186*
X03406Y02195*
X03407Y02205*
X03406Y02214*
X03402Y02223*
X03396Y02231*
X03388Y02237*
X03379Y02241*
X0337Y02242*
G37*
G36*
X0327D02*
X0326Y02241D01*
X03251Y02237*
X03243Y02231*
X03237Y02223*
X03233Y02214*
X03232Y02205*
X03233Y02195*
X03237Y02186*
X03243Y02178*
X03251Y02172*
X0326Y02168*
X0327Y02167*
X03279Y02168*
X03288Y02172*
X03296Y02178*
X03302Y02186*
X03306Y02195*
X03307Y02205*
X03306Y02214*
X03302Y02223*
X03296Y02231*
X03288Y02237*
X03279Y02241*
X0327Y02242*
G37*
G36*
X03095Y02295D02*
X03005D01*
X02998Y02294*
X02993Y02291*
X02923Y0222*
X02904*
X02902Y02223*
X02896Y02231*
X02888Y02237*
X02879Y02241*
X0287Y02242*
X0286Y02241*
X02851Y02237*
X02843Y02231*
X02837Y02223*
X02833Y02214*
X02832Y02205*
X02833Y02195*
X02837Y02186*
X02843Y02178*
X02851Y02172*
X0286Y02168*
X0287Y02167*
X02879Y02168*
X02888Y02172*
X02896Y02178*
X02902Y02186*
X02904Y02189*
X0293*
X02936Y0219*
X02941Y02193*
X03011Y02264*
X03088*
X03134Y02217*
X03133Y02214*
X03132Y02205*
X03133Y02195*
X03137Y02186*
X03143Y02178*
X03151Y02172*
X0316Y02168*
X0317Y02167*
X03179Y02168*
X03188Y02172*
X03196Y02178*
X03202Y02186*
X03206Y02195*
X03207Y02205*
X03206Y02214*
X03202Y02223*
X03196Y02231*
X03188Y02237*
X03179Y02241*
X0317Y02242*
X0316Y02241*
X03157Y0224*
X03106Y02291*
X03101Y02294*
X03095Y02295*
G37*
G36*
X0307Y02242D02*
X0306Y02241D01*
X03051Y02237*
X03043Y02231*
X03037Y02223*
X03033Y02214*
X03032Y02205*
X03033Y02195*
X03034Y02192*
X02963Y0212*
X02904*
X02902Y02123*
X02896Y02131*
X02888Y02137*
X02879Y02141*
X0287Y02142*
X0286Y02141*
X02851Y02137*
X02843Y02131*
X02837Y02123*
X02833Y02114*
X02832Y02105*
X02833Y02095*
X02837Y02086*
X02843Y02078*
X02851Y02072*
X0286Y02068*
X0287Y02067*
X02879Y02068*
X02888Y02072*
X02896Y02078*
X02902Y02086*
X02904Y02089*
X0297*
X02976Y0209*
X02981Y02093*
X03057Y02169*
X0306Y02168*
X0307Y02167*
X03079Y02168*
X03088Y02172*
X03096Y02178*
X03102Y02186*
X03106Y02195*
X03107Y02205*
X03106Y02214*
X03102Y02223*
X03096Y02231*
X03088Y02237*
X03079Y02241*
X0307Y02242*
G37*
G36*
X06085Y03321D02*
X06074Y0332D01*
X06064Y03316*
X06055Y03309*
X06048Y033*
X06044Y0329*
X06043Y0328*
X06044Y03269*
X06048Y03259*
X06055Y0325*
X06064Y03243*
X06074Y03239*
X06085Y03238*
X06095Y03239*
X06105Y03243*
X06114Y0325*
X06121Y03259*
X06123Y03265*
X06184*
X0659Y02859*
Y02315*
X06325Y0205*
X06086*
X06086Y02052*
X0608Y0206*
X06072Y02066*
X06064Y02069*
X06055Y0207*
X06045Y02069*
X06037Y02066*
X06029Y0206*
X06023Y02052*
X0602Y02044*
X06019Y02035*
X0602Y02025*
X06023Y02017*
X06029Y02009*
X06037Y02003*
X06045Y02*
X06055Y01999*
X06064Y02*
X06072Y02003*
X0608Y02009*
X06086Y02017*
X06086Y02019*
X0633*
X06336Y0202*
X06341Y02023*
X06344Y02028*
X06344Y02029*
X06615Y02299*
X06618Y02304*
X06619Y0231*
Y02865*
X06618Y0287*
X06615Y02875*
X062Y0329*
X06195Y03293*
X0619Y03294*
X06123*
X06121Y033*
X06114Y03309*
X06105Y03316*
X06095Y0332*
X06085Y03321*
G37*
G36*
X05755Y0207D02*
X05745Y02069D01*
X05737Y02066*
X05729Y0206*
X05723Y02052*
X0572Y02045*
X05531*
X05529Y02049*
X05523Y02058*
X05514Y02064*
X05505Y02068*
X05495Y02069*
X05484Y02068*
X05475Y02064*
X05466Y02058*
X0546Y02049*
X05456Y0204*
X05455Y0203*
X05456Y02019*
X0546Y0201*
X05466Y02001*
X05475Y01995*
X05484Y01991*
X05495Y0199*
X05505Y01991*
X05514Y01995*
X05523Y02001*
X05529Y0201*
X05531Y02014*
X05726*
X05729Y02009*
X05737Y02003*
X05745Y02*
X05755Y01999*
X05764Y02*
X05772Y02003*
X0578Y02009*
X05786Y02017*
X05789Y02025*
X0579Y02035*
X05789Y02044*
X05786Y02052*
X0578Y0206*
X05772Y02066*
X05764Y02069*
X05755Y0207*
G37*
G36*
X0287Y01742D02*
X0286Y01741D01*
X02851Y01737*
X02843Y01731*
X02837Y01723*
X02833Y01714*
X02832Y01705*
X02833Y01695*
X02837Y01686*
X02843Y01678*
X02851Y01672*
X0286Y01668*
X0287Y01667*
X02879Y01668*
X02888Y01672*
X02896Y01678*
X02902Y01686*
X02904Y01689*
X03063*
X03105Y01647*
X03103Y01642*
X03032*
Y0162*
X02904*
X02902Y01623*
X02896Y01631*
X02888Y01637*
X02879Y01641*
X0287Y01642*
X0286Y01641*
X02851Y01637*
X02843Y01631*
X02837Y01623*
X02833Y01614*
X02832Y01605*
X02833Y01595*
X02837Y01586*
X02843Y01578*
X02851Y01572*
X0286Y01568*
X0287Y01567*
X02879Y01568*
X02888Y01572*
X02896Y01578*
X02902Y01586*
X02904Y01589*
X03032*
Y01567*
X03107*
Y01638*
X03112Y0164*
X03134Y01617*
X03133Y01614*
X03132Y01605*
X03133Y01595*
X03137Y01586*
X03143Y01578*
X03151Y01572*
X0316Y01568*
X0317Y01567*
X03179Y01568*
X03188Y01572*
X03196Y01578*
X03202Y01586*
X03206Y01595*
X03207Y01605*
X03206Y01614*
X03202Y01623*
X03196Y01631*
X03188Y01637*
X03179Y01641*
X0317Y01642*
X0316Y01641*
X03157Y0164*
X03081Y01716*
X03076Y01719*
X0307Y0172*
X02904*
X02902Y01723*
X02896Y01731*
X02888Y01737*
X02879Y01741*
X0287Y01742*
G37*
G36*
X04145Y01642D02*
X04135Y01641D01*
X04126Y01637*
X04118Y01631*
X04112Y01623*
X04108Y01614*
X04107Y01605*
X04108Y01595*
X04112Y01586*
X04118Y01578*
X04126Y01572*
X04135Y01568*
X04145Y01567*
X04154Y01568*
X04163Y01572*
X04171Y01578*
X04177Y01586*
X04181Y01595*
X04182Y01605*
X04181Y01614*
X04177Y01623*
X04171Y01631*
X04163Y01637*
X04154Y01641*
X04145Y01642*
G37*
G36*
X0347D02*
X0346Y01641D01*
X03451Y01637*
X03443Y01631*
X03437Y01623*
X03433Y01614*
X03432Y01605*
X03433Y01595*
X03437Y01586*
X03443Y01578*
X03451Y01572*
X0346Y01568*
X0347Y01567*
X03479Y01568*
X03488Y01572*
X03496Y01578*
X03502Y01586*
X03506Y01595*
X03507Y01605*
X03506Y01614*
X03502Y01623*
X03496Y01631*
X03488Y01637*
X03479Y01641*
X0347Y01642*
G37*
G36*
X0287Y01842D02*
X0286Y01841D01*
X02851Y01837*
X02843Y01831*
X02837Y01823*
X02833Y01814*
X02832Y01805*
X02833Y01795*
X02837Y01786*
X02843Y01778*
X02851Y01772*
X0286Y01768*
X0287Y01767*
X02879Y01768*
X02888Y01772*
X02896Y01778*
X02902Y01786*
X02904Y01789*
X03163*
X03334Y01617*
X03333Y01614*
X03332Y01605*
X03333Y01595*
X03337Y01586*
X03343Y01578*
X03351Y01572*
X0336Y01568*
X0337Y01567*
X03379Y01568*
X03388Y01572*
X03396Y01578*
X03402Y01586*
X03406Y01595*
X03407Y01605*
X03406Y01614*
X03402Y01623*
X03396Y01631*
X03388Y01637*
X03379Y01641*
X0337Y01642*
X0336Y01641*
X03357Y0164*
X03181Y01816*
X03176Y01819*
X0317Y0182*
X02904*
X02902Y01823*
X02896Y01831*
X02888Y01837*
X02879Y01841*
X0287Y01842*
G37*
G36*
X03945Y01642D02*
X03935Y01641D01*
X03926Y01637*
X03918Y01631*
X03912Y01623*
X03908Y01614*
X03907Y01605*
X03908Y01595*
X03912Y01586*
X03918Y01578*
X03926Y01572*
X03929Y0157*
Y01426*
X03927Y01426*
X03919Y0142*
X03913Y01412*
X0391Y01404*
X03909Y01395*
X0391Y01385*
X03913Y01377*
X03919Y01369*
X03927Y01363*
X03935Y0136*
X03945Y01359*
X03954Y0136*
X03962Y01363*
X0397Y01369*
X03976Y01377*
X03979Y01385*
X0398Y01395*
X03979Y01404*
X03976Y01412*
X0397Y0142*
X03962Y01426*
X0396Y01426*
Y0157*
X03963Y01572*
X03971Y01578*
X03977Y01586*
X03981Y01595*
X03982Y01605*
X03981Y01614*
X03977Y01623*
X03971Y01631*
X03963Y01637*
X03954Y01641*
X03945Y01642*
G37*
G36*
X0327D02*
X0326Y01641D01*
X03251Y01637*
X03243Y01631*
X03237Y01623*
X03233Y01614*
X03232Y01605*
X03233Y01595*
X03237Y01586*
X03243Y01578*
X03251Y01572*
X03254Y0157*
Y01426*
X03252Y01426*
X03244Y0142*
X03238Y01412*
X03235Y01404*
X03234Y01395*
X03235Y01385*
X03238Y01377*
X03244Y01369*
X03252Y01363*
X0326Y0136*
X0327Y01359*
X03279Y0136*
X03287Y01363*
X03295Y01369*
X03301Y01377*
X03304Y01385*
X03305Y01395*
X03304Y01404*
X03301Y01412*
X03295Y0142*
X03287Y01426*
X03285Y01426*
Y0157*
X03288Y01572*
X03296Y01578*
X03302Y01586*
X03306Y01595*
X03307Y01605*
X03306Y01614*
X03302Y01623*
X03296Y01631*
X03288Y01637*
X03279Y01641*
X0327Y01642*
G37*
%LNpcb_baja_teste-3*%
%LPD*%
G36*
X06495Y0428D02*
Y0389D01*
X0647Y03865*
X0638*
X06305Y0394*
X0603*
Y04015*
X0626*
X0633Y04085*
Y0425*
X0638Y043*
X06475*
X06495Y0428*
G37*
%LNpcb_baja_teste-4*%
%LPC*%
G36*
X06465Y0409D02*
X06462Y0409D01*
X0646Y0409*
X06453Y04089*
X06448Y04086*
X06445Y04081*
X06444Y04075*
Y0407*
X06445Y04063*
X06448Y04058*
X06453Y04055*
X0646Y04054*
X06466Y04055*
X06471Y04058*
X06476Y04063*
X06479Y04068*
X0648Y04075*
X06479Y04081*
X06476Y04086*
X06471Y04089*
X06465Y0409*
G37*
%LNpcb_baja_teste-5*%
%LPD*%
G54D14*
X039Y02355D02*
Y0237D01*
G54D15*
X0666Y01295D03*
X01865D03*
X0185Y0478D03*
X0671Y0477D03*
G54D33*
X0679Y03795D03*
X0656Y04075D03*
X0666D03*
X0646D03*
X0656Y04225D03*
X0666D03*
X0646D03*
X06545Y0343D03*
Y0333D03*
Y0353D03*
G54D34*
X05485Y0398D03*
G54D35*
X05485Y0388D03*
Y0378D03*
Y0368D03*
Y0358D03*
Y0348D03*
Y0338D03*
Y0328D03*
Y0318D03*
Y0308D03*
Y0298D03*
Y0288D03*
Y0278D03*
Y0268D03*
Y0258D03*
X06085D03*
Y0268D03*
Y0278D03*
Y0288D03*
Y0298D03*
Y0308D03*
Y0318D03*
Y0328D03*
Y0338D03*
Y0348D03*
Y0358D03*
Y0368D03*
Y0378D03*
Y0388D03*
Y0398D03*
G54D36*
X0548Y0249D03*
X0609D03*
X0548Y0407D03*
X0609D03*
G54D37*
X02333Y04259D03*
G54D38*
X0243Y04259D03*
X02533D03*
X02633D03*
X02733D03*
X02833D03*
X02933D03*
X03033D03*
X03133D03*
X03233D03*
X03333D03*
X03433D03*
X03533D03*
X03633D03*
X03733D03*
X03833D03*
G54D39*
X02117Y0424D03*
Y03019D03*
X0507Y0424D03*
Y03019D03*
G54D40*
X0357Y01395D03*
X0327D03*
X0641Y0353D03*
Y0323D03*
X0302Y01395D03*
X0272D03*
X04245D03*
X03945D03*
X0473D03*
X0443D03*
X05755Y02035D03*
X06055D03*
G54D41*
X0666Y03925D03*
G54D42*
X0646Y03925D03*
G54D43*
X05495Y0203D03*
G54D44*
X05395Y0203D03*
G54D45*
X0307Y01605D03*
X03745D03*
X041Y0267D03*
G54D46*
X0317Y01605D03*
X0327D03*
X0337D03*
X0347D03*
X0307Y02205D03*
X0317D03*
X0327D03*
X0337D03*
X0347D03*
X0287Y01605D03*
Y01705D03*
Y01805D03*
Y01905D03*
Y02005D03*
Y02105D03*
Y02205D03*
Y02305D03*
X0257Y01605D03*
Y01705D03*
Y01805D03*
Y01905D03*
Y02005D03*
Y02105D03*
Y02205D03*
X03845Y01605D03*
X03945D03*
X04045D03*
X04145D03*
X03745Y02205D03*
X03845D03*
X03945D03*
X04045D03*
X04145D03*
X034Y0237D03*
X035D03*
X036D03*
X037D03*
X038D03*
X039D03*
X04D03*
X041D03*
X034Y0267D03*
X035D03*
X036D03*
X037D03*
X038D03*
X039D03*
X04D03*
G54D47*
X0513Y04515D03*
X0518D03*
X04835D03*
X04885D03*
G54D48*
X0523Y04515D03*
X04935D03*
G54D49*
X0257Y02305D03*
G54D50*
X0666Y03925D02*
X0679Y03795D01*
G54D51*
X0539Y0358D02*
X05485D01*
X05305Y03665D02*
X0539Y0358D01*
X05305Y03665D02*
Y0428D01*
X05195Y0439D02*
X05305Y0428D01*
X0506Y0439D02*
X05195D01*
X04935Y04515D02*
X0506Y0439D01*
X05415Y0388D02*
X05485D01*
X0538Y03915D02*
X05415Y0388D01*
X0538Y03915D02*
Y04305D01*
X0523Y04455D02*
X0538Y04305D01*
X0523Y04455D02*
Y04515D01*
X0646Y0407D02*
X06465Y04075D01*
X0646Y0407D02*
Y04075D01*
X0232Y0444D02*
X0243Y04329D01*
Y04259D02*
Y04329D01*
X06445Y0323D02*
X06545Y0333D01*
X0641Y0323D02*
X06445D01*
X0616Y0348D02*
X0641Y0323D01*
X06085Y0348D02*
X0616D01*
X06595Y0353D02*
X0668Y03445D01*
X06545Y0353D02*
X06595D01*
X0641D02*
X06545D01*
X0473Y01315D02*
X0481Y01235D01*
X0473Y01315D02*
Y01395D01*
X04245Y01315D02*
X04325Y01235D01*
X04245Y01315D02*
Y01395D01*
X0357Y0132D02*
X03655Y01235D01*
X0357Y0132D02*
Y01395D01*
X0302Y01325D02*
X0311Y01235D01*
X0302Y01325D02*
Y01395D01*
X06055Y02035D02*
X0633D01*
X0575Y0203D02*
X05755Y02035D01*
X05495Y0203D02*
X0575D01*
X0428Y0272D02*
X048Y022D01*
X0405Y0272D02*
X0428D01*
X04Y0267D02*
X0405Y0272D01*
X06085Y0288D02*
X0621D01*
X0632Y0277*
Y02455D02*
Y0277D01*
X0617Y02305D02*
X0632Y02455D01*
X0486Y02305D02*
X0617D01*
X04355Y0281D02*
X0486Y02305D01*
X0364Y0281D02*
X04355D01*
X035Y0267D02*
X0364Y0281D01*
X0425Y0267D02*
X04775Y02145D01*
X041Y0267D02*
X0425D01*
X0533Y0298D02*
X05485D01*
X04675Y03635D02*
X0533Y0298D01*
X03258Y03635D02*
X04675D01*
X02633Y04259D02*
X03258Y03635D01*
X0532Y0308D02*
X05485D01*
X04695Y03705D02*
X0532Y0308D01*
X03388Y03705D02*
X04695D01*
X02833Y04259D02*
X03388Y03705D01*
X0532Y0318D02*
X05485D01*
X0473Y0377D02*
X0532Y0318D01*
X03765Y0377D02*
X0473D01*
X03333Y04201D02*
X03765Y0377D01*
X03333Y04201D02*
Y04259D01*
X05325Y0328D02*
X05485D01*
X0476Y03845D02*
X05325Y0328D01*
X0378Y03845D02*
X0476D01*
X03433Y04191D02*
X0378Y03845D01*
X03433Y04191D02*
Y04259D01*
X0533Y0338D02*
X05485D01*
X04795Y03915D02*
X0533Y0338D01*
X03795Y03915D02*
X04795D01*
X03533Y04176D02*
X03795Y03915D01*
X03533Y04176D02*
Y04259D01*
X05335Y0348D02*
X05485D01*
X04835Y0398D02*
X05335Y0348D01*
X03815Y0398D02*
X04835D01*
X03633Y04161D02*
X03815Y0398D01*
X03633Y04161D02*
Y04259D01*
X0443Y02155D02*
Y0232D01*
Y01395D02*
Y02155D01*
X04215Y0237D02*
X0443Y02155D01*
X041Y0237D02*
X04215D01*
X0327Y01395D02*
Y01605D01*
X04195Y02555D02*
X0443Y0232D01*
X0401Y02555D02*
X04195D01*
X03915D02*
X0401D01*
Y0256*
X039Y0267D02*
X0401Y0256D01*
X03815Y02555D02*
X03915D01*
X038Y0267D02*
X03915Y02555D01*
X037Y0267D02*
X03815Y02555D01*
X03945Y01395D02*
Y01605D01*
X03665Y0199D02*
X0371D01*
X03535Y0212D02*
X03665Y0199D01*
X03535Y0212D02*
Y02235D01*
X034Y0237D02*
X03535Y02235D01*
X03745Y01605D02*
Y01955D01*
X0371Y0199D02*
X03745Y01955D01*
X03845Y01605D02*
Y02005D01*
X0381Y0204D02*
X03845Y02005D01*
X03665Y0204D02*
X0381D01*
X0357Y02135D02*
X03665Y0204D01*
X0357Y02135D02*
Y0228D01*
X035Y0235D02*
X0357Y0228D01*
X035Y0235D02*
Y0237D01*
X04045Y01605D02*
Y02015D01*
X0399Y0207D02*
X04045Y02015D01*
X03685Y0207D02*
X0399D01*
X036Y02155D02*
X03685Y0207D01*
X036Y02155D02*
Y0237D01*
X04035Y02095D02*
X04145Y02205D01*
X03705Y02095D02*
X04035D01*
X0363Y0217D02*
X03705Y02095D01*
X0363Y0217D02*
Y0225D01*
X037Y0232*
Y0237*
X03965Y02125D02*
X04045Y02205D01*
X03715Y02125D02*
X03965D01*
X03665Y02175D02*
X03715Y02125D01*
X03665Y02175D02*
Y02235D01*
X038Y0237*
X03745Y02205D02*
Y02215D01*
X039Y0237*
X03845Y02205D02*
X04Y0236D01*
Y0237*
X03095Y0228D02*
X0317Y02205D01*
X03005Y0228D02*
X03095D01*
X0293Y02205D02*
X03005Y0228D01*
X0287Y02205D02*
X0293D01*
X0297Y02105D02*
X0307Y02205D01*
X0287Y02105D02*
X0297D01*
X0317Y02005D02*
X0337Y02205D01*
X0287Y02005D02*
X0317D01*
Y01905D02*
X0347Y02205D01*
X0287Y01905D02*
X0317D01*
Y01805D02*
X0337Y01605D01*
X0287Y01805D02*
X0317D01*
X0307Y01705D02*
X0317Y01605D01*
X0287Y01705D02*
X0307D01*
X03055Y01605D02*
X03065Y01615D01*
X0287Y01605D02*
X03055D01*
X0272Y01395D02*
Y0185D01*
X02665Y01905D02*
X0272Y0185D01*
X0257Y01905D02*
X02665D01*
X0266Y02105D02*
X0272Y02045D01*
X0257Y02105D02*
X0266D01*
X02665Y02005D02*
X0272Y0195D01*
X0257Y02005D02*
X02665D01*
X0272Y0185D02*
Y0195D01*
Y02045*
Y02155*
X0287Y02305*
X0488Y0288D02*
X05485D01*
X0479Y0297D02*
X0488Y0288D01*
X0489Y0278D02*
X05485D01*
X0474Y0293D02*
X0489Y0278D01*
X0286Y0297D02*
X0479D01*
X02385Y02495D02*
X0286Y0297D01*
X02385Y0189D02*
Y02495D01*
Y0189D02*
X0257Y01705D01*
X0288Y0293D02*
X0474D01*
X0245Y025D02*
X0288Y0293D01*
X0245Y01925D02*
Y025D01*
Y01925D02*
X0257Y01805D01*
X04885Y0268D02*
X05485D01*
X0467Y02895D02*
X04885Y0268D01*
X02895Y02895D02*
X0467D01*
X0251Y0251D02*
X02895Y02895D01*
X0251Y02265D02*
Y0251D01*
Y02265D02*
X0257Y02205D01*
X049Y0258D02*
X05485D01*
X04625Y02855D02*
X049Y0258D01*
X0291Y02855D02*
X04625D01*
X0257Y02515D02*
X0291Y02855D01*
X0257Y02305D02*
Y02515D01*
G54D52*
X04835Y04515D02*
Y04585D01*
X04975Y04725*
X06245D02*
X0675Y0422D01*
X04975Y04725D02*
X06245D01*
X0675Y04165D02*
Y0422D01*
X0666Y04075D02*
X0675Y04165D01*
X0513Y04515D02*
Y04575D01*
X05225Y0467*
X06215*
X0666Y04225*
X0232Y0444D02*
X03655D01*
X0202D02*
X0232D01*
X03733Y04259D02*
Y04361D01*
X03655Y0444D02*
X03733Y04361D01*
X0189Y0431D02*
X0202Y0444D01*
X0189Y01795D02*
Y0431D01*
Y01795D02*
X0245Y01235D01*
X0311*
X0668Y03445D02*
Y0355D01*
Y02055D02*
Y03445D01*
X0655Y0368D02*
X0668Y0355D01*
X06085Y0368D02*
X0655D01*
X0586Y01235D02*
X0668Y02055D01*
X0481Y01235D02*
X0586D01*
X04325D02*
X0481D01*
X03655D02*
X04325D01*
X0311D02*
X03655D01*
G54D53*
X06085Y0328D02*
X0619D01*
X06605Y02865*
Y0231D02*
Y02865D01*
X06085Y0318D02*
X06195D01*
X0653Y02845*
Y02365D02*
Y02845D01*
X06085Y0308D02*
X06205D01*
X06455Y0283*
Y024D02*
Y0283D01*
X06085Y0298D02*
X0621D01*
X0639Y028*
Y02435D02*
Y028D01*
X036Y0267D02*
X0369Y0276D01*
X0432*
X0483Y0225*
X04775Y02145D02*
X0631D01*
X048Y022D02*
X06255D01*
X0483Y0225D02*
X06205D01*
X0633Y02035D02*
X06605Y0231D01*
X0631Y02145D02*
X0653Y02365D01*
X06255Y022D02*
X06455Y024D01*
X06205Y0225D02*
X0639Y02435D01*
M02*