%FSTAX23Y23*%
%MOIN*%
%SFA1B1*%

%IPPOS*%
%ADD15C,0.098425*%
%ADD33C,0.060000*%
%ADD34R,0.066929X0.066929*%
%ADD35C,0.066929*%
%ADD36C,0.070000*%
%ADD37R,0.070866X0.070866*%
%ADD38C,0.070866*%
%ADD39C,0.146299*%
%ADD40C,0.055118*%
%ADD41R,0.072835X0.072835*%
%ADD42C,0.072835*%
%ADD43C,0.062992*%
%ADD44R,0.072835X0.072835*%
%ADD45R,0.059055X0.059055*%
%ADD46C,0.059055*%
%ADD47O,0.039370X0.078740*%
%ADD48R,0.039370X0.078740*%
%ADD49R,0.059055X0.059055*%
%LNpcb_baja_teste-1*%
%LPD*%
G54D15*
X0666Y01295D03*
X01865D03*
X0185Y0478D03*
X0671Y0477D03*
G54D33*
X0679Y03795D03*
X0656Y04075D03*
X0666D03*
X0646D03*
X0656Y04225D03*
X0666D03*
X0646D03*
X06545Y0343D03*
Y0333D03*
Y0353D03*
G54D34*
X05485Y0398D03*
G54D35*
X05485Y0388D03*
Y0378D03*
Y0368D03*
Y0358D03*
Y0348D03*
Y0338D03*
Y0328D03*
Y0318D03*
Y0308D03*
Y0298D03*
Y0288D03*
Y0278D03*
Y0268D03*
Y0258D03*
X06085D03*
Y0268D03*
Y0278D03*
Y0288D03*
Y0298D03*
Y0308D03*
Y0318D03*
Y0328D03*
Y0338D03*
Y0348D03*
Y0358D03*
Y0368D03*
Y0378D03*
Y0388D03*
Y0398D03*
G54D36*
X0548Y0249D03*
X0609D03*
X0548Y0407D03*
X0609D03*
G54D37*
X02333Y04259D03*
G54D38*
X0243Y04259D03*
X02533D03*
X02633D03*
X02733D03*
X02833D03*
X02933D03*
X03033D03*
X03133D03*
X03233D03*
X03333D03*
X03433D03*
X03533D03*
X03633D03*
X03733D03*
X03833D03*
G54D39*
X02117Y0424D03*
Y03019D03*
X0507Y0424D03*
Y03019D03*
G54D40*
X0357Y01395D03*
X0327D03*
X0641Y0353D03*
Y0323D03*
X0302Y01395D03*
X0272D03*
X04245D03*
X03945D03*
X0473D03*
X0443D03*
X05755Y02035D03*
X06055D03*
G54D41*
X0666Y03925D03*
G54D42*
X0646Y03925D03*
G54D43*
X05495Y0203D03*
G54D44*
X05395Y0203D03*
G54D45*
X0307Y01605D03*
X03745D03*
X041Y0267D03*
G54D46*
X0317Y01605D03*
X0327D03*
X0337D03*
X0347D03*
X0307Y02205D03*
X0317D03*
X0327D03*
X0337D03*
X0347D03*
X0287Y01605D03*
Y01705D03*
Y01805D03*
Y01905D03*
Y02005D03*
Y02105D03*
Y02205D03*
Y02305D03*
X0257Y01605D03*
Y01705D03*
Y01805D03*
Y01905D03*
Y02005D03*
Y02105D03*
Y02205D03*
X03845Y01605D03*
X03945D03*
X04045D03*
X04145D03*
X03745Y02205D03*
X03845D03*
X03945D03*
X04045D03*
X04145D03*
X034Y0237D03*
X035D03*
X036D03*
X037D03*
X038D03*
X039D03*
X04D03*
X041D03*
X034Y0267D03*
X035D03*
X036D03*
X037D03*
X038D03*
X039D03*
X04D03*
G54D47*
X0513Y04515D03*
X0518D03*
X04835D03*
X04885D03*
G54D48*
X0523Y04515D03*
X04935D03*
G54D49*
X0257Y02305D03*
M02*