%FSTAX23Y23*%
%MOIN*%
%SFA1B1*%

%IPPOS*%
%ADD55C,0.002008*%
%ADD56C,0.002677*%
%ADD57C,0.001339*%
%LNpcb_baja_teste-1*%
%LPD*%
G54D55*
X06652Y01287D02*
Y01302D01*
X06667*
Y01287*
X06652*
X01857D02*
Y01302D01*
X01872*
Y01287*
X01857*
X01842Y04772D02*
Y04787D01*
X01857*
Y04772*
X01842*
X06702Y04762D02*
Y04777D01*
X06717*
Y04762*
X06702*
X05485Y03972D02*
X05477Y03987D01*
X05492*
X05485Y03972*
Y03872D02*
X05477Y03887D01*
X05492*
X05485Y03872*
Y03772D02*
X05477Y03787D01*
X05492*
X05485Y03772*
Y03672D02*
X05477Y03687D01*
X05492*
X05485Y03672*
Y03572D02*
X05477Y03587D01*
X05492*
X05485Y03572*
Y03472D02*
X05477Y03487D01*
X05492*
X05485Y03472*
Y03372D02*
X05477Y03387D01*
X05492*
X05485Y03372*
Y03272D02*
X05477Y03287D01*
X05492*
X05485Y03272*
Y03172D02*
X05477Y03187D01*
X05492*
X05485Y03172*
Y03072D02*
X05477Y03087D01*
X05492*
X05485Y03072*
Y02972D02*
X05477Y02987D01*
X05492*
X05485Y02972*
Y02872D02*
X05477Y02887D01*
X05492*
X05485Y02872*
Y02772D02*
X05477Y02787D01*
X05492*
X05485Y02772*
Y02672D02*
X05477Y02687D01*
X05492*
X05485Y02672*
Y02572D02*
X05477Y02587D01*
X05492*
X05485Y02572*
X06085D02*
X06077Y02587D01*
X06092*
X06085Y02572*
Y02672D02*
X06077Y02687D01*
X06092*
X06085Y02672*
Y02772D02*
X06077Y02787D01*
X06092*
X06085Y02772*
Y02872D02*
X06077Y02887D01*
X06092*
X06085Y02872*
Y02972D02*
X06077Y02987D01*
X06092*
X06085Y02972*
Y03072D02*
X06077Y03087D01*
X06092*
X06085Y03072*
Y03172D02*
X06077Y03187D01*
X06092*
X06085Y03172*
Y03272D02*
X06077Y03287D01*
X06092*
X06085Y03272*
Y03372D02*
X06077Y03387D01*
X06092*
X06085Y03372*
Y03472D02*
X06077Y03487D01*
X06092*
X06085Y03472*
Y03572D02*
X06077Y03587D01*
X06092*
X06085Y03572*
Y03672D02*
X06077Y03687D01*
X06092*
X06085Y03672*
Y03772D02*
X06077Y03787D01*
X06092*
X06085Y03772*
Y03872D02*
X06077Y03887D01*
X06092*
X06085Y03872*
Y03972D02*
X06077Y03987D01*
X06092*
X06085Y03972*
X0548Y02482D02*
X05484Y02485D01*
X05487*
X05484Y0249*
X05487Y02494*
X05484*
X0548Y02497*
X05475Y02494*
X05472*
X05475Y0249*
X05472Y02485*
X05475*
X0548Y02482*
X0609D02*
X06094Y02485D01*
X06097*
X06094Y0249*
X06097Y02494*
X06094*
X0609Y02497*
X06085Y02494*
X06082*
X06085Y0249*
X06082Y02485*
X06085*
X0609Y02482*
X0548Y04062D02*
X05484Y04065D01*
X05487*
X05484Y0407*
X05487Y04074*
X05484*
X0548Y04077*
X05475Y04074*
X05472*
X05475Y0407*
X05472Y04065*
X05475*
X0548Y04062*
X0609D02*
X06094Y04065D01*
X06097*
X06094Y0407*
X06097Y04074*
X06094*
X0609Y04077*
X06085Y04074*
X06082*
X06085Y0407*
X06082Y04065*
X06085*
X0609Y04062*
X02325Y04251D02*
X02329Y04259D01*
X02325Y04267*
X02333Y04263*
X02341Y04267*
X02337Y04259*
X02341Y04251*
X02333Y04255*
X02325Y04251*
X02422D02*
X02426Y04259D01*
X02422Y04267*
X0243Y04263*
X02438Y04267*
X02434Y04259*
X02438Y04251*
X0243Y04255*
X02422Y04251*
X02525D02*
X02529Y04259D01*
X02525Y04267*
X02533Y04263*
X02541Y04267*
X02537Y04259*
X02541Y04251*
X02533Y04255*
X02525Y04251*
X02625D02*
X02629Y04259D01*
X02625Y04267*
X02633Y04263*
X02641Y04267*
X02637Y04259*
X02641Y04251*
X02633Y04255*
X02625Y04251*
X02725D02*
X02729Y04259D01*
X02725Y04267*
X02733Y04263*
X02741Y04267*
X02737Y04259*
X02741Y04251*
X02733Y04255*
X02725Y04251*
X02825D02*
X02829Y04259D01*
X02825Y04267*
X02833Y04263*
X02841Y04267*
X02837Y04259*
X02841Y04251*
X02833Y04255*
X02825Y04251*
X02925D02*
X02929Y04259D01*
X02925Y04267*
X02933Y04263*
X02941Y04267*
X02937Y04259*
X02941Y04251*
X02933Y04255*
X02925Y04251*
X03025D02*
X03029Y04259D01*
X03025Y04267*
X03033Y04263*
X03041Y04267*
X03037Y04259*
X03041Y04251*
X03033Y04255*
X03025Y04251*
X03125D02*
X03129Y04259D01*
X03125Y04267*
X03133Y04263*
X03141Y04267*
X03137Y04259*
X03141Y04251*
X03133Y04255*
X03125Y04251*
X03225D02*
X03229Y04259D01*
X03225Y04267*
X03233Y04263*
X03241Y04267*
X03237Y04259*
X03241Y04251*
X03233Y04255*
X03225Y04251*
X03325D02*
X03329Y04259D01*
X03325Y04267*
X03333Y04263*
X03341Y04267*
X03337Y04259*
X03341Y04251*
X03333Y04255*
X03325Y04251*
X03425D02*
X03429Y04259D01*
X03425Y04267*
X03433Y04263*
X03441Y04267*
X03437Y04259*
X03441Y04251*
X03433Y04255*
X03425Y04251*
X03525D02*
X03529Y04259D01*
X03525Y04267*
X03533Y04263*
X03541Y04267*
X03537Y04259*
X03541Y04251*
X03533Y04255*
X03525Y04251*
X03625D02*
X03629Y04259D01*
X03625Y04267*
X03633Y04263*
X03641Y04267*
X03637Y04259*
X03641Y04251*
X03633Y04255*
X03625Y04251*
X03725D02*
X03729Y04259D01*
X03725Y04267*
X03733Y04263*
X03741Y04267*
X03737Y04259*
X03741Y04251*
X03733Y04255*
X03725Y04251*
X03825D02*
X03829Y04259D01*
X03825Y04267*
X03833Y04263*
X03841Y04267*
X03837Y04259*
X03841Y04251*
X03833Y04255*
X03825Y04251*
X02113Y04235D02*
Y04232D01*
X02121*
Y04235*
X02125*
Y04244*
X02121*
Y04247*
X02113*
Y04244*
X02109*
Y04235*
X02113*
Y03015D02*
Y03011D01*
X02121*
Y03015*
X02125*
Y03023*
X02121*
Y03027*
X02113*
Y03023*
X02109*
Y03015*
X02113*
X05065Y04235D02*
Y04232D01*
X05074*
Y04235*
X05077*
Y04244*
X05074*
Y04247*
X05065*
Y04244*
X05062*
Y04235*
X05065*
Y03015D02*
Y03011D01*
X05074*
Y03015*
X05077*
Y03023*
X05074*
Y03027*
X05065*
Y03023*
X05062*
Y03015*
X05065*
X03562Y01387D02*
X03565D01*
X0357Y0139*
X03574Y01387*
X03577*
Y0139*
X03574Y01395*
X03577Y01399*
Y01402*
X03574*
X0357Y01399*
X03565Y01402*
X03562*
Y01399*
X03565Y01395*
X03562Y0139*
Y01387*
X03262D02*
X03265D01*
X0327Y0139*
X03274Y01387*
X03277*
Y0139*
X03274Y01395*
X03277Y01399*
Y01402*
X03274*
X0327Y01399*
X03265Y01402*
X03262*
Y01399*
X03265Y01395*
X03262Y0139*
Y01387*
X0666Y03917D02*
X06652Y03932D01*
X06667*
X0666Y03917*
X0646D02*
X06452Y03932D01*
X06467*
X0646Y03917*
X05487Y0203D02*
X05495Y02037D01*
X05502Y0203*
X05495Y02022*
X05487Y0203*
X05395Y02022D02*
X05387Y02037D01*
X05402*
X05395Y02022*
X03062Y01597D02*
Y01612D01*
X03077*
Y01597*
X03062*
X03065Y016D02*
Y01609D01*
X03074*
Y016*
X03065*
X03162Y01597D02*
Y01612D01*
X03177*
Y01597*
X03162*
X03165Y016D02*
Y01609D01*
X03174*
Y016*
X03165*
X03262Y01597D02*
Y01612D01*
X03277*
Y01597*
X03262*
X03265Y016D02*
Y01609D01*
X03274*
Y016*
X03265*
X03362Y01597D02*
Y01612D01*
X03377*
Y01597*
X03362*
X03365Y016D02*
Y01609D01*
X03374*
Y016*
X03365*
X03462Y01597D02*
Y01612D01*
X03477*
Y01597*
X03462*
X03465Y016D02*
Y01609D01*
X03474*
Y016*
X03465*
X03062Y02197D02*
Y02212D01*
X03077*
Y02197*
X03062*
X03065Y022D02*
Y02209D01*
X03074*
Y022*
X03065*
X03162Y02197D02*
Y02212D01*
X03177*
Y02197*
X03162*
X03165Y022D02*
Y02209D01*
X03174*
Y022*
X03165*
X03262Y02197D02*
Y02212D01*
X03277*
Y02197*
X03262*
X03265Y022D02*
Y02209D01*
X03274*
Y022*
X03265*
X03362Y02197D02*
Y02212D01*
X03377*
Y02197*
X03362*
X03365Y022D02*
Y02209D01*
X03374*
Y022*
X03365*
X03462Y02197D02*
Y02212D01*
X03477*
Y02197*
X03462*
X03465Y022D02*
Y02209D01*
X03474*
Y022*
X03465*
X06402Y03522D02*
X06405D01*
X0641Y03525*
X06414Y03522*
X06417*
Y03525*
X06414Y0353*
X06417Y03534*
Y03537*
X06414*
X0641Y03534*
X06405Y03537*
X06402*
Y03534*
X06405Y0353*
X06402Y03525*
Y03522*
Y03222D02*
X06405D01*
X0641Y03225*
X06414Y03222*
X06417*
Y03225*
X06414Y0323*
X06417Y03234*
Y03237*
X06414*
X0641Y03234*
X06405Y03237*
X06402*
Y03234*
X06405Y0323*
X06402Y03225*
Y03222*
X02862Y01597D02*
Y01612D01*
X02877*
Y01597*
X02862*
X02865Y016D02*
Y01609D01*
X02874*
Y016*
X02865*
X02862Y01697D02*
Y01712D01*
X02877*
Y01697*
X02862*
X02865Y017D02*
Y01709D01*
X02874*
Y017*
X02865*
X02862Y01797D02*
Y01812D01*
X02877*
Y01797*
X02862*
X02865Y018D02*
Y01809D01*
X02874*
Y018*
X02865*
X02862Y01897D02*
Y01912D01*
X02877*
Y01897*
X02862*
X02865Y019D02*
Y01909D01*
X02874*
Y019*
X02865*
X02862Y01997D02*
Y02012D01*
X02877*
Y01997*
X02862*
X02865Y02D02*
Y02009D01*
X02874*
Y02*
X02865*
X02862Y02097D02*
Y02112D01*
X02877*
Y02097*
X02862*
X02865Y021D02*
Y02109D01*
X02874*
Y021*
X02865*
X02862Y02197D02*
Y02212D01*
X02877*
Y02197*
X02862*
X02865Y022D02*
Y02209D01*
X02874*
Y022*
X02865*
X02862Y02297D02*
Y02312D01*
X02877*
Y02297*
X02862*
X02865Y023D02*
Y02309D01*
X02874*
Y023*
X02865*
X02562Y01597D02*
Y01612D01*
X02577*
Y01597*
X02562*
X02565Y016D02*
Y01609D01*
X02574*
Y016*
X02565*
X02562Y01697D02*
Y01712D01*
X02577*
Y01697*
X02562*
X02565Y017D02*
Y01709D01*
X02574*
Y017*
X02565*
X02562Y01797D02*
Y01812D01*
X02577*
Y01797*
X02562*
X02565Y018D02*
Y01809D01*
X02574*
Y018*
X02565*
X02562Y01897D02*
Y01912D01*
X02577*
Y01897*
X02562*
X02565Y019D02*
Y01909D01*
X02574*
Y019*
X02565*
X02562Y01997D02*
Y02012D01*
X02577*
Y01997*
X02562*
X02565Y02D02*
Y02009D01*
X02574*
Y02*
X02565*
X02562Y02097D02*
Y02112D01*
X02577*
Y02097*
X02562*
X02565Y021D02*
Y02109D01*
X02574*
Y021*
X02565*
X02562Y02197D02*
Y02212D01*
X02577*
Y02197*
X02562*
X02565Y022D02*
Y02209D01*
X02574*
Y022*
X02565*
X02562Y02297D02*
Y02312D01*
X02577*
Y02297*
X02562*
X02565Y023D02*
Y02309D01*
X02574*
Y023*
X02565*
X03012Y01387D02*
X03015D01*
X0302Y0139*
X03024Y01387*
X03027*
Y0139*
X03024Y01395*
X03027Y01399*
Y01402*
X03024*
X0302Y01399*
X03015Y01402*
X03012*
Y01399*
X03015Y01395*
X03012Y0139*
Y01387*
X02712D02*
X02715D01*
X0272Y0139*
X02724Y01387*
X02727*
Y0139*
X02724Y01395*
X02727Y01399*
Y01402*
X02724*
X0272Y01399*
X02715Y01402*
X02712*
Y01399*
X02715Y01395*
X02712Y0139*
Y01387*
X03737Y01597D02*
Y01612D01*
X03752*
Y01597*
X03737*
X0374Y016D02*
Y01609D01*
X03749*
Y016*
X0374*
X03837Y01597D02*
Y01612D01*
X03852*
Y01597*
X03837*
X0384Y016D02*
Y01609D01*
X03849*
Y016*
X0384*
X03937Y01597D02*
Y01612D01*
X03952*
Y01597*
X03937*
X0394Y016D02*
Y01609D01*
X03949*
Y016*
X0394*
X04037Y01597D02*
Y01612D01*
X04052*
Y01597*
X04037*
X0404Y016D02*
Y01609D01*
X04049*
Y016*
X0404*
X04137Y01597D02*
Y01612D01*
X04152*
Y01597*
X04137*
X0414Y016D02*
Y01609D01*
X04149*
Y016*
X0414*
X03737Y02197D02*
Y02212D01*
X03752*
Y02197*
X03737*
X0374Y022D02*
Y02209D01*
X03749*
Y022*
X0374*
X03837Y02197D02*
Y02212D01*
X03852*
Y02197*
X03837*
X0384Y022D02*
Y02209D01*
X03849*
Y022*
X0384*
X03937Y02197D02*
Y02212D01*
X03952*
Y02197*
X03937*
X0394Y022D02*
Y02209D01*
X03949*
Y022*
X0394*
X04037Y02197D02*
Y02212D01*
X04052*
Y02197*
X04037*
X0404Y022D02*
Y02209D01*
X04049*
Y022*
X0404*
X04137Y02197D02*
Y02212D01*
X04152*
Y02197*
X04137*
X0414Y022D02*
Y02209D01*
X04149*
Y022*
X0414*
X03392Y02362D02*
Y02377D01*
X03407*
Y02362*
X03392*
X03395Y02365D02*
Y02374D01*
X03404*
Y02365*
X03395*
X03492Y02362D02*
Y02377D01*
X03507*
Y02362*
X03492*
X03495Y02365D02*
Y02374D01*
X03504*
Y02365*
X03495*
X03592Y02362D02*
Y02377D01*
X03607*
Y02362*
X03592*
X03595Y02365D02*
Y02374D01*
X03604*
Y02365*
X03595*
X03692Y02362D02*
Y02377D01*
X03707*
Y02362*
X03692*
X03695Y02365D02*
Y02374D01*
X03704*
Y02365*
X03695*
X03792Y02362D02*
Y02377D01*
X03807*
Y02362*
X03792*
X03795Y02365D02*
Y02374D01*
X03804*
Y02365*
X03795*
X03892Y02362D02*
Y02377D01*
X03907*
Y02362*
X03892*
X03895Y02365D02*
Y02374D01*
X03904*
Y02365*
X03895*
X03992Y02362D02*
Y02377D01*
X04007*
Y02362*
X03992*
X03995Y02365D02*
Y02374D01*
X04004*
Y02365*
X03995*
X04092Y02362D02*
Y02377D01*
X04107*
Y02362*
X04092*
X04095Y02365D02*
Y02374D01*
X04104*
Y02365*
X04095*
X03392Y02662D02*
Y02677D01*
X03407*
Y02662*
X03392*
X03395Y02665D02*
Y02674D01*
X03404*
Y02665*
X03395*
X03492Y02662D02*
Y02677D01*
X03507*
Y02662*
X03492*
X03495Y02665D02*
Y02674D01*
X03504*
Y02665*
X03495*
X03592Y02662D02*
Y02677D01*
X03607*
Y02662*
X03592*
X03595Y02665D02*
Y02674D01*
X03604*
Y02665*
X03595*
X03692Y02662D02*
Y02677D01*
X03707*
Y02662*
X03692*
X03695Y02665D02*
Y02674D01*
X03704*
Y02665*
X03695*
X03792Y02662D02*
Y02677D01*
X03807*
Y02662*
X03792*
X03795Y02665D02*
Y02674D01*
X03804*
Y02665*
X03795*
X03892Y02662D02*
Y02677D01*
X03907*
Y02662*
X03892*
X03895Y02665D02*
Y02674D01*
X03904*
Y02665*
X03895*
X03992Y02662D02*
Y02677D01*
X04007*
Y02662*
X03992*
X03995Y02665D02*
Y02674D01*
X04004*
Y02665*
X03995*
X04092Y02662D02*
Y02677D01*
X04107*
Y02662*
X04092*
X04095Y02665D02*
Y02674D01*
X04104*
Y02665*
X04095*
X04237Y01387D02*
X0424D01*
X04245Y0139*
X04249Y01387*
X04252*
Y0139*
X04249Y01395*
X04252Y01399*
Y01402*
X04249*
X04245Y01399*
X0424Y01402*
X04237*
Y01399*
X0424Y01395*
X04237Y0139*
Y01387*
X03937D02*
X0394D01*
X03945Y0139*
X03949Y01387*
X03952*
Y0139*
X03949Y01395*
X03952Y01399*
Y01402*
X03949*
X03945Y01399*
X0394Y01402*
X03937*
Y01399*
X0394Y01395*
X03937Y0139*
Y01387*
X04722D02*
X04725D01*
X0473Y0139*
X04734Y01387*
X04737*
Y0139*
X04734Y01395*
X04737Y01399*
Y01402*
X04734*
X0473Y01399*
X04725Y01402*
X04722*
Y01399*
X04725Y01395*
X04722Y0139*
Y01387*
X04422D02*
X04425D01*
X0443Y0139*
X04434Y01387*
X04437*
Y0139*
X04434Y01395*
X04437Y01399*
Y01402*
X04434*
X0443Y01399*
X04425Y01402*
X04422*
Y01399*
X04425Y01395*
X04422Y0139*
Y01387*
X05747Y02027D02*
X0575D01*
X05755Y0203*
X05759Y02027*
X05762*
Y0203*
X05759Y02035*
X05762Y02039*
Y02042*
X05759*
X05755Y02039*
X0575Y02042*
X05747*
Y02039*
X0575Y02035*
X05747Y0203*
Y02027*
X06047D02*
X0605D01*
X06055Y0203*
X06059Y02027*
X06062*
Y0203*
X06059Y02035*
X06062Y02039*
Y02042*
X06059*
X06055Y02039*
X0605Y02042*
X06047*
Y02039*
X0605Y02035*
X06047Y0203*
Y02027*
G54D56*
X06797Y03795D02*
D01*
X06797Y03795*
X06797Y03796*
X06797Y03796*
X06797Y03797*
X06797Y03797*
X06797Y03798*
X06797Y03798*
X06796Y03799*
X06796Y03799*
X06796Y038*
X06795Y038*
X06795Y038*
X06794Y03801*
X06794Y03801*
X06793Y03801*
X06793Y03802*
X06792Y03802*
X06792Y03802*
X06791Y03802*
X06791Y03802*
X0679Y03802*
X0679Y03802*
X06789*
X06789Y03802*
X06788Y03802*
X06788Y03802*
X06787Y03802*
X06787Y03802*
X06786Y03802*
X06786Y03801*
X06785Y03801*
X06785Y03801*
X06784Y038*
X06784Y038*
X06783Y038*
X06783Y03799*
X06783Y03799*
X06782Y03798*
X06782Y03798*
X06782Y03797*
X06782Y03797*
X06782Y03796*
X06782Y03796*
X06782Y03795*
X06782Y03795*
X06782Y03794*
X06782Y03793*
X06782Y03793*
X06782Y03792*
X06782Y03792*
X06782Y03791*
X06782Y03791*
X06783Y0379*
X06783Y0379*
X06783Y03789*
X06784Y03789*
X06784Y03789*
X06785Y03788*
X06785Y03788*
X06786Y03788*
X06786Y03787*
X06787Y03787*
X06787Y03787*
X06788Y03787*
X06788Y03787*
X06789Y03787*
X06789Y03787*
X0679*
X0679Y03787*
X06791Y03787*
X06791Y03787*
X06792Y03787*
X06792Y03787*
X06793Y03787*
X06793Y03788*
X06794Y03788*
X06794Y03788*
X06795Y03789*
X06795Y03789*
X06796Y03789*
X06796Y0379*
X06796Y0379*
X06797Y03791*
X06797Y03791*
X06797Y03792*
X06797Y03792*
X06797Y03793*
X06797Y03793*
X06797Y03794*
X06797Y03795*
X06567Y04075D02*
D01*
X06567Y04075*
X06567Y04076*
X06567Y04076*
X06567Y04077*
X06567Y04077*
X06567Y04078*
X06567Y04078*
X06566Y04079*
X06566Y04079*
X06566Y0408*
X06565Y0408*
X06565Y0408*
X06564Y04081*
X06564Y04081*
X06563Y04081*
X06563Y04082*
X06562Y04082*
X06562Y04082*
X06561Y04082*
X06561Y04082*
X0656Y04082*
X0656Y04082*
X06559*
X06559Y04082*
X06558Y04082*
X06558Y04082*
X06557Y04082*
X06557Y04082*
X06556Y04082*
X06556Y04081*
X06555Y04081*
X06555Y04081*
X06554Y0408*
X06554Y0408*
X06553Y0408*
X06553Y04079*
X06553Y04079*
X06552Y04078*
X06552Y04078*
X06552Y04077*
X06552Y04077*
X06552Y04076*
X06552Y04076*
X06552Y04075*
X06552Y04075*
X06552Y04074*
X06552Y04073*
X06552Y04073*
X06552Y04072*
X06552Y04072*
X06552Y04071*
X06552Y04071*
X06553Y0407*
X06553Y0407*
X06553Y04069*
X06554Y04069*
X06554Y04069*
X06555Y04068*
X06555Y04068*
X06556Y04068*
X06556Y04067*
X06557Y04067*
X06557Y04067*
X06558Y04067*
X06558Y04067*
X06559Y04067*
X06559Y04067*
X0656*
X0656Y04067*
X06561Y04067*
X06561Y04067*
X06562Y04067*
X06562Y04067*
X06563Y04067*
X06563Y04068*
X06564Y04068*
X06564Y04068*
X06565Y04069*
X06565Y04069*
X06566Y04069*
X06566Y0407*
X06566Y0407*
X06567Y04071*
X06567Y04071*
X06567Y04072*
X06567Y04072*
X06567Y04073*
X06567Y04073*
X06567Y04074*
X06567Y04075*
X06667D02*
D01*
X06667Y04075*
X06667Y04076*
X06667Y04076*
X06667Y04077*
X06667Y04077*
X06667Y04078*
X06667Y04078*
X06666Y04079*
X06666Y04079*
X06666Y0408*
X06665Y0408*
X06665Y0408*
X06664Y04081*
X06664Y04081*
X06663Y04081*
X06663Y04082*
X06662Y04082*
X06662Y04082*
X06661Y04082*
X06661Y04082*
X0666Y04082*
X0666Y04082*
X06659*
X06659Y04082*
X06658Y04082*
X06658Y04082*
X06657Y04082*
X06657Y04082*
X06656Y04082*
X06656Y04081*
X06655Y04081*
X06655Y04081*
X06654Y0408*
X06654Y0408*
X06653Y0408*
X06653Y04079*
X06653Y04079*
X06652Y04078*
X06652Y04078*
X06652Y04077*
X06652Y04077*
X06652Y04076*
X06652Y04076*
X06652Y04075*
X06652Y04075*
X06652Y04074*
X06652Y04073*
X06652Y04073*
X06652Y04072*
X06652Y04072*
X06652Y04071*
X06652Y04071*
X06653Y0407*
X06653Y0407*
X06653Y04069*
X06654Y04069*
X06654Y04069*
X06655Y04068*
X06655Y04068*
X06656Y04068*
X06656Y04067*
X06657Y04067*
X06657Y04067*
X06658Y04067*
X06658Y04067*
X06659Y04067*
X06659Y04067*
X0666*
X0666Y04067*
X06661Y04067*
X06661Y04067*
X06662Y04067*
X06662Y04067*
X06663Y04067*
X06663Y04068*
X06664Y04068*
X06664Y04068*
X06665Y04069*
X06665Y04069*
X06666Y04069*
X06666Y0407*
X06666Y0407*
X06667Y04071*
X06667Y04071*
X06667Y04072*
X06667Y04072*
X06667Y04073*
X06667Y04073*
X06667Y04074*
X06667Y04075*
X06467D02*
D01*
X06467Y04075*
X06467Y04076*
X06467Y04076*
X06467Y04077*
X06467Y04077*
X06467Y04078*
X06467Y04078*
X06466Y04079*
X06466Y04079*
X06466Y0408*
X06465Y0408*
X06465Y0408*
X06464Y04081*
X06464Y04081*
X06463Y04081*
X06463Y04082*
X06462Y04082*
X06462Y04082*
X06461Y04082*
X06461Y04082*
X0646Y04082*
X0646Y04082*
X06459*
X06459Y04082*
X06458Y04082*
X06458Y04082*
X06457Y04082*
X06457Y04082*
X06456Y04082*
X06456Y04081*
X06455Y04081*
X06455Y04081*
X06454Y0408*
X06454Y0408*
X06453Y0408*
X06453Y04079*
X06453Y04079*
X06452Y04078*
X06452Y04078*
X06452Y04077*
X06452Y04077*
X06452Y04076*
X06452Y04076*
X06452Y04075*
X06452Y04075*
X06452Y04074*
X06452Y04073*
X06452Y04073*
X06452Y04072*
X06452Y04072*
X06452Y04071*
X06452Y04071*
X06453Y0407*
X06453Y0407*
X06453Y04069*
X06454Y04069*
X06454Y04069*
X06455Y04068*
X06455Y04068*
X06456Y04068*
X06456Y04067*
X06457Y04067*
X06457Y04067*
X06458Y04067*
X06458Y04067*
X06459Y04067*
X06459Y04067*
X0646*
X0646Y04067*
X06461Y04067*
X06461Y04067*
X06462Y04067*
X06462Y04067*
X06463Y04067*
X06463Y04068*
X06464Y04068*
X06464Y04068*
X06465Y04069*
X06465Y04069*
X06466Y04069*
X06466Y0407*
X06466Y0407*
X06467Y04071*
X06467Y04071*
X06467Y04072*
X06467Y04072*
X06467Y04073*
X06467Y04073*
X06467Y04074*
X06467Y04075*
X06567Y04225D02*
D01*
X06567Y04225*
X06567Y04226*
X06567Y04226*
X06567Y04227*
X06567Y04227*
X06567Y04228*
X06567Y04228*
X06566Y04229*
X06566Y04229*
X06566Y0423*
X06565Y0423*
X06565Y0423*
X06564Y04231*
X06564Y04231*
X06563Y04231*
X06563Y04232*
X06562Y04232*
X06562Y04232*
X06561Y04232*
X06561Y04232*
X0656Y04232*
X0656Y04232*
X06559*
X06559Y04232*
X06558Y04232*
X06558Y04232*
X06557Y04232*
X06557Y04232*
X06556Y04232*
X06556Y04231*
X06555Y04231*
X06555Y04231*
X06554Y0423*
X06554Y0423*
X06553Y0423*
X06553Y04229*
X06553Y04229*
X06552Y04228*
X06552Y04228*
X06552Y04227*
X06552Y04227*
X06552Y04226*
X06552Y04226*
X06552Y04225*
X06552Y04225*
X06552Y04224*
X06552Y04223*
X06552Y04223*
X06552Y04222*
X06552Y04222*
X06552Y04221*
X06552Y04221*
X06553Y0422*
X06553Y0422*
X06553Y04219*
X06554Y04219*
X06554Y04219*
X06555Y04218*
X06555Y04218*
X06556Y04218*
X06556Y04217*
X06557Y04217*
X06557Y04217*
X06558Y04217*
X06558Y04217*
X06559Y04217*
X06559Y04217*
X0656*
X0656Y04217*
X06561Y04217*
X06561Y04217*
X06562Y04217*
X06562Y04217*
X06563Y04217*
X06563Y04218*
X06564Y04218*
X06564Y04218*
X06565Y04219*
X06565Y04219*
X06566Y04219*
X06566Y0422*
X06566Y0422*
X06567Y04221*
X06567Y04221*
X06567Y04222*
X06567Y04222*
X06567Y04223*
X06567Y04223*
X06567Y04224*
X06567Y04225*
X06667D02*
D01*
X06667Y04225*
X06667Y04226*
X06667Y04226*
X06667Y04227*
X06667Y04227*
X06667Y04228*
X06667Y04228*
X06666Y04229*
X06666Y04229*
X06666Y0423*
X06665Y0423*
X06665Y0423*
X06664Y04231*
X06664Y04231*
X06663Y04231*
X06663Y04232*
X06662Y04232*
X06662Y04232*
X06661Y04232*
X06661Y04232*
X0666Y04232*
X0666Y04232*
X06659*
X06659Y04232*
X06658Y04232*
X06658Y04232*
X06657Y04232*
X06657Y04232*
X06656Y04232*
X06656Y04231*
X06655Y04231*
X06655Y04231*
X06654Y0423*
X06654Y0423*
X06653Y0423*
X06653Y04229*
X06653Y04229*
X06652Y04228*
X06652Y04228*
X06652Y04227*
X06652Y04227*
X06652Y04226*
X06652Y04226*
X06652Y04225*
X06652Y04225*
X06652Y04224*
X06652Y04223*
X06652Y04223*
X06652Y04222*
X06652Y04222*
X06652Y04221*
X06652Y04221*
X06653Y0422*
X06653Y0422*
X06653Y04219*
X06654Y04219*
X06654Y04219*
X06655Y04218*
X06655Y04218*
X06656Y04218*
X06656Y04217*
X06657Y04217*
X06657Y04217*
X06658Y04217*
X06658Y04217*
X06659Y04217*
X06659Y04217*
X0666*
X0666Y04217*
X06661Y04217*
X06661Y04217*
X06662Y04217*
X06662Y04217*
X06663Y04217*
X06663Y04218*
X06664Y04218*
X06664Y04218*
X06665Y04219*
X06665Y04219*
X06666Y04219*
X06666Y0422*
X06666Y0422*
X06667Y04221*
X06667Y04221*
X06667Y04222*
X06667Y04222*
X06667Y04223*
X06667Y04223*
X06667Y04224*
X06667Y04225*
X06467D02*
D01*
X06467Y04225*
X06467Y04226*
X06467Y04226*
X06467Y04227*
X06467Y04227*
X06467Y04228*
X06467Y04228*
X06466Y04229*
X06466Y04229*
X06466Y0423*
X06465Y0423*
X06465Y0423*
X06464Y04231*
X06464Y04231*
X06463Y04231*
X06463Y04232*
X06462Y04232*
X06462Y04232*
X06461Y04232*
X06461Y04232*
X0646Y04232*
X0646Y04232*
X06459*
X06459Y04232*
X06458Y04232*
X06458Y04232*
X06457Y04232*
X06457Y04232*
X06456Y04232*
X06456Y04231*
X06455Y04231*
X06455Y04231*
X06454Y0423*
X06454Y0423*
X06453Y0423*
X06453Y04229*
X06453Y04229*
X06452Y04228*
X06452Y04228*
X06452Y04227*
X06452Y04227*
X06452Y04226*
X06452Y04226*
X06452Y04225*
X06452Y04225*
X06452Y04224*
X06452Y04223*
X06452Y04223*
X06452Y04222*
X06452Y04222*
X06452Y04221*
X06452Y04221*
X06453Y0422*
X06453Y0422*
X06453Y04219*
X06454Y04219*
X06454Y04219*
X06455Y04218*
X06455Y04218*
X06456Y04218*
X06456Y04217*
X06457Y04217*
X06457Y04217*
X06458Y04217*
X06458Y04217*
X06459Y04217*
X06459Y04217*
X0646*
X0646Y04217*
X06461Y04217*
X06461Y04217*
X06462Y04217*
X06462Y04217*
X06463Y04217*
X06463Y04218*
X06464Y04218*
X06464Y04218*
X06465Y04219*
X06465Y04219*
X06466Y04219*
X06466Y0422*
X06466Y0422*
X06467Y04221*
X06467Y04221*
X06467Y04222*
X06467Y04222*
X06467Y04223*
X06467Y04223*
X06467Y04224*
X06467Y04225*
X06552Y0343D02*
D01*
X06552Y0343*
X06552Y03431*
X06552Y03431*
X06552Y03432*
X06552Y03432*
X06552Y03433*
X06552Y03433*
X06551Y03434*
X06551Y03434*
X06551Y03435*
X0655Y03435*
X0655Y03435*
X06549Y03436*
X06549Y03436*
X06548Y03436*
X06548Y03437*
X06547Y03437*
X06547Y03437*
X06546Y03437*
X06546Y03437*
X06545Y03437*
X06545Y03437*
X06544*
X06544Y03437*
X06543Y03437*
X06543Y03437*
X06542Y03437*
X06542Y03437*
X06541Y03437*
X06541Y03436*
X0654Y03436*
X0654Y03436*
X06539Y03435*
X06539Y03435*
X06538Y03435*
X06538Y03434*
X06538Y03434*
X06537Y03433*
X06537Y03433*
X06537Y03432*
X06537Y03432*
X06537Y03431*
X06537Y03431*
X06537Y0343*
X06537Y0343*
X06537Y03429*
X06537Y03428*
X06537Y03428*
X06537Y03427*
X06537Y03427*
X06537Y03426*
X06537Y03426*
X06538Y03425*
X06538Y03425*
X06538Y03424*
X06539Y03424*
X06539Y03424*
X0654Y03423*
X0654Y03423*
X06541Y03423*
X06541Y03422*
X06542Y03422*
X06542Y03422*
X06543Y03422*
X06543Y03422*
X06544Y03422*
X06544Y03422*
X06545*
X06545Y03422*
X06546Y03422*
X06546Y03422*
X06547Y03422*
X06547Y03422*
X06548Y03422*
X06548Y03423*
X06549Y03423*
X06549Y03423*
X0655Y03424*
X0655Y03424*
X06551Y03424*
X06551Y03425*
X06551Y03425*
X06552Y03426*
X06552Y03426*
X06552Y03427*
X06552Y03427*
X06552Y03428*
X06552Y03428*
X06552Y03429*
X06552Y0343*
Y0333D02*
D01*
X06552Y0333*
X06552Y03331*
X06552Y03331*
X06552Y03332*
X06552Y03332*
X06552Y03333*
X06552Y03333*
X06551Y03334*
X06551Y03334*
X06551Y03335*
X0655Y03335*
X0655Y03335*
X06549Y03336*
X06549Y03336*
X06548Y03336*
X06548Y03337*
X06547Y03337*
X06547Y03337*
X06546Y03337*
X06546Y03337*
X06545Y03337*
X06545Y03337*
X06544*
X06544Y03337*
X06543Y03337*
X06543Y03337*
X06542Y03337*
X06542Y03337*
X06541Y03337*
X06541Y03336*
X0654Y03336*
X0654Y03336*
X06539Y03335*
X06539Y03335*
X06538Y03335*
X06538Y03334*
X06538Y03334*
X06537Y03333*
X06537Y03333*
X06537Y03332*
X06537Y03332*
X06537Y03331*
X06537Y03331*
X06537Y0333*
X06537Y0333*
X06537Y03329*
X06537Y03328*
X06537Y03328*
X06537Y03327*
X06537Y03327*
X06537Y03326*
X06537Y03326*
X06538Y03325*
X06538Y03325*
X06538Y03324*
X06539Y03324*
X06539Y03324*
X0654Y03323*
X0654Y03323*
X06541Y03323*
X06541Y03322*
X06542Y03322*
X06542Y03322*
X06543Y03322*
X06543Y03322*
X06544Y03322*
X06544Y03322*
X06545*
X06545Y03322*
X06546Y03322*
X06546Y03322*
X06547Y03322*
X06547Y03322*
X06548Y03322*
X06548Y03323*
X06549Y03323*
X06549Y03323*
X0655Y03324*
X0655Y03324*
X06551Y03324*
X06551Y03325*
X06551Y03325*
X06552Y03326*
X06552Y03326*
X06552Y03327*
X06552Y03327*
X06552Y03328*
X06552Y03328*
X06552Y03329*
X06552Y0333*
Y0353D02*
D01*
X06552Y0353*
X06552Y03531*
X06552Y03531*
X06552Y03532*
X06552Y03532*
X06552Y03533*
X06552Y03533*
X06551Y03534*
X06551Y03534*
X06551Y03535*
X0655Y03535*
X0655Y03535*
X06549Y03536*
X06549Y03536*
X06548Y03536*
X06548Y03537*
X06547Y03537*
X06547Y03537*
X06546Y03537*
X06546Y03537*
X06545Y03537*
X06545Y03537*
X06544*
X06544Y03537*
X06543Y03537*
X06543Y03537*
X06542Y03537*
X06542Y03537*
X06541Y03537*
X06541Y03536*
X0654Y03536*
X0654Y03536*
X06539Y03535*
X06539Y03535*
X06538Y03535*
X06538Y03534*
X06538Y03534*
X06537Y03533*
X06537Y03533*
X06537Y03532*
X06537Y03532*
X06537Y03531*
X06537Y03531*
X06537Y0353*
X06537Y0353*
X06537Y03529*
X06537Y03528*
X06537Y03528*
X06537Y03527*
X06537Y03527*
X06537Y03526*
X06537Y03526*
X06538Y03525*
X06538Y03525*
X06538Y03524*
X06539Y03524*
X06539Y03524*
X0654Y03523*
X0654Y03523*
X06541Y03523*
X06541Y03522*
X06542Y03522*
X06542Y03522*
X06543Y03522*
X06543Y03522*
X06544Y03522*
X06544Y03522*
X06545*
X06545Y03522*
X06546Y03522*
X06546Y03522*
X06547Y03522*
X06547Y03522*
X06548Y03522*
X06548Y03523*
X06549Y03523*
X06549Y03523*
X0655Y03524*
X0655Y03524*
X06551Y03524*
X06551Y03525*
X06551Y03525*
X06552Y03526*
X06552Y03526*
X06552Y03527*
X06552Y03527*
X06552Y03528*
X06552Y03528*
X06552Y03529*
X06552Y0353*
X05137Y04515D02*
D01*
X05137Y04515*
X05137Y04516*
X05137Y04516*
X05137Y04517*
X05137Y04517*
X05137Y04518*
X05137Y04518*
X05136Y04519*
X05136Y04519*
X05136Y0452*
X05135Y0452*
X05135Y0452*
X05134Y04521*
X05134Y04521*
X05133Y04521*
X05133Y04522*
X05132Y04522*
X05132Y04522*
X05131Y04522*
X05131Y04522*
X0513Y04522*
X0513Y04522*
X05129*
X05129Y04522*
X05128Y04522*
X05128Y04522*
X05127Y04522*
X05127Y04522*
X05126Y04522*
X05126Y04521*
X05125Y04521*
X05125Y04521*
X05124Y0452*
X05124Y0452*
X05123Y0452*
X05123Y04519*
X05123Y04519*
X05122Y04518*
X05122Y04518*
X05122Y04517*
X05122Y04517*
X05122Y04516*
X05122Y04516*
X05122Y04515*
X05122Y04515*
X05122Y04514*
X05122Y04513*
X05122Y04513*
X05122Y04512*
X05122Y04512*
X05122Y04511*
X05122Y04511*
X05123Y0451*
X05123Y0451*
X05123Y04509*
X05124Y04509*
X05124Y04509*
X05125Y04508*
X05125Y04508*
X05126Y04508*
X05126Y04507*
X05127Y04507*
X05127Y04507*
X05128Y04507*
X05128Y04507*
X05129Y04507*
X05129Y04507*
X0513*
X0513Y04507*
X05131Y04507*
X05131Y04507*
X05132Y04507*
X05132Y04507*
X05133Y04507*
X05133Y04508*
X05134Y04508*
X05134Y04508*
X05135Y04509*
X05135Y04509*
X05136Y04509*
X05136Y0451*
X05136Y0451*
X05137Y04511*
X05137Y04511*
X05137Y04512*
X05137Y04512*
X05137Y04513*
X05137Y04513*
X05137Y04514*
X05137Y04515*
X05187D02*
D01*
X05187Y04515*
X05187Y04516*
X05187Y04516*
X05187Y04517*
X05187Y04517*
X05187Y04518*
X05187Y04518*
X05186Y04519*
X05186Y04519*
X05186Y0452*
X05185Y0452*
X05185Y0452*
X05184Y04521*
X05184Y04521*
X05183Y04521*
X05183Y04522*
X05182Y04522*
X05182Y04522*
X05181Y04522*
X05181Y04522*
X0518Y04522*
X0518Y04522*
X05179*
X05179Y04522*
X05178Y04522*
X05178Y04522*
X05177Y04522*
X05177Y04522*
X05176Y04522*
X05176Y04521*
X05175Y04521*
X05175Y04521*
X05174Y0452*
X05174Y0452*
X05173Y0452*
X05173Y04519*
X05173Y04519*
X05172Y04518*
X05172Y04518*
X05172Y04517*
X05172Y04517*
X05172Y04516*
X05172Y04516*
X05172Y04515*
X05172Y04515*
X05172Y04514*
X05172Y04513*
X05172Y04513*
X05172Y04512*
X05172Y04512*
X05172Y04511*
X05172Y04511*
X05173Y0451*
X05173Y0451*
X05173Y04509*
X05174Y04509*
X05174Y04509*
X05175Y04508*
X05175Y04508*
X05176Y04508*
X05176Y04507*
X05177Y04507*
X05177Y04507*
X05178Y04507*
X05178Y04507*
X05179Y04507*
X05179Y04507*
X0518*
X0518Y04507*
X05181Y04507*
X05181Y04507*
X05182Y04507*
X05182Y04507*
X05183Y04507*
X05183Y04508*
X05184Y04508*
X05184Y04508*
X05185Y04509*
X05185Y04509*
X05186Y04509*
X05186Y0451*
X05186Y0451*
X05187Y04511*
X05187Y04511*
X05187Y04512*
X05187Y04512*
X05187Y04513*
X05187Y04513*
X05187Y04514*
X05187Y04515*
X05237D02*
D01*
X05237Y04515*
X05237Y04516*
X05237Y04516*
X05237Y04517*
X05237Y04517*
X05237Y04518*
X05237Y04518*
X05236Y04519*
X05236Y04519*
X05236Y0452*
X05235Y0452*
X05235Y0452*
X05234Y04521*
X05234Y04521*
X05233Y04521*
X05233Y04522*
X05232Y04522*
X05232Y04522*
X05231Y04522*
X05231Y04522*
X0523Y04522*
X0523Y04522*
X05229*
X05229Y04522*
X05228Y04522*
X05228Y04522*
X05227Y04522*
X05227Y04522*
X05226Y04522*
X05226Y04521*
X05225Y04521*
X05225Y04521*
X05224Y0452*
X05224Y0452*
X05223Y0452*
X05223Y04519*
X05223Y04519*
X05222Y04518*
X05222Y04518*
X05222Y04517*
X05222Y04517*
X05222Y04516*
X05222Y04516*
X05222Y04515*
X05222Y04515*
X05222Y04514*
X05222Y04513*
X05222Y04513*
X05222Y04512*
X05222Y04512*
X05222Y04511*
X05222Y04511*
X05223Y0451*
X05223Y0451*
X05223Y04509*
X05224Y04509*
X05224Y04509*
X05225Y04508*
X05225Y04508*
X05226Y04508*
X05226Y04507*
X05227Y04507*
X05227Y04507*
X05228Y04507*
X05228Y04507*
X05229Y04507*
X05229Y04507*
X0523*
X0523Y04507*
X05231Y04507*
X05231Y04507*
X05232Y04507*
X05232Y04507*
X05233Y04507*
X05233Y04508*
X05234Y04508*
X05234Y04508*
X05235Y04509*
X05235Y04509*
X05236Y04509*
X05236Y0451*
X05236Y0451*
X05237Y04511*
X05237Y04511*
X05237Y04512*
X05237Y04512*
X05237Y04513*
X05237Y04513*
X05237Y04514*
X05237Y04515*
X04842D02*
D01*
X04842Y04515*
X04842Y04516*
X04842Y04516*
X04842Y04517*
X04842Y04517*
X04842Y04518*
X04842Y04518*
X04841Y04519*
X04841Y04519*
X04841Y0452*
X0484Y0452*
X0484Y0452*
X04839Y04521*
X04839Y04521*
X04838Y04521*
X04838Y04522*
X04837Y04522*
X04837Y04522*
X04836Y04522*
X04836Y04522*
X04835Y04522*
X04835Y04522*
X04834*
X04834Y04522*
X04833Y04522*
X04833Y04522*
X04832Y04522*
X04832Y04522*
X04831Y04522*
X04831Y04521*
X0483Y04521*
X0483Y04521*
X04829Y0452*
X04829Y0452*
X04828Y0452*
X04828Y04519*
X04828Y04519*
X04827Y04518*
X04827Y04518*
X04827Y04517*
X04827Y04517*
X04827Y04516*
X04827Y04516*
X04827Y04515*
X04827Y04515*
X04827Y04514*
X04827Y04513*
X04827Y04513*
X04827Y04512*
X04827Y04512*
X04827Y04511*
X04827Y04511*
X04828Y0451*
X04828Y0451*
X04828Y04509*
X04829Y04509*
X04829Y04509*
X0483Y04508*
X0483Y04508*
X04831Y04508*
X04831Y04507*
X04832Y04507*
X04832Y04507*
X04833Y04507*
X04833Y04507*
X04834Y04507*
X04834Y04507*
X04835*
X04835Y04507*
X04836Y04507*
X04836Y04507*
X04837Y04507*
X04837Y04507*
X04838Y04507*
X04838Y04508*
X04839Y04508*
X04839Y04508*
X0484Y04509*
X0484Y04509*
X04841Y04509*
X04841Y0451*
X04841Y0451*
X04842Y04511*
X04842Y04511*
X04842Y04512*
X04842Y04512*
X04842Y04513*
X04842Y04513*
X04842Y04514*
X04842Y04515*
X04892D02*
D01*
X04892Y04515*
X04892Y04516*
X04892Y04516*
X04892Y04517*
X04892Y04517*
X04892Y04518*
X04892Y04518*
X04891Y04519*
X04891Y04519*
X04891Y0452*
X0489Y0452*
X0489Y0452*
X04889Y04521*
X04889Y04521*
X04888Y04521*
X04888Y04522*
X04887Y04522*
X04887Y04522*
X04886Y04522*
X04886Y04522*
X04885Y04522*
X04885Y04522*
X04884*
X04884Y04522*
X04883Y04522*
X04883Y04522*
X04882Y04522*
X04882Y04522*
X04881Y04522*
X04881Y04521*
X0488Y04521*
X0488Y04521*
X04879Y0452*
X04879Y0452*
X04878Y0452*
X04878Y04519*
X04878Y04519*
X04877Y04518*
X04877Y04518*
X04877Y04517*
X04877Y04517*
X04877Y04516*
X04877Y04516*
X04877Y04515*
X04877Y04515*
X04877Y04514*
X04877Y04513*
X04877Y04513*
X04877Y04512*
X04877Y04512*
X04877Y04511*
X04877Y04511*
X04878Y0451*
X04878Y0451*
X04878Y04509*
X04879Y04509*
X04879Y04509*
X0488Y04508*
X0488Y04508*
X04881Y04508*
X04881Y04507*
X04882Y04507*
X04882Y04507*
X04883Y04507*
X04883Y04507*
X04884Y04507*
X04884Y04507*
X04885*
X04885Y04507*
X04886Y04507*
X04886Y04507*
X04887Y04507*
X04887Y04507*
X04888Y04507*
X04888Y04508*
X04889Y04508*
X04889Y04508*
X0489Y04509*
X0489Y04509*
X04891Y04509*
X04891Y0451*
X04891Y0451*
X04892Y04511*
X04892Y04511*
X04892Y04512*
X04892Y04512*
X04892Y04513*
X04892Y04513*
X04892Y04514*
X04892Y04515*
X04942D02*
D01*
X04942Y04515*
X04942Y04516*
X04942Y04516*
X04942Y04517*
X04942Y04517*
X04942Y04518*
X04942Y04518*
X04941Y04519*
X04941Y04519*
X04941Y0452*
X0494Y0452*
X0494Y0452*
X04939Y04521*
X04939Y04521*
X04938Y04521*
X04938Y04522*
X04937Y04522*
X04937Y04522*
X04936Y04522*
X04936Y04522*
X04935Y04522*
X04935Y04522*
X04934*
X04934Y04522*
X04933Y04522*
X04933Y04522*
X04932Y04522*
X04932Y04522*
X04931Y04522*
X04931Y04521*
X0493Y04521*
X0493Y04521*
X04929Y0452*
X04929Y0452*
X04928Y0452*
X04928Y04519*
X04928Y04519*
X04927Y04518*
X04927Y04518*
X04927Y04517*
X04927Y04517*
X04927Y04516*
X04927Y04516*
X04927Y04515*
X04927Y04515*
X04927Y04514*
X04927Y04513*
X04927Y04513*
X04927Y04512*
X04927Y04512*
X04927Y04511*
X04927Y04511*
X04928Y0451*
X04928Y0451*
X04928Y04509*
X04929Y04509*
X04929Y04509*
X0493Y04508*
X0493Y04508*
X04931Y04508*
X04931Y04507*
X04932Y04507*
X04932Y04507*
X04933Y04507*
X04933Y04507*
X04934Y04507*
X04934Y04507*
X04935*
X04935Y04507*
X04936Y04507*
X04936Y04507*
X04937Y04507*
X04937Y04507*
X04938Y04507*
X04938Y04508*
X04939Y04508*
X04939Y04508*
X0494Y04509*
X0494Y04509*
X04941Y04509*
X04941Y0451*
X04941Y0451*
X04942Y04511*
X04942Y04511*
X04942Y04512*
X04942Y04512*
X04942Y04513*
X04942Y04513*
X04942Y04514*
X04942Y04515*
G54D57*
X05134Y04515D02*
D01*
X05134Y04515*
X05133Y04515*
X05133Y04515*
X05133Y04516*
X05133Y04516*
X05133Y04516*
X05133Y04516*
X05133Y04517*
X05133Y04517*
X05133Y04517*
X05132Y04517*
X05132Y04517*
X05132Y04518*
X05132Y04518*
X05132Y04518*
X05131Y04518*
X05131Y04518*
X05131Y04518*
X0513Y04518*
X0513Y04518*
X0513Y04518*
X0513Y04519*
X05129*
X05129Y04518*
X05129Y04518*
X05129Y04518*
X05128Y04518*
X05128Y04518*
X05128Y04518*
X05127Y04518*
X05127Y04518*
X05127Y04518*
X05127Y04517*
X05127Y04517*
X05126Y04517*
X05126Y04517*
X05126Y04517*
X05126Y04516*
X05126Y04516*
X05126Y04516*
X05126Y04516*
X05126Y04515*
X05126Y04515*
X05125Y04515*
X05125Y04515*
X05125Y04514*
X05126Y04514*
X05126Y04514*
X05126Y04513*
X05126Y04513*
X05126Y04513*
X05126Y04513*
X05126Y04512*
X05126Y04512*
X05126Y04512*
X05127Y04512*
X05127Y04512*
X05127Y04511*
X05127Y04511*
X05127Y04511*
X05128Y04511*
X05128Y04511*
X05128Y04511*
X05129Y04511*
X05129Y04511*
X05129Y04511*
X05129Y0451*
X0513*
X0513Y04511*
X0513Y04511*
X0513Y04511*
X05131Y04511*
X05131Y04511*
X05131Y04511*
X05132Y04511*
X05132Y04511*
X05132Y04511*
X05132Y04512*
X05132Y04512*
X05133Y04512*
X05133Y04512*
X05133Y04512*
X05133Y04513*
X05133Y04513*
X05133Y04513*
X05133Y04513*
X05133Y04514*
X05133Y04514*
X05134Y04514*
X05134Y04515*
X05184D02*
D01*
X05184Y04515*
X05183Y04515*
X05183Y04515*
X05183Y04516*
X05183Y04516*
X05183Y04516*
X05183Y04516*
X05183Y04517*
X05183Y04517*
X05183Y04517*
X05182Y04517*
X05182Y04517*
X05182Y04518*
X05182Y04518*
X05182Y04518*
X05181Y04518*
X05181Y04518*
X05181Y04518*
X0518Y04518*
X0518Y04518*
X0518Y04518*
X0518Y04519*
X05179*
X05179Y04518*
X05179Y04518*
X05179Y04518*
X05178Y04518*
X05178Y04518*
X05178Y04518*
X05177Y04518*
X05177Y04518*
X05177Y04518*
X05177Y04517*
X05177Y04517*
X05176Y04517*
X05176Y04517*
X05176Y04517*
X05176Y04516*
X05176Y04516*
X05176Y04516*
X05176Y04516*
X05176Y04515*
X05176Y04515*
X05175Y04515*
X05175Y04515*
X05175Y04514*
X05176Y04514*
X05176Y04514*
X05176Y04513*
X05176Y04513*
X05176Y04513*
X05176Y04513*
X05176Y04512*
X05176Y04512*
X05176Y04512*
X05177Y04512*
X05177Y04512*
X05177Y04511*
X05177Y04511*
X05177Y04511*
X05178Y04511*
X05178Y04511*
X05178Y04511*
X05179Y04511*
X05179Y04511*
X05179Y04511*
X05179Y0451*
X0518*
X0518Y04511*
X0518Y04511*
X0518Y04511*
X05181Y04511*
X05181Y04511*
X05181Y04511*
X05182Y04511*
X05182Y04511*
X05182Y04511*
X05182Y04512*
X05182Y04512*
X05183Y04512*
X05183Y04512*
X05183Y04512*
X05183Y04513*
X05183Y04513*
X05183Y04513*
X05183Y04513*
X05183Y04514*
X05183Y04514*
X05184Y04514*
X05184Y04515*
X05234D02*
D01*
X05234Y04515*
X05233Y04515*
X05233Y04515*
X05233Y04516*
X05233Y04516*
X05233Y04516*
X05233Y04516*
X05233Y04517*
X05233Y04517*
X05233Y04517*
X05232Y04517*
X05232Y04517*
X05232Y04518*
X05232Y04518*
X05232Y04518*
X05231Y04518*
X05231Y04518*
X05231Y04518*
X0523Y04518*
X0523Y04518*
X0523Y04518*
X0523Y04519*
X05229*
X05229Y04518*
X05229Y04518*
X05229Y04518*
X05228Y04518*
X05228Y04518*
X05228Y04518*
X05227Y04518*
X05227Y04518*
X05227Y04518*
X05227Y04517*
X05227Y04517*
X05226Y04517*
X05226Y04517*
X05226Y04517*
X05226Y04516*
X05226Y04516*
X05226Y04516*
X05226Y04516*
X05226Y04515*
X05226Y04515*
X05225Y04515*
X05225Y04515*
X05225Y04514*
X05226Y04514*
X05226Y04514*
X05226Y04513*
X05226Y04513*
X05226Y04513*
X05226Y04513*
X05226Y04512*
X05226Y04512*
X05226Y04512*
X05227Y04512*
X05227Y04512*
X05227Y04511*
X05227Y04511*
X05227Y04511*
X05228Y04511*
X05228Y04511*
X05228Y04511*
X05229Y04511*
X05229Y04511*
X05229Y04511*
X05229Y0451*
X0523*
X0523Y04511*
X0523Y04511*
X0523Y04511*
X05231Y04511*
X05231Y04511*
X05231Y04511*
X05232Y04511*
X05232Y04511*
X05232Y04511*
X05232Y04512*
X05232Y04512*
X05233Y04512*
X05233Y04512*
X05233Y04512*
X05233Y04513*
X05233Y04513*
X05233Y04513*
X05233Y04513*
X05233Y04514*
X05233Y04514*
X05234Y04514*
X05234Y04515*
X04839D02*
D01*
X04839Y04515*
X04838Y04515*
X04838Y04515*
X04838Y04516*
X04838Y04516*
X04838Y04516*
X04838Y04516*
X04838Y04517*
X04838Y04517*
X04838Y04517*
X04837Y04517*
X04837Y04517*
X04837Y04518*
X04837Y04518*
X04837Y04518*
X04836Y04518*
X04836Y04518*
X04836Y04518*
X04835Y04518*
X04835Y04518*
X04835Y04518*
X04835Y04519*
X04834*
X04834Y04518*
X04834Y04518*
X04834Y04518*
X04833Y04518*
X04833Y04518*
X04833Y04518*
X04832Y04518*
X04832Y04518*
X04832Y04518*
X04832Y04517*
X04832Y04517*
X04831Y04517*
X04831Y04517*
X04831Y04517*
X04831Y04516*
X04831Y04516*
X04831Y04516*
X04831Y04516*
X04831Y04515*
X04831Y04515*
X0483Y04515*
X0483Y04515*
X0483Y04514*
X04831Y04514*
X04831Y04514*
X04831Y04513*
X04831Y04513*
X04831Y04513*
X04831Y04513*
X04831Y04512*
X04831Y04512*
X04831Y04512*
X04832Y04512*
X04832Y04512*
X04832Y04511*
X04832Y04511*
X04832Y04511*
X04833Y04511*
X04833Y04511*
X04833Y04511*
X04834Y04511*
X04834Y04511*
X04834Y04511*
X04834Y0451*
X04835*
X04835Y04511*
X04835Y04511*
X04835Y04511*
X04836Y04511*
X04836Y04511*
X04836Y04511*
X04837Y04511*
X04837Y04511*
X04837Y04511*
X04837Y04512*
X04837Y04512*
X04838Y04512*
X04838Y04512*
X04838Y04512*
X04838Y04513*
X04838Y04513*
X04838Y04513*
X04838Y04513*
X04838Y04514*
X04838Y04514*
X04839Y04514*
X04839Y04515*
X04889D02*
D01*
X04889Y04515*
X04888Y04515*
X04888Y04515*
X04888Y04516*
X04888Y04516*
X04888Y04516*
X04888Y04516*
X04888Y04517*
X04888Y04517*
X04888Y04517*
X04887Y04517*
X04887Y04517*
X04887Y04518*
X04887Y04518*
X04887Y04518*
X04886Y04518*
X04886Y04518*
X04886Y04518*
X04885Y04518*
X04885Y04518*
X04885Y04518*
X04885Y04519*
X04884*
X04884Y04518*
X04884Y04518*
X04884Y04518*
X04883Y04518*
X04883Y04518*
X04883Y04518*
X04882Y04518*
X04882Y04518*
X04882Y04518*
X04882Y04517*
X04882Y04517*
X04881Y04517*
X04881Y04517*
X04881Y04517*
X04881Y04516*
X04881Y04516*
X04881Y04516*
X04881Y04516*
X04881Y04515*
X04881Y04515*
X0488Y04515*
X0488Y04515*
X0488Y04514*
X04881Y04514*
X04881Y04514*
X04881Y04513*
X04881Y04513*
X04881Y04513*
X04881Y04513*
X04881Y04512*
X04881Y04512*
X04881Y04512*
X04882Y04512*
X04882Y04512*
X04882Y04511*
X04882Y04511*
X04882Y04511*
X04883Y04511*
X04883Y04511*
X04883Y04511*
X04884Y04511*
X04884Y04511*
X04884Y04511*
X04884Y0451*
X04885*
X04885Y04511*
X04885Y04511*
X04885Y04511*
X04886Y04511*
X04886Y04511*
X04886Y04511*
X04887Y04511*
X04887Y04511*
X04887Y04511*
X04887Y04512*
X04887Y04512*
X04888Y04512*
X04888Y04512*
X04888Y04512*
X04888Y04513*
X04888Y04513*
X04888Y04513*
X04888Y04513*
X04888Y04514*
X04888Y04514*
X04889Y04514*
X04889Y04515*
X04939D02*
D01*
X04939Y04515*
X04938Y04515*
X04938Y04515*
X04938Y04516*
X04938Y04516*
X04938Y04516*
X04938Y04516*
X04938Y04517*
X04938Y04517*
X04938Y04517*
X04937Y04517*
X04937Y04517*
X04937Y04518*
X04937Y04518*
X04937Y04518*
X04936Y04518*
X04936Y04518*
X04936Y04518*
X04935Y04518*
X04935Y04518*
X04935Y04518*
X04935Y04519*
X04934*
X04934Y04518*
X04934Y04518*
X04934Y04518*
X04933Y04518*
X04933Y04518*
X04933Y04518*
X04932Y04518*
X04932Y04518*
X04932Y04518*
X04932Y04517*
X04932Y04517*
X04931Y04517*
X04931Y04517*
X04931Y04517*
X04931Y04516*
X04931Y04516*
X04931Y04516*
X04931Y04516*
X04931Y04515*
X04931Y04515*
X0493Y04515*
X0493Y04515*
X0493Y04514*
X04931Y04514*
X04931Y04514*
X04931Y04513*
X04931Y04513*
X04931Y04513*
X04931Y04513*
X04931Y04512*
X04931Y04512*
X04931Y04512*
X04932Y04512*
X04932Y04512*
X04932Y04511*
X04932Y04511*
X04932Y04511*
X04933Y04511*
X04933Y04511*
X04933Y04511*
X04934Y04511*
X04934Y04511*
X04934Y04511*
X04934Y0451*
X04935*
X04935Y04511*
X04935Y04511*
X04935Y04511*
X04936Y04511*
X04936Y04511*
X04936Y04511*
X04937Y04511*
X04937Y04511*
X04937Y04511*
X04937Y04512*
X04937Y04512*
X04938Y04512*
X04938Y04512*
X04938Y04512*
X04938Y04513*
X04938Y04513*
X04938Y04513*
X04938Y04513*
X04938Y04514*
X04938Y04514*
X04939Y04514*
X04939Y04515*
M02*